SplineFontDB: 3.0
FontName: LiberationSerif-Bold
FullName: Liberation Serif Bold
FamilyName: Liberation Serif
Weight: Bold
Copyright: Copyright (c) 2007 Red Hat, Inc. All rights reserved. LIBERATION is a trademark of Red Hat, Inc.
Version: 1.07.2
ItalicAngle: 0
UnderlinePosition: -126
UnderlineWidth: 195
Ascent: 1638
Descent: 410
LayerCount: 2
Layer: 0 1 "Back"  1
Layer: 1 1 "Fore"  0
XUID: [1021 131 222397055 11337752]
FSType: 0
OS2Version: 3
OS2_WeightWidthSlopeOnly: 0
OS2_UseTypoMetrics: 1
CreationTime: 1123398000
ModificationTime: 1327999755
PfmFamily: 17
TTFWeight: 700
TTFWidth: 5
LineGap: 87
VLineGap: 0
Panose: 2 2 8 3 7 5 5 2 3 4
OS2TypoAscent: -251
OS2TypoAOffset: 1
OS2TypoDescent: -32
OS2TypoDOffset: 1
OS2TypoLinegap: 307
OS2WinAscent: -239
OS2WinAOffset: 1
OS2WinDescent: -178
OS2WinDOffset: 1
HheadAscent: -239
HheadAOffset: 1
HheadDescent: 178
HheadDOffset: 1
OS2SubXSize: 1434
OS2SubYSize: 1331
OS2SubXOff: 0
OS2SubYOff: 293
OS2SupXSize: 1434
OS2SupYSize: 1331
OS2SupXOff: 0
OS2SupYOff: 928
OS2StrikeYSize: 102
OS2StrikeYPos: 530
OS2FamilyClass: 261
OS2Vendor: '1ASC'
OS2CodePages: 6000009f.dfd70000
OS2UnicodeRanges: a00002af.500078fb.00000000.00000000
Lookup: 1 0 0 "'locl' Localized Forms lookup 0"  {} ['locl' ('cyrl' <'SRB ' > 'cyrl' <'MKD ' > ) ]
Lookup: 258 0 0 "'kern' Horizontal Kerning lookup 0"  {"'kern' Horizontal Kerning lookup 0 subtable"  } ['kern' ('DFLT' <'dflt' > 'cyrl' <'dflt' > 'cyrl' <'SRB ' > 'cyrl' <'MKD ' > 'grek' <'dflt' > 'latn' <'dflt' > ) ]
MarkAttachClasses: 1
DEI: 91125
TtTable: prep
NPUSHB
 49
 9
 226
 224
 53
 31
 223
 51
 221
 85
 222
 51
 220
 85
 48
 221
 80
 221
 128
 221
 176
 221
 4
 221
 1
 3
 85
 220
 3
 22
 31
 111
 211
 1
 95
 211
 239
 211
 2
 79
 211
 1
 63
 194
 1
 31
 194
 223
 194
 2
PUSHW_1
 -64
NPUSHB
 163
 192
 10
 13
 70
 80
 191
 96
 191
 112
 191
 3
 190
 71
 42
 31
 0
 184
 1
 47
 183
 95
 183
 143
 183
 175
 183
 223
 183
 5
 111
 251
 1
 31
 250
 239
 250
 2
 111
 250
 127
 250
 2
 64
 250
 1
 111
 181
 1

StartChar: .notdef
Encoding: 1114112 -1 0
Width: 748
Flags: W
LayerCount: 2
Fore
SplineSet
68 0 m 1,0,-1
 68 1365 l 1,1,-1
 612 1365 l 1,2,-1
 612 0 l 1,3,-1
 68 0 l 1,0,-1
136 68 m 1,4,-1
 544 68 l 1,5,-1
 544 1297 l 1,6,-1
 136 1297 l 1,7,-1
 136 68 l 1,4,-1
EndSplineSet
EndChar

StartChar: exclam
Encoding: 33 33 4
Width: 682
Flags: W
LayerCount: 2
Fore
SplineSet
397 420 m 1,0,-1
 282 420 l 1,1,-1
 190 1341 l 1,2,-1
 489 1341 l 1,3,-1
 397 420 l 1,0,-1
340 -29 m 0,4,5
 305 -29 305 -29 275 -16 c 128,-1,6
 245 -3 245 -3 222.5 19.5 c 128,-1,7
 200 42 200 42 187 72 c 128,-1,8
 174 102 174 102 174 137 c 0,9,10
 174 171 174 171 187 201.5 c 128,-1,11
 200 232 200 232 222.5 254.5 c 128,-1,12
 245 277 245 277 275 290 c 128,-1,13
 305 303 305 303 340 303 c 0,14,15
 374 303 374 303 404.5 290 c 128,-1,16
 435 277 435 277 457.5 254.5 c 128,-1,17
 480 232 480 232 493 201.5 c 128,-1,18
 506 171 506 171 506 137 c 0,19,20
 506 102 506 102 493 72 c 128,-1,21
 480 42 480 42 457.5 19.5 c 128,-1,22
 435 -3 435 -3 404.5 -16 c 128,-1,23
 374 -29 374 -29 340 -29 c 0,4,5
EndSplineSet
EndChar

StartChar: quotedbl
Encoding: 34 34 5
Width: 1137
Flags: W
LayerCount: 2
Fore
SplineSet
653 1341 m 1,0,-1
 911 1341 l 1,1,-1
 833 860 l 1,2,-1
 729 860 l 1,3,-1
 653 1341 l 1,0,-1
227 1341 m 1,4,-1
 485 1341 l 1,5,-1
 407 860 l 1,6,-1
 303 860 l 1,7,-1
 227 1341 l 1,4,-1
EndSplineSet
EndChar

StartChar: numbersign
Encoding: 35 35 6
Width: 1024
Flags: W
LayerCount: 2
Fore
SplineSet
741 411 m 1,0,-1
 665 0 l 1,1,-1
 522 0 l 1,2,-1
 598 411 l 1,3,-1
 328 411 l 1,4,-1
 254 0 l 1,5,-1
 108 0 l 1,6,-1
 184 411 l 1,7,-1
 27 411 l 1,8,-1
 27 534 l 1,9,-1
 209 534 l 1,10,-1
 262 821 l 1,11,-1
 27 821 l 1,12,-1
 27 944 l 1,13,-1
 285 944 l 1,14,-1
 358 1341 l 1,15,-1
 502 1341 l 1,16,-1
 428 944 l 1,17,-1
 698 944 l 1,18,-1
 772 1341 l 1,19,-1
 915 1341 l 1,20,-1
 841 944 l 1,21,-1
 997 944 l 1,22,-1
 997 821 l 1,23,-1
 819 821 l 1,24,-1
 768 534 l 1,25,-1
 997 534 l 1,26,-1
 997 411 l 1,27,-1
 741 411 l 1,0,-1
405 821 m 1,28,-1
 352 534 l 1,29,-1
 622 534 l 1,30,-1
 676 821 l 1,31,-1
 405 821 l 1,28,-1
EndSplineSet
EndChar

StartChar: dollar
Encoding: 36 36 7
Width: 1024
Flags: W
LayerCount: 2
Fore
SplineSet
466 -20 m 1,0,1
 410 -19 410 -19 352.5 -12.5 c 128,-1,2
 295 -6 295 -6 242.5 4 c 128,-1,3
 190 14 190 14 146 26 c 128,-1,4
 102 38 102 38 73 51 c 1,5,-1
 73 371 l 1,6,-1
 166 371 l 1,7,-1
 202 185 l 1,8,9
 217 165 217 165 246.5 146.5 c 128,-1,10
 276 128 276 128 313 113.5 c 128,-1,11
 350 99 350 99 390 89 c 128,-1,12
 430 79 430 79 466 78 c 1,13,-1
 466 566 l 1,14,15
 397 593 397 593 329.5 624.5 c 128,-1,16
 262 656 262 656 208.5 704.5 c 128,-1,17
 155 753 155 753 122 827 c 128,-1,18
 89 901 89 901 89 1014 c 0,19,20
 89 1087 89 1087 116 1146.5 c 128,-1,21
 143 1206 143 1206 192.5 1249.5 c 128,-1,22
 242 1293 242 1293 311.5 1320 c 128,-1,23
 381 1347 381 1347 466 1354 c 1,24,-1
 466 1483 l 1,25,-1
 568 1483 l 1,26,-1
 568 1356 l 1,27,28
 649 1353 649 1353 730.5 1340.5 c 128,-1,29
 812 1328 812 1328 874 1313 c 1,30,-1
 874 1034 l 1,31,-1
 783 1034 l 1,32,-1
 751 1177 l 1,33,34
 722 1206 722 1206 672 1228.5 c 128,-1,35
 622 1251 622 1251 568 1256 c 1,36,-1
 568 841 l 1,37,38
 615 822 615 822 662.5 802 c 128,-1,39
 710 782 710 782 754.5 757.5 c 128,-1,40
 799 733 799 733 837.5 700.5 c 128,-1,41
 876 668 876 668 904.5 624 c 128,-1,42
 933 580 933 580 949.5 521.5 c 128,-1,43
 966 463 966 463 966 387 c 0,44,45
 966 301 966 301 939 230 c 128,-1,46
 912 159 912 159 861 107 c 128,-1,47
 810 55 810 55 736 23 c 128,-1,48
 662 -9 662 -9 568 -16 c 1,49,-1
 568 -156 l 1,50,-1
 466 -156 l 1,51,-1
 466 -20 l 1,0,1
752 330 m 0,52,53
 752 375 752 375 737.5 406.5 c 128,-1,54
 723 438 723 438 698 460.5 c 128,-1,55
 673 483 673 483 639.5 498.5 c 128,-1,56
 606 514 606 514 568 528 c 1,57,-1
 568 77 l 1,58,59
 657 93 657 93 704.5 156.5 c 128,-1,60
 752 220 752 220 752 330 c 0,52,53
303 1067 m 0,61,62
 303 1024 303 1024 315.5 994.5 c 128,-1,63
 328 965 328 965 350 944 c 128,-1,64
 372 923 372 923 402 908 c 128,-1,65
 432 893 432 893 466 879 c 1,66,-1
 466 1254 l 1,67,68
 387 1242 387 1242 345 1192.5 c 128,-1,69
 303 1143 303 1143 303 1067 c 0,61,62
EndSplineSet
EndChar

StartChar: percent
Encoding: 37 37 8
Width: 2048
Flags: W
LayerCount: 2
Fore
SplineSet
640 -20 m 1,0,-1
 490 -20 l 1,1,-1
 1438 1362 l 1,2,-1
 1589 1362 l 1,3,-1
 640 -20 l 1,0,-1
861 995 m 0,4,5
 861 816 861 816 780.5 719.5 c 128,-1,6
 700 623 700 623 531 623 c 0,7,8
 370 623 370 623 290 718 c 128,-1,9
 210 813 210 813 210 995 c 0,10,11
 210 1173 210 1173 290.5 1267.5 c 128,-1,12
 371 1362 371 1362 537 1362 c 0,13,14
 696 1362 696 1362 778.5 1270 c 128,-1,15
 861 1178 861 1178 861 995 c 0,4,5
645 995 m 0,16,17
 645 1060 645 1060 639.5 1111 c 128,-1,18
 634 1162 634 1162 620.5 1197 c 128,-1,19
 607 1232 607 1232 585 1250 c 128,-1,20
 563 1268 563 1268 531 1268 c 256,21,22
 499 1268 499 1268 478.5 1250 c 128,-1,23
 458 1232 458 1232 446 1197 c 128,-1,24
 434 1162 434 1162 429.5 1111 c 128,-1,25
 425 1060 425 1060 425 995 c 0,26,27
 425 929 425 929 429.5 877.5 c 128,-1,28
 434 826 434 826 446 790 c 128,-1,29
 458 754 458 754 478.5 735 c 128,-1,30
 499 716 499 716 531 716 c 256,31,32
 563 716 563 716 585 735 c 128,-1,33
 607 754 607 754 620.5 790 c 128,-1,34
 634 826 634 826 639.5 877.5 c 128,-1,35
 645 929 645 929 645 995 c 0,16,17
1856 346 m 0,36,37
 1856 166 1856 166 1776 69.5 c 128,-1,38
 1696 -27 1696 -27 1527 -27 c 0,39,40
 1366 -27 1366 -27 1285.5 68 c 128,-1,41
 1205 163 1205 163 1205 346 c 0,42,43
 1205 524 1205 524 1286 618.5 c 128,-1,44
 1367 713 1367 713 1533 713 c 0,45,46
 1692 713 1692 713 1774 621 c 128,-1,47
 1856 529 1856 529 1856 346 c 0,36,37
1641 346 m 0,48,49
 1641 411 1641 411 1635.5 462 c 128,-1,50
 1630 513 1630 513 1616.5 548 c 128,-1,51
 1603 583 1603 583 1581 601 c 128,-1,52
 1559 619 1559 619 1527 619 c 256,53,54
 1495 619 1495 619 1474.5 601 c 128,-1,55
 1454 583 1454 583 1442 548 c 128,-1,56
 1430 513 1430 513 1425.5 462 c 128,-1,57
 1421 411 1421 411 1421 346 c 0,58,59
 1421 280 1421 280 1425.5 228.5 c 128,-1,60
 1430 177 1430 177 1442 141 c 128,-1,61
 1454 105 1454 105 1474.5 86 c 128,-1,62
 1495 67 1495 67 1527 67 c 256,63,64
 1559 67 1559 67 1581 86 c 128,-1,65
 1603 105 1603 105 1616.5 141 c 128,-1,66
 1630 177 1630 177 1635.5 228.5 c 128,-1,67
 1641 280 1641 280 1641 346 c 0,48,49
EndSplineSet
EndChar

StartChar: ampersand
Encoding: 38 38 9
Width: 1706
Flags: W
LayerCount: 2
Fore
SplineSet
1043 1073 m 0,0,1
 1043 1003 1043 1003 1019 953 c 128,-1,2
 995 903 995 903 955 866 c 128,-1,3
 915 829 915 829 862.5 802.5 c 128,-1,4
 810 776 810 776 752 753 c 1,5,-1
 1132 410 l 1,6,7
 1163 489 1163 489 1175.5 569 c 128,-1,8
 1188 649 1188 649 1191 717 c 1,9,-1
 1080 743 l 1,10,-1
 1080 807 l 1,11,-1
 1557 807 l 1,12,-1
 1557 743 l 1,13,-1
 1447 717 l 1,14,15
 1435 677 1435 677 1420 626 c 128,-1,16
 1405 575 1405 575 1384.5 518.5 c 128,-1,17
 1364 462 1364 462 1336 402.5 c 128,-1,18
 1308 343 1308 343 1270 286 c 1,19,-1
 1490 88 l 1,20,-1
 1606 63 l 1,21,-1
 1606 0 l 1,22,-1
 1222 0 l 1,23,-1
 1103 110 l 1,24,25
 1023 51 1023 51 914 15.5 c 128,-1,26
 805 -20 805 -20 660 -20 c 0,27,28
 518 -20 518 -20 415.5 4.5 c 128,-1,29
 313 29 313 29 247 77 c 128,-1,30
 181 125 181 125 149.5 195 c 128,-1,31
 118 265 118 265 118 356 c 0,32,33
 118 446 118 446 146.5 510 c 128,-1,34
 175 574 175 574 220 619.5 c 128,-1,35
 265 665 265 665 320.5 694.5 c 128,-1,36
 376 724 376 724 430 745 c 1,37,38
 403 776 403 776 380 811 c 128,-1,39
 357 846 357 846 340 885.5 c 128,-1,40
 323 925 323 925 313.5 970 c 128,-1,41
 304 1015 304 1015 304 1067 c 0,42,43
 304 1125 304 1125 324 1178.5 c 128,-1,44
 344 1232 344 1232 389 1273 c 128,-1,45
 434 1314 434 1314 505.5 1338 c 128,-1,46
 577 1362 577 1362 681 1362 c 0,47,48
 782 1362 782 1362 851 1339 c 128,-1,49
 920 1316 920 1316 963 1276.5 c 128,-1,50
 1006 1237 1006 1237 1024.5 1184.5 c 128,-1,51
 1043 1132 1043 1132 1043 1073 c 0,0,1
660 86 m 0,52,53
 774 86 774 86 857 119 c 128,-1,54
 940 152 940 152 999 206 c 1,55,-1
 522 650 l 1,56,57
 497 633 497 633 474 610 c 128,-1,58
 451 587 451 587 433 553.5 c 128,-1,59
 415 520 415 520 404.5 474.5 c 128,-1,60
 394 429 394 429 394 367 c 0,61,62
 394 224 394 224 465 155 c 128,-1,63
 536 86 536 86 660 86 c 0,52,53
554 1089 m 0,64,65
 554 1047 554 1047 562 1013 c 128,-1,66
 570 979 570 979 584 949.5 c 128,-1,67
 598 920 598 920 618 894.5 c 128,-1,68
 638 869 638 869 661 844 c 1,69,70
 691 860 691 860 715.5 879 c 128,-1,71
 740 898 740 898 757.5 926 c 128,-1,72
 775 954 775 954 784 993 c 128,-1,73
 793 1032 793 1032 793 1089 c 0,74,75
 793 1262 793 1262 681 1262 c 0,76,77
 613 1262 613 1262 583.5 1218.5 c 128,-1,78
 554 1175 554 1175 554 1089 c 0,64,65
EndSplineSet
EndChar

StartChar: quotesingle
Encoding: 39 39 10
Width: 569
Flags: W
LayerCount: 2
Fore
SplineSet
156 1341 m 1,0,-1
 414 1341 l 1,1,-1
 336 860 l 1,2,-1
 232 860 l 1,3,-1
 156 1341 l 1,0,-1
EndSplineSet
EndChar

StartChar: parenleft
Encoding: 40 40 11
Width: 682
Flags: W
LayerCount: 2
Fore
SplineSet
363 494 m 256,0,1
 363 372 363 372 371.5 252.5 c 128,-1,2
 380 133 380 133 407 26.5 c 128,-1,3
 434 -80 434 -80 483.5 -169.5 c 128,-1,4
 533 -259 533 -259 616 -322 c 1,5,-1
 616 -436 l 1,6,7
 482 -365 482 -365 383.5 -281.5 c 128,-1,8
 285 -198 285 -198 219.5 -88.5 c 128,-1,9
 154 21 154 21 122 163.5 c 128,-1,10
 90 306 90 306 90 495 c 0,11,12
 90 683 90 683 122 824.5 c 128,-1,13
 154 966 154 966 219.5 1075 c 128,-1,14
 285 1184 285 1184 383.5 1267 c 128,-1,15
 482 1350 482 1350 616 1421 c 1,16,-1
 616 1307 l 1,17,18
 533 1244 533 1244 483.5 1155 c 128,-1,19
 434 1066 434 1066 407 959.5 c 128,-1,20
 380 853 380 853 371.5 734.5 c 128,-1,21
 363 616 363 616 363 494 c 256,0,1
EndSplineSet
EndChar

StartChar: parenright
Encoding: 41 41 12
Width: 682
Flags: W
LayerCount: 2
Fore
SplineSet
66 -436 m 1,0,-1
 66 -322 l 1,1,2
 148 -259 148 -259 198 -169.5 c 128,-1,3
 248 -80 248 -80 275 26.5 c 128,-1,4
 302 133 302 133 310.5 252.5 c 128,-1,5
 319 372 319 372 319 494 c 256,6,7
 319 616 319 616 310.5 734.5 c 128,-1,8
 302 853 302 853 275 959.5 c 128,-1,9
 248 1066 248 1066 198 1155 c 128,-1,10
 148 1244 148 1244 66 1307 c 1,11,-1
 66 1421 l 1,12,13
 199 1350 199 1350 298 1267 c 128,-1,14
 397 1184 397 1184 462.5 1075 c 128,-1,15
 528 966 528 966 560 824.5 c 128,-1,16
 592 683 592 683 592 495 c 0,17,18
 592 306 592 306 560 163.5 c 128,-1,19
 528 21 528 21 462.5 -88.5 c 128,-1,20
 397 -198 397 -198 298 -281.5 c 128,-1,21
 199 -365 199 -365 66 -436 c 1,0,-1
EndSplineSet
EndChar

StartChar: asterisk
Encoding: 42 42 13
Width: 1024
Flags: W
LayerCount: 2
Fore
SplineSet
556 895 m 1,0,-1
 629 579 l 1,1,-1
 396 579 l 1,2,-1
 466 899 l 1,3,-1
 179 663 l 1,4,-1
 85 876 l 1,5,-1
 392 964 l 1,6,-1
 85 1054 l 1,7,-1
 179 1267 l 1,8,-1
 466 1034 l 1,9,-1
 396 1351 l 1,10,-1
 629 1351 l 1,11,-1
 556 1034 l 1,12,-1
 844 1261 l 1,13,-1
 939 1052 l 1,14,-1
 627 964 l 1,15,-1
 939 878 l 1,16,-1
 844 667 l 1,17,-1
 556 895 l 1,0,-1
EndSplineSet
EndChar

StartChar: plus
Encoding: 43 43 14
Width: 1167
Flags: W
LayerCount: 2
Fore
SplineSet
655 608 m 1,0,-1
 655 203 l 1,1,-1
 512 203 l 1,2,-1
 512 608 l 1,3,-1
 108 608 l 1,4,-1
 108 751 l 1,5,-1
 512 751 l 1,6,-1
 512 1157 l 1,7,-1
 655 1157 l 1,8,-1
 655 751 l 1,9,-1
 1060 751 l 1,10,-1
 1060 608 l 1,11,-1
 655 608 l 1,0,-1
EndSplineSet
EndChar

StartChar: comma
Encoding: 44 44 15
Width: 512
Flags: W
LayerCount: 2
Fore
SplineSet
434 106 m 0,0,1
 434 35 434 35 411.5 -28.5 c 128,-1,2
 389 -92 389 -92 340 -146.5 c 128,-1,3
 291 -201 291 -201 213.5 -244.5 c 128,-1,4
 136 -288 136 -288 27 -317 c 1,5,-1
 27 -225 l 1,6,7
 84 -208 84 -208 122.5 -183.5 c 128,-1,8
 161 -159 161 -159 184.5 -132.5 c 128,-1,9
 208 -106 208 -106 218.5 -80 c 128,-1,10
 229 -54 229 -54 229 -35 c 0,11,12
 229 -15 229 -15 218 -1.5 c 128,-1,13
 207 12 207 12 190 22.5 c 128,-1,14
 173 33 173 33 153.5 43.5 c 128,-1,15
 134 54 134 54 117 70 c 128,-1,16
 100 86 100 86 89 109 c 128,-1,17
 78 132 78 132 78 168 c 0,18,19
 78 233 78 233 123 267 c 128,-1,20
 168 301 168 301 237 301 c 0,21,22
 275 301 275 301 310.5 288.5 c 128,-1,23
 346 276 346 276 373.5 251 c 128,-1,24
 401 226 401 226 417.5 190 c 128,-1,25
 434 154 434 154 434 106 c 0,0,1
EndSplineSet
EndChar

StartChar: uni00AD
Encoding: 173 173 16
AltUni2: 00002d.ffffffff.0 00002d.ffffffff.0 00002d.ffffffff.0
Width: 682
Flags: W
LayerCount: 2
Fore
SplineSet
75 395 m 1,0,-1
 75 569 l 1,1,-1
 607 569 l 1,2,-1
 607 395 l 1,3,-1
 75 395 l 1,0,-1
EndSplineSet
EndChar

StartChar: period
Encoding: 46 46 17
Width: 512
Flags: W
LayerCount: 2
Fore
SplineSet
256 -29 m 0,0,1
 221 -29 221 -29 191 -16 c 128,-1,2
 161 -3 161 -3 138.5 19.5 c 128,-1,3
 116 42 116 42 103 72 c 128,-1,4
 90 102 90 102 90 137 c 0,5,6
 90 171 90 171 103 201.5 c 128,-1,7
 116 232 116 232 138.5 254.5 c 128,-1,8
 161 277 161 277 191 290 c 128,-1,9
 221 303 221 303 256 303 c 0,10,11
 290 303 290 303 320.5 290 c 128,-1,12
 351 277 351 277 373.5 254.5 c 128,-1,13
 396 232 396 232 409 201.5 c 128,-1,14
 422 171 422 171 422 137 c 0,15,16
 422 102 422 102 409 72 c 128,-1,17
 396 42 396 42 373.5 19.5 c 128,-1,18
 351 -3 351 -3 320.5 -16 c 128,-1,19
 290 -29 290 -29 256 -29 c 0,0,1
EndSplineSet
EndChar

StartChar: slash
Encoding: 47 47 18
Width: 569
Flags: W
LayerCount: 2
Fore
SplineSet
121 -20 m 1,0,-1
 -20 -20 l 1,1,-1
 450 1349 l 1,2,-1
 590 1349 l 1,3,-1
 121 -20 l 1,0,-1
EndSplineSet
EndChar

StartChar: zero
Encoding: 48 48 19
Width: 1024
Flags: W
LayerCount: 2
Fore
SplineSet
946 676 m 0,0,1
 946 508 946 508 919.5 378 c 128,-1,2
 893 248 893 248 839 159.5 c 128,-1,3
 785 71 785 71 702 25.5 c 128,-1,4
 619 -20 619 -20 506 -20 c 0,5,6
 294 -20 294 -20 186 158 c 128,-1,7
 78 336 78 336 78 676 c 0,8,9
 78 1009 78 1009 186 1185.5 c 128,-1,10
 294 1362 294 1362 514 1362 c 0,11,12
 726 1362 726 1362 836 1187.5 c 128,-1,13
 946 1013 946 1013 946 676 c 0,0,1
653 676 m 0,14,15
 653 815 653 815 646 924 c 128,-1,16
 639 1033 639 1033 622 1108 c 128,-1,17
 605 1183 605 1183 577.5 1222 c 128,-1,18
 550 1261 550 1261 508 1261 c 256,19,20
 466 1261 466 1261 439.5 1222 c 128,-1,21
 413 1183 413 1183 398 1108 c 128,-1,22
 383 1033 383 1033 377 924 c 128,-1,23
 371 815 371 815 371 676 c 0,24,25
 371 536 371 536 377 425.5 c 128,-1,26
 383 315 383 315 398 238.5 c 128,-1,27
 413 162 413 162 439.5 121 c 128,-1,28
 466 80 466 80 508 80 c 256,29,30
 550 80 550 80 577.5 121 c 128,-1,31
 605 162 605 162 622 238.5 c 128,-1,32
 639 315 639 315 646 425.5 c 128,-1,33
 653 536 653 536 653 676 c 0,14,15
EndSplineSet
EndChar

StartChar: one
Encoding: 49 49 20
Width: 1024
Flags: W
LayerCount: 2
Fore
SplineSet
685 110 m 1,0,-1
 918 86 l 1,1,-1
 918 0 l 1,2,-1
 164 0 l 1,3,-1
 164 86 l 1,4,-1
 396 110 l 1,5,-1
 396 1121 l 1,6,-1
 165 1045 l 1,7,-1
 165 1130 l 1,8,-1
 543 1352 l 1,9,-1
 685 1352 l 1,10,-1
 685 110 l 1,0,-1
EndSplineSet
EndChar

StartChar: two
Encoding: 50 50 21
Width: 1024
Flags: W
LayerCount: 2
Fore
SplineSet
936 0 m 1,0,-1
 86 0 l 1,1,-1
 86 189 l 1,2,3
 172 281 172 281 245 353.5 c 128,-1,4
 318 426 318 426 377.5 488.5 c 128,-1,5
 437 551 437 551 483 607.5 c 128,-1,6
 529 664 529 664 559.5 724.5 c 128,-1,7
 590 785 590 785 606 854 c 128,-1,8
 622 923 622 923 622 1011 c 0,9,10
 622 1072 622 1072 606 1117.5 c 128,-1,11
 590 1163 590 1163 563.5 1193.5 c 128,-1,12
 537 1224 537 1224 502 1239 c 128,-1,13
 467 1254 467 1254 428 1254 c 0,14,15
 366 1254 366 1254 329 1241 c 128,-1,16
 292 1228 292 1228 261 1202 c 1,17,-1
 218 1008 l 1,18,-1
 131 1008 l 1,19,-1
 131 1313 l 1,20,21
 211 1331 211 1331 287.5 1343.5 c 128,-1,22
 364 1356 364 1356 454 1356 c 0,23,24
 675 1356 675 1356 792.5 1265 c 128,-1,25
 910 1174 910 1174 910 1006 c 0,26,27
 910 926 910 926 891 861.5 c 128,-1,28
 872 797 872 797 835.5 740 c 128,-1,29
 799 683 799 683 745 629 c 128,-1,30
 691 575 691 575 620.5 515 c 128,-1,31
 550 455 550 455 464 385 c 128,-1,32
 378 315 378 315 278 226 c 1,33,-1
 936 226 l 1,34,-1
 936 0 l 1,0,-1
EndSplineSet
EndChar

StartChar: three
Encoding: 51 51 22
Width: 1024
Flags: W
LayerCount: 2
Fore
SplineSet
954 365 m 0,0,1
 954 274 954 274 921 202.5 c 128,-1,2
 888 131 888 131 824.5 81.5 c 128,-1,3
 761 32 761 32 669 6 c 128,-1,4
 577 -20 577 -20 459 -20 c 0,5,6
 357 -20 357 -20 262 -8.5 c 128,-1,7
 167 3 167 3 89 20 c 1,8,-1
 77 345 l 1,9,-1
 169 345 l 1,10,-1
 221 130 l 1,11,12
 253 112 253 112 300.5 96.5 c 128,-1,13
 348 81 348 81 403 81 c 0,14,15
 469 81 469 81 517 103 c 128,-1,16
 565 125 565 125 597 164 c 128,-1,17
 629 203 629 203 644.5 257 c 128,-1,18
 660 311 660 311 660 375 c 0,19,20
 660 447 660 447 642 495.5 c 128,-1,21
 624 544 624 544 593 573.5 c 128,-1,22
 562 603 562 603 519.5 616.5 c 128,-1,23
 477 630 477 630 429 633 c 2,24,-1
 313 640 l 1,25,-1
 313 761 l 1,26,-1
 425 769 l 2,27,28
 514 775 514 775 556.5 834.5 c 128,-1,29
 599 894 599 894 599 1014 c 0,30,31
 599 1075 599 1075 584.5 1120 c 128,-1,32
 570 1165 570 1165 544.5 1195 c 128,-1,33
 519 1225 519 1225 483 1239.5 c 128,-1,34
 447 1254 447 1254 405 1254 c 0,35,36
 351 1254 351 1254 316.5 1237.5 c 128,-1,37
 282 1221 282 1221 251 1202 c 1,38,-1
 208 1008 l 1,39,-1
 121 1008 l 1,40,-1
 121 1313 l 1,41,42
 157 1322 157 1322 193 1330 c 128,-1,43
 229 1338 229 1338 268 1343.5 c 128,-1,44
 307 1349 307 1349 350 1352.5 c 128,-1,45
 393 1356 393 1356 443 1356 c 0,46,47
 664 1356 664 1356 779 1275 c 128,-1,48
 894 1194 894 1194 894 1026 c 0,49,50
 894 963 894 963 877.5 908.5 c 128,-1,51
 861 854 861 854 827 812 c 128,-1,52
 793 770 793 770 740.5 741.5 c 128,-1,53
 688 713 688 713 616 702 c 1,54,55
 788 681 788 681 871 597 c 128,-1,56
 954 513 954 513 954 365 c 0,0,1
EndSplineSet
EndChar

StartChar: four
Encoding: 52 52 23
Width: 1024
Flags: W
LayerCount: 2
Fore
SplineSet
852 265 m 1,0,-1
 852 0 l 1,1,-1
 583 0 l 1,2,-1
 583 265 l 1,3,-1
 28 265 l 1,4,-1
 28 428 l 1,5,-1
 632 1348 l 1,6,-1
 852 1348 l 1,7,-1
 852 470 l 1,8,-1
 986 470 l 1,9,-1
 986 265 l 1,10,-1
 852 265 l 1,0,-1
583 867 m 2,11,12
 583 893 583 893 584 922 c 128,-1,13
 585 951 585 951 586.5 979.5 c 128,-1,14
 588 1008 588 1008 589.5 1033.5 c 128,-1,15
 591 1059 591 1059 593 1079 c 1,16,-1
 194 470 l 1,17,-1
 583 470 l 1,18,-1
 583 867 l 2,11,12
EndSplineSet
EndChar

StartChar: five
Encoding: 53 53 24
Width: 1024
Flags: W
LayerCount: 2
Fore
SplineSet
480 793 m 0,0,1
 595 793 595 793 682.5 770 c 128,-1,2
 770 747 770 747 829 699 c 128,-1,3
 888 651 888 651 918.5 576.5 c 128,-1,4
 949 502 949 502 949 399 c 0,5,6
 949 304 949 304 920 227 c 128,-1,7
 891 150 891 150 831 95 c 128,-1,8
 771 40 771 40 679.5 10 c 128,-1,9
 588 -20 588 -20 464 -20 c 0,10,11
 362 -20 362 -20 267 -8.5 c 128,-1,12
 172 3 172 3 94 20 c 1,13,-1
 82 345 l 1,14,-1
 174 345 l 1,15,-1
 226 130 l 1,16,17
 242 121 242 121 265 112 c 128,-1,18
 288 103 288 103 314.5 96.5 c 128,-1,19
 341 90 341 90 369.5 85.5 c 128,-1,20
 398 81 398 81 425 81 c 0,21,22
 488 81 488 81 531.5 103.5 c 128,-1,23
 575 126 575 126 602.5 166.5 c 128,-1,24
 630 207 630 207 642.5 263.5 c 128,-1,25
 655 320 655 320 655 389 c 0,26,27
 655 464 655 464 642 521 c 128,-1,28
 629 578 629 578 600 616 c 128,-1,29
 571 654 571 654 524.5 673 c 128,-1,30
 478 692 478 692 410 692 c 0,31,32
 380 692 380 692 356.5 688.5 c 128,-1,33
 333 685 333 685 314.5 679 c 128,-1,34
 296 673 296 673 280 666 c 128,-1,35
 264 659 264 659 249 653 c 1,36,-1
 149 653 l 1,37,-1
 149 1341 l 1,38,-1
 849 1341 l 1,39,-1
 849 1118 l 1,40,-1
 260 1118 l 1,41,-1
 260 766 l 1,42,43
 278 770 278 770 299 774.5 c 128,-1,44
 320 779 320 779 346.5 783 c 128,-1,45
 373 787 373 787 406 790 c 128,-1,46
 439 793 439 793 480 793 c 0,0,1
EndSplineSet
EndChar

StartChar: six
Encoding: 54 54 25
Width: 1024
Flags: W
LayerCount: 2
Fore
SplineSet
964 416 m 0,0,1
 964 312 964 312 937 231 c 128,-1,2
 910 150 910 150 856.5 94 c 128,-1,3
 803 38 803 38 725 9 c 128,-1,4
 647 -20 647 -20 545 -20 c 0,5,6
 433 -20 433 -20 344.5 23 c 128,-1,7
 256 66 256 66 195 151.5 c 128,-1,8
 134 237 134 237 102 364.5 c 128,-1,9
 70 492 70 492 70 662 c 0,10,11
 70 844 70 844 112.5 975 c 128,-1,12
 155 1106 155 1106 226 1191 c 128,-1,13
 297 1276 297 1276 389.5 1316 c 128,-1,14
 482 1356 482 1356 582 1356 c 0,15,16
 660 1356 660 1356 739.5 1344 c 128,-1,17
 819 1332 819 1332 883 1313 c 1,18,-1
 883 1008 l 1,19,-1
 796 1008 l 1,20,-1
 753 1202 l 1,21,22
 721 1226 721 1226 682.5 1240 c 128,-1,23
 644 1254 644 1254 602 1254 c 0,24,25
 556 1254 556 1254 515.5 1224 c 128,-1,26
 475 1194 475 1194 444 1134 c 128,-1,27
 413 1074 413 1074 392.5 982.5 c 128,-1,28
 372 891 372 891 366 768 c 1,29,30
 417 790 417 790 469.5 802.5 c 128,-1,31
 522 815 522 815 582 815 c 0,32,33
 669 815 669 815 739.5 790.5 c 128,-1,34
 810 766 810 766 860 716.5 c 128,-1,35
 910 667 910 667 937 592 c 128,-1,36
 964 517 964 517 964 416 c 0,0,1
541 81 m 0,37,38
 614 81 614 81 642 160 c 128,-1,39
 670 239 670 239 670 397 c 0,40,41
 670 482 670 482 657 538.5 c 128,-1,42
 644 595 644 595 622.5 629 c 128,-1,43
 601 663 601 663 573 676.5 c 128,-1,44
 545 690 545 690 515 690 c 0,45,46
 469 690 469 690 435 684 c 128,-1,47
 401 678 401 678 364 667 c 1,48,-1
 364 662 l 2,49,50
 364 522 364 522 374 414 c 128,-1,51
 384 306 384 306 405.5 232 c 128,-1,52
 427 158 427 158 460.5 119.5 c 128,-1,53
 494 81 494 81 541 81 c 0,37,38
EndSplineSet
EndChar

StartChar: seven
Encoding: 55 55 26
Width: 1024
Flags: W
LayerCount: 2
Fore
SplineSet
204 958 m 1,0,-1
 117 958 l 1,1,-1
 117 1341 l 1,2,-1
 974 1341 l 1,3,-1
 974 1262 l 1,4,-1
 453 0 l 1,5,-1
 214 0 l 1,6,-1
 779 1118 l 1,7,-1
 250 1118 l 1,8,-1
 204 958 l 1,0,-1
EndSplineSet
EndChar

StartChar: eight
Encoding: 56 56 27
Width: 1024
Flags: W
LayerCount: 2
Fore
SplineSet
925 1011 m 0,0,1
 925 901 925 901 871 823.5 c 128,-1,2
 817 746 817 746 719 711 c 1,3,4
 772 691 772 691 816 659 c 128,-1,5
 860 627 860 627 891 583.5 c 128,-1,6
 922 540 922 540 939 484.5 c 128,-1,7
 956 429 956 429 956 362 c 0,8,9
 956 172 956 172 846.5 76 c 128,-1,10
 737 -20 737 -20 506 -20 c 0,11,12
 287 -20 287 -20 177.5 74.5 c 128,-1,13
 68 169 68 169 68 362 c 0,14,15
 68 428 68 428 84.5 483.5 c 128,-1,16
 101 539 101 539 131.5 582.5 c 128,-1,17
 162 626 162 626 205 658.5 c 128,-1,18
 248 691 248 691 302 711 c 1,19,20
 205 748 205 748 152 825 c 128,-1,21
 99 902 99 902 99 1014 c 0,22,23
 99 1093 99 1093 125.5 1157.5 c 128,-1,24
 152 1222 152 1222 204 1267.5 c 128,-1,25
 256 1313 256 1313 334 1337.5 c 128,-1,26
 412 1362 412 1362 514 1362 c 0,27,28
 613 1362 613 1362 689.5 1337.5 c 128,-1,29
 766 1313 766 1313 818.5 1267 c 128,-1,30
 871 1221 871 1221 898 1156.5 c 128,-1,31
 925 1092 925 1092 925 1011 c 0,0,1
672 362 m 0,32,33
 672 433 672 433 663.5 487.5 c 128,-1,34
 655 542 655 542 635.5 579.5 c 128,-1,35
 616 617 616 617 584.5 636.5 c 128,-1,36
 553 656 553 656 506 656 c 0,37,38
 460 656 460 656 430.5 636.5 c 128,-1,39
 401 617 401 617 383.5 579.5 c 128,-1,40
 366 542 366 542 359 487.5 c 128,-1,41
 352 433 352 433 352 362 c 0,42,43
 352 294 352 294 359 241.5 c 128,-1,44
 366 189 366 189 383.5 153.5 c 128,-1,45
 401 118 401 118 430.5 99.5 c 128,-1,46
 460 81 460 81 506 81 c 0,47,48
 553 81 553 81 584.5 99.5 c 128,-1,49
 616 118 616 118 635.5 153.5 c 128,-1,50
 655 189 655 189 663.5 241.5 c 128,-1,51
 672 294 672 294 672 362 c 0,32,33
641 1011 m 0,52,53
 641 1065 641 1065 635 1111 c 128,-1,54
 629 1157 629 1157 613.5 1190.5 c 128,-1,55
 598 1224 598 1224 572.5 1242.5 c 128,-1,56
 547 1261 547 1261 508 1261 c 0,57,58
 470 1261 470 1261 446 1242.5 c 128,-1,59
 422 1224 422 1224 408 1190.5 c 128,-1,60
 394 1157 394 1157 388.5 1111 c 128,-1,61
 383 1065 383 1065 383 1011 c 0,62,63
 383 953 383 953 388.5 907 c 128,-1,64
 394 861 394 861 408 829 c 128,-1,65
 422 797 422 797 446 780 c 128,-1,66
 470 763 470 763 508 763 c 0,67,68
 547 763 547 763 572.5 780 c 128,-1,69
 598 797 598 797 613.5 829 c 128,-1,70
 629 861 629 861 635 907 c 128,-1,71
 641 953 641 953 641 1011 c 0,52,53
EndSplineSet
EndChar

StartChar: nine
Encoding: 57 57 28
Width: 1024
Flags: W
LayerCount: 2
Fore
SplineSet
56 932 m 0,0,1
 56 1035 56 1035 86.5 1114.5 c 128,-1,2
 117 1194 117 1194 174.5 1247.5 c 128,-1,3
 232 1301 232 1301 314 1328.5 c 128,-1,4
 396 1356 396 1356 498 1356 c 0,5,6
 614 1356 614 1356 699.5 1316 c 128,-1,7
 785 1276 785 1276 840.5 1192.5 c 128,-1,8
 896 1109 896 1109 923 980 c 128,-1,9
 950 851 950 851 950 674 c 0,10,11
 950 480 950 480 906.5 347.5 c 128,-1,12
 863 215 863 215 789.5 133.5 c 128,-1,13
 716 52 716 52 619.5 16 c 128,-1,14
 523 -20 523 -20 418 -20 c 0,15,16
 326 -20 326 -20 252 -9 c 128,-1,17
 178 2 178 2 107 23 c 1,18,-1
 107 328 l 1,19,-1
 194 328 l 1,20,-1
 237 134 l 1,21,22
 272 109 272 109 320.5 95 c 128,-1,23
 369 81 369 81 414 81 c 0,24,25
 461 81 461 81 502 106.5 c 128,-1,26
 543 132 543 132 574.5 189 c 128,-1,27
 606 246 606 246 626.5 336.5 c 128,-1,28
 647 427 647 427 653 558 c 1,29,30
 605 541 605 541 554 531 c 128,-1,31
 503 521 503 521 446 521 c 0,32,33
 359 521 359 521 287.5 547.5 c 128,-1,34
 216 574 216 574 164.5 625.5 c 128,-1,35
 113 677 113 677 84.5 754 c 128,-1,36
 56 831 56 831 56 932 c 0,0,1
350 928 m 0,37,38
 350 850 350 850 361.5 795.5 c 128,-1,39
 373 741 373 741 393.5 707 c 128,-1,40
 414 673 414 673 442.5 657.5 c 128,-1,41
 471 642 471 642 506 642 c 0,42,43
 582 642 582 642 656 660 c 1,44,-1
 656 674 l 2,45,46
 656 963 656 963 621.5 1109 c 128,-1,47
 587 1255 587 1255 500 1255 c 0,48,49
 422 1255 422 1255 386 1171 c 128,-1,50
 350 1087 350 1087 350 928 c 0,37,38
EndSplineSet
EndChar

StartChar: colon
Encoding: 58 58 29
Width: 682
Flags: W
LayerCount: 2
Fore
SplineSet
333 -29 m 256,0,1
 298 -29 298 -29 267.5 -16 c 128,-1,2
 237 -3 237 -3 215 19.5 c 128,-1,3
 193 42 193 42 180.5 72 c 128,-1,4
 168 102 168 102 168 137 c 0,5,6
 168 171 168 171 180.5 201.5 c 128,-1,7
 193 232 193 232 215 254.5 c 128,-1,8
 237 277 237 277 267.5 290 c 128,-1,9
 298 303 298 303 333 303 c 256,10,11
 368 303 368 303 398 290 c 128,-1,12
 428 277 428 277 450.5 254.5 c 128,-1,13
 473 232 473 232 486 201.5 c 128,-1,14
 499 171 499 171 499 137 c 0,15,16
 499 102 499 102 486 72 c 128,-1,17
 473 42 473 42 450.5 19.5 c 128,-1,18
 428 -3 428 -3 398 -16 c 128,-1,19
 368 -29 368 -29 333 -29 c 256,0,1
333 628 m 256,20,21
 298 628 298 628 267.5 641 c 128,-1,22
 237 654 237 654 215 676.5 c 128,-1,23
 193 699 193 699 180.5 729 c 128,-1,24
 168 759 168 759 168 794 c 256,25,26
 168 829 168 829 180.5 859.5 c 128,-1,27
 193 890 193 890 215 912.5 c 128,-1,28
 237 935 237 935 267.5 947.5 c 128,-1,29
 298 960 298 960 333 960 c 256,30,31
 368 960 368 960 398 947.5 c 128,-1,32
 428 935 428 935 450.5 912.5 c 128,-1,33
 473 890 473 890 486 859.5 c 128,-1,34
 499 829 499 829 499 794 c 256,35,36
 499 759 499 759 486 729 c 128,-1,37
 473 699 473 699 450.5 676.5 c 128,-1,38
 428 654 428 654 398 641 c 128,-1,39
 368 628 368 628 333 628 c 256,20,21
EndSplineSet
EndChar

StartChar: uni037E
Encoding: 894 894 30
AltUni2: 00003b.ffffffff.0 00003b.ffffffff.0 00003b.ffffffff.0
Width: 682
Flags: W
LayerCount: 2
Fore
SplineSet
335 628 m 256,0,1
 300 628 300 628 269.5 641 c 128,-1,2
 239 654 239 654 217 676.5 c 128,-1,3
 195 699 195 699 182.5 729 c 128,-1,4
 170 759 170 759 170 794 c 256,5,6
 170 829 170 829 182.5 859.5 c 128,-1,7
 195 890 195 890 217 912.5 c 128,-1,8
 239 935 239 935 269.5 947.5 c 128,-1,9
 300 960 300 960 335 960 c 256,10,11
 370 960 370 960 400 947.5 c 128,-1,12
 430 935 430 935 452.5 912.5 c 128,-1,13
 475 890 475 890 488 859.5 c 128,-1,14
 501 829 501 829 501 794 c 256,15,16
 501 759 501 759 488 729 c 128,-1,17
 475 699 475 699 452.5 676.5 c 128,-1,18
 430 654 430 654 400 641 c 128,-1,19
 370 628 370 628 335 628 c 256,0,1
514 106 m 0,20,21
 514 35 514 35 491.5 -28.5 c 128,-1,22
 469 -92 469 -92 420 -146.5 c 128,-1,23
 371 -201 371 -201 293.5 -244.5 c 128,-1,24
 216 -288 216 -288 106 -317 c 1,25,-1
 106 -225 l 1,26,27
 163 -208 163 -208 202 -183.5 c 128,-1,28
 241 -159 241 -159 264.5 -132.5 c 128,-1,29
 288 -106 288 -106 298.5 -80 c 128,-1,30
 309 -54 309 -54 309 -35 c 0,31,32
 309 -15 309 -15 297.5 -1.5 c 128,-1,33
 286 12 286 12 269 22.5 c 128,-1,34
 252 33 252 33 232 43.5 c 128,-1,35
 212 54 212 54 195 70 c 128,-1,36
 178 86 178 86 166.5 109 c 128,-1,37
 155 132 155 132 155 168 c 0,38,39
 155 200 155 200 167.5 225 c 128,-1,40
 180 250 180 250 201.5 267 c 128,-1,41
 223 284 223 284 252.5 292.5 c 128,-1,42
 282 301 282 301 317 301 c 0,43,44
 354 301 354 301 389 288.5 c 128,-1,45
 424 276 424 276 452 251 c 128,-1,46
 480 226 480 226 497 190 c 128,-1,47
 514 154 514 154 514 106 c 0,20,21
EndSplineSet
EndChar

StartChar: less
Encoding: 60 60 31
Width: 1167
Flags: W
LayerCount: 2
Fore
SplineSet
102 635 m 1,0,-1
 102 725 l 1,1,-1
 1054 1193 l 1,2,-1
 1054 1050 l 1,3,-1
 287 680 l 1,4,-1
 1054 309 l 1,5,-1
 1054 166 l 1,6,-1
 102 635 l 1,0,-1
EndSplineSet
EndChar

StartChar: equal
Encoding: 61 61 32
Width: 1167
Flags: W
LayerCount: 2
Fore
SplineSet
1054 547 m 1,0,-1
 1054 403 l 1,1,-1
 102 403 l 1,2,-1
 102 547 l 1,3,-1
 1054 547 l 1,0,-1
1054 956 m 1,4,-1
 1054 813 l 1,5,-1
 102 813 l 1,6,-1
 102 956 l 1,7,-1
 1054 956 l 1,4,-1
EndSplineSet
EndChar

StartChar: greater
Encoding: 62 62 33
Width: 1167
Flags: W
LayerCount: 2
Fore
SplineSet
104 166 m 1,0,-1
 104 309 l 1,1,-1
 872 680 l 1,2,-1
 104 1050 l 1,3,-1
 104 1193 l 1,4,-1
 1056 725 l 1,5,-1
 1056 635 l 1,6,-1
 104 166 l 1,0,-1
EndSplineSet
EndChar

StartChar: question
Encoding: 63 63 34
Width: 1024
Flags: W
LayerCount: 2
Fore
SplineSet
445 -29 m 256,0,1
 410 -29 410 -29 379.5 -16 c 128,-1,2
 349 -3 349 -3 327 19.5 c 128,-1,3
 305 42 305 42 292.5 72 c 128,-1,4
 280 102 280 102 280 137 c 0,5,6
 280 171 280 171 292.5 201.5 c 128,-1,7
 305 232 305 232 327 254.5 c 128,-1,8
 349 277 349 277 379.5 290 c 128,-1,9
 410 303 410 303 445 303 c 256,10,11
 480 303 480 303 510 290 c 128,-1,12
 540 277 540 277 562.5 254.5 c 128,-1,13
 585 232 585 232 598 201.5 c 128,-1,14
 611 171 611 171 611 137 c 0,15,16
 611 102 611 102 598 72 c 128,-1,17
 585 42 585 42 562.5 19.5 c 128,-1,18
 540 -3 540 -3 510 -16 c 128,-1,19
 480 -29 480 -29 445 -29 c 256,0,1
491 390 m 1,20,-1
 388 390 l 1,21,-1
 331 703 l 1,22,-1
 426 728 l 2,23,24
 464 738 464 738 498 754.5 c 128,-1,25
 532 771 532 771 557.5 801 c 128,-1,26
 583 831 583 831 598 877.5 c 128,-1,27
 613 924 613 924 613 994 c 256,28,29
 613 1064 613 1064 601 1113.5 c 128,-1,30
 589 1163 589 1163 563.5 1194.5 c 128,-1,31
 538 1226 538 1226 499 1240 c 128,-1,32
 460 1254 460 1254 405 1254 c 0,33,34
 357 1254 357 1254 320.5 1242 c 128,-1,35
 284 1230 284 1230 256 1212 c 1,36,-1
 213 1018 l 1,37,-1
 124 1018 l 1,38,-1
 124 1313 l 1,39,40
 201 1333 201 1333 278.5 1344.5 c 128,-1,41
 356 1356 356 1356 448 1356 c 0,42,43
 673 1356 673 1356 787.5 1267.5 c 128,-1,44
 902 1179 902 1179 902 1001 c 0,45,46
 902 934 902 934 884 873 c 128,-1,47
 866 812 866 812 829 762 c 128,-1,48
 792 712 792 712 736 674.5 c 128,-1,49
 680 637 680 637 605 616 c 2,50,-1
 518 592 l 1,51,-1
 491 390 l 1,20,-1
EndSplineSet
EndChar

StartChar: at
Encoding: 64 64 35
Width: 1905
Flags: W
LayerCount: 2
Fore
SplineSet
1798 752 m 0,0,1
 1798 649 1798 649 1769.5 555 c 128,-1,2
 1741 461 1741 461 1691.5 380.5 c 128,-1,3
 1642 300 1642 300 1574 234 c 128,-1,4
 1506 168 1506 168 1427 121.5 c 128,-1,5
 1348 75 1348 75 1260.5 50 c 128,-1,6
 1173 25 1173 25 1085 25 c 0,7,8
 1020 25 1020 25 989.5 59 c 128,-1,9
 959 93 959 93 957 150 c 1,10,11
 932 129 932 129 904.5 106.5 c 128,-1,12
 877 84 877 84 844 66 c 128,-1,13
 811 48 811 48 772.5 36.5 c 128,-1,14
 734 25 734 25 686 25 c 0,15,16
 643 25 643 25 608.5 43 c 128,-1,17
 574 61 574 61 550 94.5 c 128,-1,18
 526 128 526 128 513 175.5 c 128,-1,19
 500 223 500 223 500 283 c 0,20,21
 500 353 500 353 516.5 426 c 128,-1,22
 533 499 533 499 566 567.5 c 128,-1,23
 599 636 599 636 648.5 697 c 128,-1,24
 698 758 698 758 764 805 c 0,25,26
 815 842 815 842 863.5 865 c 128,-1,27
 912 888 912 888 962.5 901 c 128,-1,28
 1013 914 1013 914 1067.5 919 c 128,-1,29
 1122 924 1122 924 1184 924 c 0,30,31
 1232 924 1232 924 1282 920.5 c 128,-1,32
 1332 917 1332 917 1367 913 c 1,33,-1
 1246 372 l 2,34,35
 1241 352 1241 352 1237 330 c 128,-1,36
 1233 308 1233 308 1230 286.5 c 128,-1,37
 1227 265 1227 265 1225 246 c 128,-1,38
 1223 227 1223 227 1223 215 c 0,39,40
 1223 192 1223 192 1231.5 175.5 c 128,-1,41
 1240 159 1240 159 1273 159 c 0,42,43
 1326 159 1326 159 1372 183.5 c 128,-1,44
 1418 208 1418 208 1456 250.5 c 128,-1,45
 1494 293 1494 293 1523.5 350 c 128,-1,46
 1553 407 1553 407 1573 473 c 128,-1,47
 1593 539 1593 539 1603.5 610 c 128,-1,48
 1614 681 1614 681 1614 751 c 0,49,50
 1614 875 1614 875 1576.5 970.5 c 128,-1,51
 1539 1066 1539 1066 1469 1131 c 128,-1,52
 1399 1196 1399 1196 1300.5 1229.5 c 128,-1,53
 1202 1263 1202 1263 1079 1263 c 256,54,55
 956 1263 956 1263 850 1230.5 c 128,-1,56
 744 1198 744 1198 656 1138.5 c 128,-1,57
 568 1079 568 1079 500.5 996.5 c 128,-1,58
 433 914 433 914 386 814 c 128,-1,59
 339 714 339 714 315 599.5 c 128,-1,60
 291 485 291 485 291 363 c 0,61,62
 291 235 291 235 327.5 118 c 128,-1,63
 364 1 364 1 439 -88.5 c 128,-1,64
 514 -178 514 -178 627.5 -231 c 128,-1,65
 741 -284 741 -284 895 -284 c 0,66,67
 986 -284 986 -284 1063.5 -270 c 128,-1,68
 1141 -256 1141 -256 1207 -232 c 128,-1,69
 1273 -208 1273 -208 1329.5 -176 c 128,-1,70
 1386 -144 1386 -144 1436 -109 c 1,71,-1
 1480 -173 l 1,72,73
 1424 -218 1424 -218 1361 -257 c 128,-1,74
 1298 -296 1298 -296 1223 -325.5 c 128,-1,75
 1148 -355 1148 -355 1059 -372 c 128,-1,76
 970 -389 970 -389 864 -389 c 0,77,78
 680 -389 680 -389 538.5 -330.5 c 128,-1,79
 397 -272 397 -272 301 -170 c 128,-1,80
 205 -68 205 -68 156 69 c 128,-1,81
 107 206 107 206 107 362 c 0,82,83
 107 505 107 505 140 635 c 128,-1,84
 173 765 173 765 234.5 876 c 128,-1,85
 296 987 296 987 383 1077.5 c 128,-1,86
 470 1168 470 1168 578.5 1231.5 c 128,-1,87
 687 1295 687 1295 814 1329.5 c 128,-1,88
 941 1364 941 1364 1083 1364 c 0,89,90
 1261 1364 1261 1364 1395 1320.5 c 128,-1,91
 1529 1277 1529 1277 1618.5 1197 c 128,-1,92
 1708 1117 1708 1117 1753 1004 c 128,-1,93
 1798 891 1798 891 1798 752 c 0,0,1
740 316 m 0,94,95
 740 244 740 244 761.5 206.5 c 128,-1,96
 783 169 783 169 811 169 c 0,97,98
 831 169 831 169 853 175.5 c 128,-1,99
 875 182 875 182 896 192 c 128,-1,100
 917 202 917 202 935 214 c 128,-1,101
 953 226 953 226 965 237 c 1,102,-1
 1085 798 l 1,103,104
 1078 800 1078 800 1058.5 801.5 c 128,-1,105
 1039 803 1039 803 1024 803 c 0,106,107
 975 803 975 803 931.5 789.5 c 128,-1,108
 888 776 888 776 852 733 c 0,109,110
 832 709 832 709 812 666 c 128,-1,111
 792 623 792 623 776 567.5 c 128,-1,112
 760 512 760 512 750 447.5 c 128,-1,113
 740 383 740 383 740 316 c 0,94,95
EndSplineSet
EndChar

StartChar: A
Encoding: 65 65 36
Width: 1479
Flags: W
LayerCount: 2
Fore
SplineSet
428 73 m 1,0,-1
 428 0 l 1,1,-1
 20 0 l 1,2,-1
 20 73 l 1,3,-1
 120 100 l 1,4,-1
 597 1352 l 1,5,-1
 887 1352 l 1,6,-1
 1362 100 l 1,7,-1
 1464 73 l 1,8,-1
 1464 0 l 1,9,-1
 867 0 l 1,10,-1
 867 73 l 1,11,-1
 1022 100 l 1,12,-1
 894 447 l 1,13,-1
 379 447 l 1,14,-1
 256 100 l 1,15,-1
 428 73 l 1,0,-1
641 1150 m 1,16,-1
 420 557 l 1,17,-1
 856 557 l 1,18,-1
 641 1150 l 1,16,-1
EndSplineSet
EndChar

StartChar: B
Encoding: 66 66 37
Width: 1366
Flags: W
LayerCount: 2
Fore
SplineSet
878 1010 m 0,0,1
 878 1067 878 1067 866.5 1108.5 c 128,-1,2
 855 1150 855 1150 829 1177.5 c 128,-1,3
 803 1205 803 1205 761.5 1218 c 128,-1,4
 720 1231 720 1231 661 1231 c 2,5,-1
 522 1231 l 1,6,-1
 522 764 l 1,7,-1
 669 764 l 2,8,9
 730 764 730 764 770.5 781 c 128,-1,10
 811 798 811 798 835 829.5 c 128,-1,11
 859 861 859 861 868.5 906.5 c 128,-1,12
 878 952 878 952 878 1010 c 0,0,1
979 391 m 0,13,14
 979 524 979 524 912.5 589 c 128,-1,15
 846 654 846 654 695 654 c 2,16,-1
 522 654 l 1,17,-1
 522 110 l 1,18,19
 570 108 570 108 614 107 c 1,20,21
 651 105 651 105 689 104.5 c 128,-1,22
 727 104 727 104 749 104 c 0,23,24
 812 104 812 104 856 124 c 128,-1,25
 900 144 900 144 927 181 c 128,-1,26
 954 218 954 218 966.5 271 c 128,-1,27
 979 324 979 324 979 391 c 0,13,14
34 0 m 1,28,-1
 34 73 l 1,29,-1
 207 100 l 1,30,-1
 207 1242 l 1,31,-1
 34 1268 l 1,32,-1
 34 1341 l 1,33,-1
 685 1341 l 2,34,35
 834 1341 834 1341 934 1320 c 128,-1,36
 1034 1299 1034 1299 1094.5 1260 c 128,-1,37
 1155 1221 1155 1221 1180.5 1165 c 128,-1,38
 1206 1109 1206 1109 1206 1038 c 0,39,40
 1206 971 1206 971 1183.5 917 c 128,-1,41
 1161 863 1161 863 1123 822.5 c 128,-1,42
 1085 782 1085 782 1035 755.5 c 128,-1,43
 985 729 985 729 930 717 c 1,44,45
 1029 707 1029 707 1100.5 680 c 128,-1,46
 1172 653 1172 653 1218.5 611 c 128,-1,47
 1265 569 1265 569 1287 513.5 c 128,-1,48
 1309 458 1309 458 1309 391 c 0,49,50
 1309 304 1309 304 1278 231 c 128,-1,51
 1247 158 1247 158 1179.5 105.5 c 128,-1,52
 1112 53 1112 53 1006.5 23.5 c 128,-1,53
 901 -6 901 -6 752 -6 c 0,54,55
 632 -6 632 -6 514 -3 c 128,-1,56
 396 0 396 0 296 0 c 2,57,-1
 34 0 l 1,28,-1
EndSplineSet
EndChar

StartChar: C
Encoding: 67 67 38
Width: 1479
Flags: W
LayerCount: 2
Fore
SplineSet
815 -20 m 0,0,1
 646 -20 646 -20 513.5 26 c 128,-1,2
 381 72 381 72 289 159 c 128,-1,3
 197 246 197 246 148.5 371.5 c 128,-1,4
 100 497 100 497 100 655 c 0,5,6
 100 835 100 835 148.5 967 c 128,-1,7
 197 1099 197 1099 288.5 1185.5 c 128,-1,8
 380 1272 380 1272 512.5 1314 c 128,-1,9
 645 1356 645 1356 814 1356 c 0,10,11
 957 1356 957 1356 1078.5 1335.5 c 128,-1,12
 1200 1315 1200 1315 1297 1289 c 1,13,-1
 1303 967 l 1,14,-1
 1213 967 l 1,15,-1
 1185 1161 l 1,16,17
 1122 1204 1122 1204 1043 1227.5 c 128,-1,18
 964 1251 964 1251 878 1251 c 0,19,20
 773 1251 773 1251 690 1220.5 c 128,-1,21
 607 1190 607 1190 549.5 1120 c 128,-1,22
 492 1050 492 1050 462 937 c 128,-1,23
 432 824 432 824 432 658 c 0,24,25
 432 512 432 512 462 404 c 128,-1,26
 492 296 492 296 548 225 c 128,-1,27
 604 154 604 154 685.5 118.5 c 128,-1,28
 767 83 767 83 870 83 c 0,29,30
 983 83 983 83 1067.5 113 c 128,-1,31
 1152 143 1152 143 1200 184 c 1,32,-1
 1232 404 l 1,33,-1
 1323 404 l 1,34,-1
 1317 64 l 1,35,36
 1274 47 1274 47 1215.5 32 c 128,-1,37
 1157 17 1157 17 1090.5 5.5 c 128,-1,38
 1024 -6 1024 -6 953 -13 c 128,-1,39
 882 -20 882 -20 815 -20 c 0,0,1
EndSplineSet
EndChar

StartChar: D
Encoding: 68 68 39
Width: 1479
Flags: W
LayerCount: 2
Fore
SplineSet
1047 670 m 0,0,1
 1047 827 1047 827 1017.5 934.5 c 128,-1,2
 988 1042 988 1042 931 1108 c 128,-1,3
 874 1174 874 1174 790 1202.5 c 128,-1,4
 706 1231 706 1231 596 1231 c 2,5,-1
 522 1231 l 1,6,-1
 522 114 l 1,7,8
 546 112 546 112 565.5 111 c 128,-1,9
 585 110 585 110 604.5 108.5 c 128,-1,10
 624 107 624 107 645.5 106.5 c 128,-1,11
 667 106 667 106 696 106 c 0,12,13
 796 106 796 106 863 138.5 c 128,-1,14
 930 171 930 171 971 240 c 128,-1,15
 1012 309 1012 309 1029.5 415.5 c 128,-1,16
 1047 522 1047 522 1047 670 c 0,0,1
673 1341 m 2,17,18
 835 1341 835 1341 965.5 1306.5 c 128,-1,19
 1096 1272 1096 1272 1188 1194 c 128,-1,20
 1280 1116 1280 1116 1329.5 989.5 c 128,-1,21
 1379 863 1379 863 1379 678 c 0,22,23
 1379 514 1379 514 1341 387 c 128,-1,24
 1303 260 1303 260 1222 173 c 128,-1,25
 1141 86 1141 86 1015.5 41 c 128,-1,26
 890 -4 890 -4 715 -4 c 0,27,28
 658 -4 658 -4 595 -3.5 c 128,-1,29
 532 -3 532 -3 472 -2 c 128,-1,30
 412 -1 412 -1 358.5 -0.5 c 128,-1,31
 305 0 305 0 266 0 c 2,32,-1
 36 0 l 1,33,-1
 36 73 l 1,34,-1
 208 100 l 1,35,-1
 208 1242 l 1,36,-1
 36 1268 l 1,37,-1
 36 1341 l 1,38,-1
 673 1341 l 2,17,18
EndSplineSet
EndChar

StartChar: E
Encoding: 69 69 40
Width: 1366
Flags: W
LayerCount: 2
Fore
SplineSet
35 73 m 1,0,-1
 207 100 l 1,1,-1
 207 1242 l 1,2,-1
 35 1268 l 1,3,-1
 35 1341 l 1,4,-1
 1177 1341 l 1,5,-1
 1177 1000 l 1,6,-1
 1086 1000 l 1,7,-1
 1054 1217 l 1,8,9
 1022 1221 1022 1221 976.5 1224 c 128,-1,10
 931 1227 931 1227 884 1228.5 c 128,-1,11
 837 1230 837 1230 795 1230.5 c 128,-1,12
 753 1231 753 1231 730 1231 c 2,13,-1
 522 1231 l 1,14,-1
 522 739 l 1,15,-1
 873 739 l 1,16,-1
 904 887 l 1,17,-1
 993 887 l 1,18,-1
 993 475 l 1,19,-1
 904 475 l 1,20,-1
 873 627 l 1,21,-1
 522 627 l 1,22,-1
 522 110 l 1,23,-1
 775 110 l 2,24,25
 837 110 837 110 892 111.5 c 128,-1,26
 947 113 947 113 991 115 c 128,-1,27
 1035 117 1035 117 1066.5 120 c 128,-1,28
 1098 123 1098 123 1113 126 c 1,29,-1
 1170 374 l 1,30,-1
 1261 374 l 1,31,-1
 1242 0 l 1,32,-1
 35 0 l 1,33,-1
 35 73 l 1,0,-1
EndSplineSet
EndChar

StartChar: F
Encoding: 70 70 41
Width: 1251
Flags: W
LayerCount: 2
Fore
SplineSet
522 572 m 1,0,-1
 522 100 l 1,1,-1
 745 73 l 1,2,-1
 745 0 l 1,3,-1
 48 0 l 1,4,-1
 48 73 l 1,5,-1
 207 100 l 1,6,-1
 207 1242 l 1,7,-1
 35 1268 l 1,8,-1
 35 1341 l 1,9,-1
 1153 1341 l 1,10,-1
 1153 980 l 1,11,-1
 1059 980 l 1,12,-1
 1027 1217 l 1,13,14
 1006 1220 1006 1220 973.5 1222 c 128,-1,15
 941 1224 941 1224 903.5 1226 c 128,-1,16
 866 1228 866 1228 826.5 1228.5 c 128,-1,17
 787 1229 787 1229 751.5 1230 c 128,-1,18
 716 1231 716 1231 687 1231 c 128,-1,19
 658 1231 658 1231 643 1231 c 2,20,-1
 522 1231 l 1,21,-1
 522 682 l 1,22,-1
 849 682 l 1,23,-1
 880 852 l 1,24,-1
 969 852 l 1,25,-1
 969 400 l 1,26,-1
 880 400 l 1,27,-1
 849 572 l 1,28,-1
 522 572 l 1,0,-1
EndSplineSet
EndChar

StartChar: G
Encoding: 71 71 42
Width: 1593
Flags: W
LayerCount: 2
Fore
SplineSet
1406 70 m 1,0,1
 1348 51 1348 51 1276.5 34.5 c 128,-1,2
 1205 18 1205 18 1128 6 c 128,-1,3
 1051 -6 1051 -6 973 -13 c 128,-1,4
 895 -20 895 -20 823 -20 c 0,5,6
 664 -20 664 -20 531 23.5 c 128,-1,7
 398 67 398 67 302.5 152.5 c 128,-1,8
 207 238 207 238 153.5 364 c 128,-1,9
 100 490 100 490 100 655 c 0,10,11
 100 831 100 831 152 962.5 c 128,-1,12
 204 1094 204 1094 300.5 1181.5 c 128,-1,13
 397 1269 397 1269 534.5 1312.5 c 128,-1,14
 672 1356 672 1356 842 1356 c 0,15,16
 929 1356 929 1356 1000.5 1349 c 128,-1,17
 1072 1342 1072 1342 1134 1330 c 128,-1,18
 1196 1318 1196 1318 1251 1302.5 c 128,-1,19
 1306 1287 1306 1287 1362 1271 c 1,20,-1
 1362 963 l 1,21,-1
 1272 963 l 1,22,-1
 1248 1137 l 1,23,24
 1213 1161 1213 1161 1171 1182 c 128,-1,25
 1129 1203 1129 1203 1081.5 1218.5 c 128,-1,26
 1034 1234 1034 1234 982.5 1242.5 c 128,-1,27
 931 1251 931 1251 878 1251 c 0,28,29
 776 1251 776 1251 694 1222.5 c 128,-1,30
 612 1194 612 1194 553.5 1125.5 c 128,-1,31
 495 1057 495 1057 463.5 942.5 c 128,-1,32
 432 828 432 828 432 657 c 0,33,34
 432 541 432 541 450 454 c 128,-1,35
 468 367 468 367 499 303 c 128,-1,36
 530 239 530 239 572.5 196.5 c 128,-1,37
 615 154 615 154 663.5 129 c 128,-1,38
 712 104 712 104 765 93.5 c 128,-1,39
 818 83 818 83 870 83 c 0,40,41
 927 83 927 83 985 92.5 c 128,-1,42
 1043 102 1043 102 1091 118 c 1,43,-1
 1091 506 l 1,44,-1
 919 532 l 1,45,-1
 919 606 l 1,46,-1
 1537 606 l 1,47,-1
 1537 532 l 1,48,-1
 1406 506 l 1,49,-1
 1406 70 l 1,0,1
EndSplineSet
EndChar

StartChar: H
Encoding: 72 72 43
Width: 1593
Flags: W
LayerCount: 2
Fore
SplineSet
35 0 m 1,0,-1
 35 74 l 1,1,-1
 207 100 l 1,2,-1
 207 1241 l 1,3,-1
 35 1268 l 1,4,-1
 35 1341 l 1,5,-1
 694 1341 l 1,6,-1
 694 1268 l 1,7,-1
 522 1241 l 1,8,-1
 522 745 l 1,9,-1
 1070 745 l 1,10,-1
 1070 1241 l 1,11,-1
 898 1268 l 1,12,-1
 898 1341 l 1,13,-1
 1559 1341 l 1,14,-1
 1559 1268 l 1,15,-1
 1386 1241 l 1,16,-1
 1386 100 l 1,17,-1
 1559 74 l 1,18,-1
 1559 0 l 1,19,-1
 898 0 l 1,20,-1
 898 74 l 1,21,-1
 1070 100 l 1,22,-1
 1070 635 l 1,23,-1
 522 635 l 1,24,-1
 522 100 l 1,25,-1
 694 74 l 1,26,-1
 694 0 l 1,27,-1
 35 0 l 1,0,-1
EndSplineSet
EndChar

StartChar: I
Encoding: 73 73 44
Width: 797
Flags: W
LayerCount: 2
Fore
SplineSet
556 100 m 1,0,-1
 728 74 l 1,1,-1
 728 0 l 1,2,-1
 69 0 l 1,3,-1
 69 74 l 1,4,-1
 241 100 l 1,5,-1
 241 1241 l 1,6,-1
 69 1268 l 1,7,-1
 69 1341 l 1,8,-1
 728 1341 l 1,9,-1
 728 1268 l 1,10,-1
 556 1241 l 1,11,-1
 556 100 l 1,0,-1
EndSplineSet
EndChar

StartChar: J
Encoding: 74 74 45
Width: 1024
Flags: W
LayerCount: 2
Fore
SplineSet
501 1242 m 1,0,-1
 329 1268 l 1,1,-1
 329 1341 l 1,2,-1
 968 1341 l 1,3,-1
 968 1268 l 1,4,-1
 816 1242 l 1,5,-1
 816 432 l 2,6,7
 816 341 816 341 796 272 c 128,-1,8
 776 203 776 203 742 153 c 128,-1,9
 708 103 708 103 663 69.5 c 128,-1,10
 618 36 618 36 566.5 16 c 128,-1,11
 515 -4 515 -4 460.5 -12 c 128,-1,12
 406 -20 406 -20 354 -20 c 0,13,14
 320 -20 320 -20 283.5 -18 c 128,-1,15
 247 -16 247 -16 212 -12 c 128,-1,16
 177 -8 177 -8 145.5 -2.5 c 128,-1,17
 114 3 114 3 91 10 c 1,18,-1
 91 314 l 1,19,-1
 180 314 l 1,20,-1
 210 135 l 1,21,22
 229 112 229 112 264 99 c 128,-1,23
 299 86 299 86 341 86 c 0,24,25
 410 86 410 86 455.5 134 c 128,-1,26
 501 182 501 182 501 276 c 2,27,-1
 501 1242 l 1,0,-1
EndSplineSet
EndChar

StartChar: K
Encoding: 75 75 46
Width: 1593
Flags: W
LayerCount: 2
Fore
SplineSet
1469 1341 m 1,0,-1
 1469 1268 l 1,1,-1
 1305 1242 l 1,2,-1
 862 851 l 1,3,-1
 1452 100 l 1,4,-1
 1577 73 l 1,5,-1
 1577 0 l 1,6,-1
 1139 0 l 1,7,-1
 638 646 l 1,8,-1
 522 546 l 1,9,-1
 522 100 l 1,10,-1
 715 73 l 1,11,-1
 715 0 l 1,12,-1
 35 0 l 1,13,-1
 35 73 l 1,14,-1
 207 100 l 1,15,-1
 207 1242 l 1,16,-1
 35 1268 l 1,17,-1
 35 1341 l 1,18,-1
 695 1341 l 1,19,-1
 695 1268 l 1,20,-1
 522 1242 l 1,21,-1
 522 696 l 1,22,-1
 1133 1242 l 1,23,-1
 1010 1268 l 1,24,-1
 1010 1341 l 1,25,-1
 1469 1341 l 1,0,-1
EndSplineSet
EndChar

StartChar: L
Encoding: 76 76 47
Width: 1366
Flags: W
LayerCount: 2
Fore
SplineSet
729 1268 m 1,0,-1
 522 1242 l 1,1,-1
 522 106 l 1,2,-1
 795 106 l 2,3,4
 920 106 920 106 999 113 c 128,-1,5
 1078 120 1078 120 1108 126 c 1,6,-1
 1190 405 l 1,7,-1
 1280 405 l 1,8,-1
 1242 0 l 1,9,-1
 35 0 l 1,10,-1
 35 73 l 1,11,-1
 207 100 l 1,12,-1
 207 1242 l 1,13,-1
 36 1268 l 1,14,-1
 36 1341 l 1,15,-1
 729 1341 l 1,16,-1
 729 1268 l 1,0,-1
EndSplineSet
EndChar

StartChar: M
Encoding: 77 77 48
Width: 1933
Flags: W
LayerCount: 2
Fore
SplineSet
882 0 m 1,0,-1
 827 0 l 1,1,-1
 332 1133 l 1,2,-1
 332 100 l 1,3,-1
 512 73 l 1,4,-1
 512 0 l 1,5,-1
 35 0 l 1,6,-1
 35 73 l 1,7,-1
 207 100 l 1,8,-1
 207 1242 l 1,9,-1
 35 1268 l 1,10,-1
 35 1341 l 1,11,-1
 562 1341 l 1,12,-1
 945 459 l 1,13,-1
 1336 1341 l 1,14,-1
 1874 1341 l 1,15,-1
 1874 1268 l 1,16,-1
 1702 1242 l 1,17,-1
 1702 100 l 1,18,-1
 1874 73 l 1,19,-1
 1874 0 l 1,20,-1
 1207 0 l 1,21,-1
 1207 73 l 1,22,-1
 1387 100 l 1,23,-1
 1387 1133 l 1,24,-1
 882 0 l 1,0,-1
EndSplineSet
EndChar

StartChar: N
Encoding: 78 78 49
Width: 1479
Flags: W
LayerCount: 2
Fore
SplineSet
1155 1242 m 1,0,-1
 975 1268 l 1,1,-1
 975 1341 l 1,2,-1
 1452 1341 l 1,3,-1
 1452 1268 l 1,4,-1
 1280 1242 l 1,5,-1
 1280 0 l 1,6,-1
 1163 0 l 1,7,-1
 336 1078 l 1,8,-1
 336 100 l 1,9,-1
 516 73 l 1,10,-1
 516 0 l 1,11,-1
 39 0 l 1,12,-1
 39 73 l 1,13,-1
 211 100 l 1,14,-1
 211 1242 l 1,15,-1
 39 1268 l 1,16,-1
 39 1341 l 1,17,-1
 498 1341 l 1,18,-1
 1155 484 l 1,19,-1
 1155 1242 l 1,0,-1
EndSplineSet
EndChar

StartChar: O
Encoding: 79 79 50
Width: 1593
Flags: W
LayerCount: 2
Fore
SplineSet
432 672 m 0,0,1
 432 532 432 532 449 422 c 128,-1,2
 466 312 466 312 508 236 c 128,-1,3
 550 160 550 160 620.5 120 c 128,-1,4
 691 80 691 80 797 80 c 256,5,6
 903 80 903 80 973 120 c 128,-1,7
 1043 160 1043 160 1085 236 c 128,-1,8
 1127 312 1127 312 1144 422 c 128,-1,9
 1161 532 1161 532 1161 672 c 0,10,11
 1161 811 1161 811 1144 920 c 128,-1,12
 1127 1029 1127 1029 1085 1103 c 128,-1,13
 1043 1177 1043 1177 973 1216 c 128,-1,14
 903 1255 903 1255 797 1255 c 256,15,16
 691 1255 691 1255 620.5 1216 c 128,-1,17
 550 1177 550 1177 508 1103 c 128,-1,18
 466 1029 466 1029 449 920 c 128,-1,19
 432 811 432 811 432 672 c 0,0,1
100 672 m 256,20,21
 100 850 100 850 146 979 c 128,-1,22
 192 1108 192 1108 281 1192 c 128,-1,23
 370 1276 370 1276 499.5 1316 c 128,-1,24
 629 1356 629 1356 797 1356 c 0,25,26
 959 1356 959 1356 1088 1316 c 128,-1,27
 1217 1276 1217 1276 1307 1192 c 128,-1,28
 1397 1108 1397 1108 1445 979 c 128,-1,29
 1493 850 1493 850 1493 672 c 256,30,31
 1493 494 1493 494 1445 363.5 c 128,-1,32
 1397 233 1397 233 1307 148 c 128,-1,33
 1217 63 1217 63 1088 21.5 c 128,-1,34
 959 -20 959 -20 797 -20 c 256,35,36
 635 -20 635 -20 506 21.5 c 128,-1,37
 377 63 377 63 286.5 148 c 128,-1,38
 196 233 196 233 148 363.5 c 128,-1,39
 100 494 100 494 100 672 c 256,20,21
EndSplineSet
EndChar

StartChar: P
Encoding: 80 80 51
Width: 1251
Flags: W
LayerCount: 2
Fore
SplineSet
871 944 m 0,0,1
 871 1024 871 1024 857 1079 c 128,-1,2
 843 1134 843 1134 811.5 1167.5 c 128,-1,3
 780 1201 780 1201 728.5 1216 c 128,-1,4
 677 1231 677 1231 602 1231 c 2,5,-1
 523 1231 l 1,6,-1
 523 636 l 1,7,-1
 606 636 l 2,8,9
 682 636 682 636 732.5 655.5 c 128,-1,10
 783 675 783 675 814 713.5 c 128,-1,11
 845 752 845 752 858 809.5 c 128,-1,12
 871 867 871 867 871 944 c 0,0,1
523 526 m 1,13,-1
 523 100 l 1,14,-1
 746 73 l 1,15,-1
 746 0 l 1,16,-1
 48 0 l 1,17,-1
 48 73 l 1,18,-1
 207 100 l 1,19,-1
 207 1242 l 1,20,-1
 35 1268 l 1,21,-1
 35 1341 l 1,22,-1
 626 1341 l 2,23,24
 794 1341 794 1341 903.5 1310.5 c 128,-1,25
 1013 1280 1013 1280 1077.5 1226.5 c 128,-1,26
 1142 1173 1142 1173 1167.5 1101 c 128,-1,27
 1193 1029 1193 1029 1193 946 c 0,28,29
 1193 864 1193 864 1171.5 788 c 128,-1,30
 1150 712 1150 712 1094.5 654 c 128,-1,31
 1039 596 1039 596 944 561 c 128,-1,32
 849 526 849 526 703 526 c 2,33,-1
 523 526 l 1,13,-1
EndSplineSet
EndChar

StartChar: Q
Encoding: 81 81 52
Width: 1593
Flags: W
LayerCount: 2
Fore
SplineSet
100 672 m 0,0,1
 100 850 100 850 146 979 c 128,-1,2
 192 1108 192 1108 281 1192 c 128,-1,3
 370 1276 370 1276 499.5 1316 c 128,-1,4
 629 1356 629 1356 797 1356 c 0,5,6
 959 1356 959 1356 1088 1316 c 128,-1,7
 1217 1276 1217 1276 1307 1192 c 128,-1,8
 1397 1108 1397 1108 1445 979 c 128,-1,9
 1493 850 1493 850 1493 672 c 0,10,11
 1493 544 1493 544 1468 440.5 c 128,-1,12
 1443 337 1443 337 1395 257.5 c 128,-1,13
 1347 178 1347 178 1277.5 122 c 128,-1,14
 1208 66 1208 66 1119 32 c 1,15,-1
 1169 -29 l 2,16,17
 1212 -83 1212 -83 1249 -118.5 c 128,-1,18
 1286 -154 1286 -154 1317 -175 c 128,-1,19
 1348 -196 1348 -196 1373.5 -204.5 c 128,-1,20
 1399 -213 1399 -213 1421 -213 c 0,21,22
 1473 -213 1473 -213 1503 -205 c 1,23,-1
 1503 -291 l 1,24,25
 1492 -296 1492 -296 1466.5 -302.5 c 128,-1,26
 1441 -309 1441 -309 1408 -316 c 128,-1,27
 1375 -323 1375 -323 1338 -327.5 c 128,-1,28
 1301 -332 1301 -332 1267 -332 c 0,29,30
 1186 -332 1186 -332 1126 -315.5 c 128,-1,31
 1066 -299 1066 -299 1016 -266 c 128,-1,32
 966 -233 966 -233 920.5 -183.5 c 128,-1,33
 875 -134 875 -134 823 -68 c 2,34,-1
 785 -20 l 1,35,36
 626 -19 626 -19 499 23.5 c 128,-1,37
 372 66 372 66 283.5 151 c 128,-1,38
 195 236 195 236 147.5 365.5 c 128,-1,39
 100 495 100 495 100 672 c 0,0,1
432 672 m 0,40,41
 432 532 432 532 449 422 c 128,-1,42
 466 312 466 312 508 236 c 128,-1,43
 550 160 550 160 620.5 120 c 128,-1,44
 691 80 691 80 797 80 c 256,45,46
 903 80 903 80 973 120 c 128,-1,47
 1043 160 1043 160 1085 236 c 128,-1,48
 1127 312 1127 312 1144 422 c 128,-1,49
 1161 532 1161 532 1161 672 c 0,50,51
 1161 811 1161 811 1144 920 c 128,-1,52
 1127 1029 1127 1029 1085 1103 c 128,-1,53
 1043 1177 1043 1177 973 1216 c 128,-1,54
 903 1255 903 1255 797 1255 c 256,55,56
 691 1255 691 1255 620.5 1216 c 128,-1,57
 550 1177 550 1177 508 1103 c 128,-1,58
 466 1029 466 1029 449 920 c 128,-1,59
 432 811 432 811 432 672 c 0,40,41
EndSplineSet
EndChar

StartChar: R
Encoding: 82 82 53
Width: 1479
Flags: W
LayerCount: 2
Fore
SplineSet
523 568 m 1,0,-1
 523 100 l 1,1,-1
 695 73 l 1,2,-1
 695 0 l 1,3,-1
 48 0 l 1,4,-1
 48 73 l 1,5,-1
 207 100 l 1,6,-1
 207 1242 l 1,7,-1
 35 1268 l 1,8,-1
 35 1341 l 1,9,-1
 676 1341 l 2,10,11
 844 1341 844 1341 957 1313.5 c 128,-1,12
 1070 1286 1070 1286 1138 1236.5 c 128,-1,13
 1206 1187 1206 1187 1235 1118 c 128,-1,14
 1264 1049 1264 1049 1264 966 c 0,15,16
 1264 903 1264 903 1250 846 c 128,-1,17
 1236 789 1236 789 1204.5 741 c 128,-1,18
 1173 693 1173 693 1121.5 656 c 128,-1,19
 1070 619 1070 619 994 596 c 1,20,-1
 1352 100 l 1,21,-1
 1497 73 l 1,22,-1
 1497 0 l 1,23,-1
 1063 0 l 1,24,-1
 689 568 l 1,25,-1
 523 568 l 1,0,-1
952 964 m 0,26,27
 952 1044 952 1044 936 1095.5 c 128,-1,28
 920 1147 920 1147 885 1177 c 128,-1,29
 850 1207 850 1207 795 1219 c 128,-1,30
 740 1231 740 1231 663 1231 c 2,31,-1
 523 1231 l 1,32,-1
 523 678 l 1,33,-1
 668 678 l 2,34,35
 747 678 747 678 801.5 694 c 128,-1,36
 856 710 856 710 889.5 744.5 c 128,-1,37
 923 779 923 779 937.5 833 c 128,-1,38
 952 887 952 887 952 964 c 0,26,27
EndSplineSet
EndChar

StartChar: S
Encoding: 83 83 54
Width: 1139
Flags: W
LayerCount: 2
Fore
SplineSet
109 411 m 1,0,-1
 197 411 l 1,1,-1
 242 196 l 1,2,3
 263 172 263 172 295 151.5 c 128,-1,4
 327 131 327 131 367 115 c 128,-1,5
 407 99 407 99 452.5 90 c 128,-1,6
 498 81 498 81 545 81 c 0,7,8
 623 81 623 81 678 98.5 c 128,-1,9
 733 116 733 116 767 147 c 128,-1,10
 801 178 801 178 816.5 221.5 c 128,-1,11
 832 265 832 265 832 317 c 0,12,13
 832 377 832 377 801.5 416 c 128,-1,14
 771 455 771 455 720.5 483 c 128,-1,15
 670 511 670 511 606 532.5 c 128,-1,16
 542 554 542 554 474.5 578 c 128,-1,17
 407 602 407 602 343 633 c 128,-1,18
 279 664 279 664 228.5 711.5 c 128,-1,19
 178 759 178 759 147.5 827 c 128,-1,20
 117 895 117 895 117 994 c 0,21,22
 117 1171 117 1171 237.5 1263.5 c 128,-1,23
 358 1356 358 1356 590 1356 c 0,24,25
 639 1356 639 1356 689.5 1352.5 c 128,-1,26
 740 1349 740 1349 788 1343 c 128,-1,27
 836 1337 836 1337 880 1329 c 128,-1,28
 924 1321 924 1321 962 1313 c 1,29,-1
 962 994 l 1,30,-1
 873 994 l 1,31,-1
 828 1178 l 1,32,33
 784 1210 784 1210 727 1231 c 128,-1,34
 670 1252 670 1252 590 1252 c 0,35,36
 522 1252 522 1252 473.5 1238.5 c 128,-1,37
 425 1225 425 1225 394 1201 c 128,-1,38
 363 1177 363 1177 349 1143 c 128,-1,39
 335 1109 335 1109 335 1067 c 0,40,41
 335 1013 335 1013 366 977 c 128,-1,42
 397 941 397 941 447 915 c 128,-1,43
 497 889 497 889 561.5 868 c 128,-1,44
 626 847 626 847 693.5 822.5 c 128,-1,45
 761 798 761 798 825.5 766.5 c 128,-1,46
 890 735 890 735 940 687.5 c 128,-1,47
 990 640 990 640 1021 572 c 128,-1,48
 1052 504 1052 504 1052 407 c 0,49,50
 1052 309 1052 309 1024 230 c 128,-1,51
 996 151 996 151 935 95.5 c 128,-1,52
 874 40 874 40 779 10 c 128,-1,53
 684 -20 684 -20 549 -20 c 0,54,55
 484 -20 484 -20 420 -14 c 128,-1,56
 356 -8 356 -8 298.5 2 c 128,-1,57
 241 12 241 12 192 25 c 128,-1,58
 143 38 143 38 109 51 c 1,59,-1
 109 411 l 1,0,-1
EndSplineSet
EndChar

StartChar: T
Encoding: 84 84 55
Width: 1366
Flags: W
LayerCount: 2
Fore
SplineSet
310 0 m 1,0,-1
 310 73 l 1,1,-1
 523 100 l 1,2,-1
 523 1235 l 1,3,-1
 472 1235 l 2,4,5
 341 1235 341 1235 264 1229 c 128,-1,6
 187 1223 187 1223 150 1215 c 1,7,-1
 123 966 l 1,8,-1
 32 966 l 1,9,-1
 32 1341 l 1,10,-1
 1335 1341 l 1,11,-1
 1335 966 l 1,12,-1
 1243 966 l 1,13,-1
 1216 1215 l 1,14,15
 1179 1223 1179 1223 1092.5 1228 c 128,-1,16
 1006 1233 1006 1233 888 1233 c 2,17,-1
 839 1233 l 1,18,-1
 839 100 l 1,19,-1
 1052 73 l 1,20,-1
 1052 0 l 1,21,-1
 310 0 l 1,0,-1
EndSplineSet
EndChar

StartChar: U
Encoding: 85 85 56
Width: 1479
Flags: W
LayerCount: 2
Fore
SplineSet
838 122 m 0,0,1
 920 122 920 122 979.5 146.5 c 128,-1,2
 1039 171 1039 171 1077.5 214.5 c 128,-1,3
 1116 258 1116 258 1134 319 c 128,-1,4
 1152 380 1152 380 1152 453 c 2,5,-1
 1152 1242 l 1,6,-1
 972 1268 l 1,7,-1
 972 1341 l 1,8,-1
 1428 1341 l 1,9,-1
 1428 1268 l 1,10,-1
 1276 1242 l 1,11,-1
 1276 461 l 2,12,13
 1276 372 1276 372 1251.5 286 c 128,-1,14
 1227 200 1227 200 1168 132 c 128,-1,15
 1109 64 1109 64 1009 22.5 c 128,-1,16
 909 -19 909 -19 759 -19 c 0,17,18
 619 -19 619 -19 515 14.5 c 128,-1,19
 411 48 411 48 341.5 111 c 128,-1,20
 272 174 272 174 237.5 264.5 c 128,-1,21
 203 355 203 355 203 469 c 2,22,-1
 203 1242 l 1,23,-1
 51 1268 l 1,24,-1
 51 1341 l 1,25,-1
 690 1341 l 1,26,-1
 690 1268 l 1,27,-1
 518 1242 l 1,28,-1
 518 455 l 2,29,30
 518 379 518 379 537 317.5 c 128,-1,31
 556 256 556 256 595 212.5 c 128,-1,32
 634 169 634 169 694.5 145.5 c 128,-1,33
 755 122 755 122 838 122 c 0,0,1
EndSplineSet
EndChar

StartChar: V
Encoding: 86 86 57
Width: 1479
Flags: W
LayerCount: 2
Fore
SplineSet
1456 1341 m 1,0,-1
 1456 1268 l 1,1,-1
 1329 1241 l 1,2,-1
 811 -31 l 1,3,-1
 678 -31 l 1,4,-1
 133 1241 l 1,5,-1
 23 1268 l 1,6,-1
 23 1341 l 1,7,-1
 606 1341 l 1,8,-1
 606 1268 l 1,9,-1
 467 1241 l 1,10,-1
 844 362 l 1,11,-1
 1196 1241 l 1,12,-1
 1061 1268 l 1,13,-1
 1061 1341 l 1,14,-1
 1456 1341 l 1,0,-1
EndSplineSet
EndChar

StartChar: W
Encoding: 87 87 58
Width: 2048
Flags: W
LayerCount: 2
Fore
SplineSet
1899 1242 m 1,0,-1
 1501 -31 l 1,1,-1
 1378 -31 l 1,2,-1
 1044 796 l 1,3,-1
 713 -31 l 1,4,-1
 590 -31 l 1,5,-1
 146 1242 l 1,6,-1
 29 1268 l 1,7,-1
 29 1341 l 1,8,-1
 631 1341 l 1,9,-1
 631 1268 l 1,10,-1
 474 1242 l 1,11,-1
 760 443 l 1,12,-1
 1074 1227 l 1,13,-1
 1199 1227 l 1,14,-1
 1514 445 l 1,15,-1
 1751 1242 l 1,16,-1
 1582 1268 l 1,17,-1
 1582 1341 l 1,18,-1
 2016 1341 l 1,19,-1
 2016 1268 l 1,20,-1
 1899 1242 l 1,0,-1
EndSplineSet
EndChar

StartChar: X
Encoding: 88 88 59
Width: 1479
Flags: W
LayerCount: 2
Fore
SplineSet
330 100 m 1,0,-1
 496 73 l 1,1,-1
 496 0 l 1,2,-1
 38 0 l 1,3,-1
 38 73 l 1,4,-1
 186 100 l 1,5,-1
 617 648 l 1,6,-1
 233 1242 l 1,7,-1
 82 1268 l 1,8,-1
 82 1341 l 1,9,-1
 735 1341 l 1,10,-1
 735 1268 l 1,11,-1
 565 1242 l 1,12,-1
 799 880 l 1,13,-1
 1084 1242 l 1,14,-1
 918 1268 l 1,15,-1
 918 1341 l 1,16,-1
 1377 1341 l 1,17,-1
 1377 1268 l 1,18,-1
 1229 1242 l 1,19,-1
 864 779 l 1,20,-1
 1303 100 l 1,21,-1
 1455 73 l 1,22,-1
 1455 0 l 1,23,-1
 802 0 l 1,24,-1
 802 73 l 1,25,-1
 972 100 l 1,26,-1
 682 547 l 1,27,-1
 330 100 l 1,0,-1
EndSplineSet
EndChar

StartChar: Y
Encoding: 89 89 60
Width: 1479
Flags: W
LayerCount: 2
Fore
SplineSet
911 528 m 1,0,-1
 911 100 l 1,1,-1
 1124 73 l 1,2,-1
 1124 0 l 1,3,-1
 382 0 l 1,4,-1
 382 73 l 1,5,-1
 595 100 l 1,6,-1
 595 522 l 1,7,-1
 187 1242 l 1,8,-1
 36 1268 l 1,9,-1
 36 1341 l 1,10,-1
 726 1341 l 1,11,-1
 726 1268 l 1,12,-1
 546 1242 l 1,13,-1
 852 680 l 1,14,-1
 1148 1242 l 1,15,-1
 984 1268 l 1,16,-1
 984 1341 l 1,17,-1
 1440 1341 l 1,18,-1
 1440 1268 l 1,19,-1
 1298 1242 l 1,20,-1
 911 528 l 1,0,-1
EndSplineSet
EndChar

StartChar: Z
Encoding: 90 90 61
Width: 1366
Flags: W
LayerCount: 2
Fore
SplineSet
98 114 m 1,0,-1
 840 1235 l 1,1,-1
 600 1235 l 2,2,3
 469 1235 469 1235 393 1229 c 128,-1,4
 317 1223 317 1223 280 1215 c 1,5,-1
 249 1004 l 1,6,-1
 160 1004 l 1,7,-1
 160 1341 l 1,8,-1
 1196 1341 l 1,9,-1
 1196 1235 l 1,10,-1
 449 104 l 1,11,-1
 729 104 l 2,12,13
 794 104 794 104 855.5 107.5 c 128,-1,14
 917 111 917 111 968 116.5 c 128,-1,15
 1019 122 1019 122 1057 127.5 c 128,-1,16
 1095 133 1095 133 1113 137 c 1,17,-1
 1172 393 l 1,18,-1
 1262 393 l 1,19,-1
 1235 0 l 1,20,-1
 98 0 l 1,21,-1
 98 114 l 1,0,-1
EndSplineSet
EndChar

StartChar: bracketleft
Encoding: 91 91 62
Width: 682
Flags: W
LayerCount: 2
Fore
SplineSet
152 -274 m 1,0,-1
 152 1421 l 1,1,-1
 608 1421 l 1,2,-1
 608 1354 l 1,3,-1
 405 1313 l 1,4,-1
 405 -166 l 1,5,-1
 608 -207 l 1,6,-1
 608 -274 l 1,7,-1
 152 -274 l 1,0,-1
EndSplineSet
EndChar

StartChar: backslash
Encoding: 92 92 63
Width: 569
Flags: W
LayerCount: 2
Fore
SplineSet
-20 1349 m 1,0,-1
 120 1349 l 1,1,-1
 590 -20 l 1,2,-1
 449 -20 l 1,3,-1
 -20 1349 l 1,0,-1
EndSplineSet
EndChar

StartChar: bracketright
Encoding: 93 93 64
Width: 682
Flags: W
LayerCount: 2
Fore
SplineSet
74 -274 m 1,0,-1
 74 -207 l 1,1,-1
 277 -166 l 1,2,-1
 277 1313 l 1,3,-1
 74 1354 l 1,4,-1
 74 1421 l 1,5,-1
 530 1421 l 1,6,-1
 530 -274 l 1,7,-1
 74 -274 l 1,0,-1
EndSplineSet
EndChar

StartChar: asciicircum
Encoding: 94 94 65
Width: 1190
Flags: W
LayerCount: 2
Fore
SplineSet
925 389 m 1,0,-1
 595 1150 l 1,1,-1
 265 389 l 1,2,-1
 122 389 l 1,3,-1
 550 1341 l 1,4,-1
 640 1341 l 1,5,-1
 1068 389 l 1,6,-1
 925 389 l 1,0,-1
EndSplineSet
EndChar

StartChar: underscore
Encoding: 95 95 66
Width: 1024
Flags: W
LayerCount: 2
Fore
SplineSet
-16 -285 m 1,0,-1
 -16 -141 l 1,1,-1
 1040 -141 l 1,2,-1
 1040 -285 l 1,3,-1
 -16 -285 l 1,0,-1
EndSplineSet
EndChar

StartChar: grave
Encoding: 96 96 67
Width: 682
Flags: W
LayerCount: 2
Fore
SplineSet
452 1118 m 1,0,-1
 88 1386 l 1,1,-1
 88 1423 l 1,2,-1
 373 1423 l 1,3,-1
 538 1150 l 1,4,-1
 538 1118 l 1,5,-1
 452 1118 l 1,0,-1
EndSplineSet
EndChar

StartChar: a
Encoding: 97 97 68
Width: 1024
Flags: W
LayerCount: 2
Fore
SplineSet
546 961 m 0,0,1
 623 961 623 961 688 948 c 128,-1,2
 753 935 753 935 800 904.5 c 128,-1,3
 847 874 847 874 873 824 c 128,-1,4
 899 774 899 774 899 701 c 2,5,-1
 899 90 l 1,6,-1
 993 66 l 1,7,-1
 993 0 l 1,8,-1
 647 0 l 1,9,-1
 625 72 l 1,10,11
 606 59 606 59 580.5 43 c 128,-1,12
 555 27 555 27 522 13 c 128,-1,13
 489 -1 489 -1 448 -10.5 c 128,-1,14
 407 -20 407 -20 357 -20 c 0,15,16
 275 -20 275 -20 219.5 1 c 128,-1,17
 164 22 164 22 130 59.5 c 128,-1,18
 96 97 96 97 81 148.5 c 128,-1,19
 66 200 66 200 66 260 c 0,20,21
 66 357 66 357 100 415 c 128,-1,22
 134 473 134 473 191.5 504.5 c 128,-1,23
 249 536 249 536 325.5 546 c 128,-1,24
 402 556 402 556 488 558 c 2,25,-1
 610 561 l 1,26,-1
 610 698 l 2,27,28
 610 781 610 781 576 824.5 c 128,-1,29
 542 868 542 868 471 868 c 0,30,31
 416 868 416 868 370.5 852.5 c 128,-1,32
 325 837 325 837 283 816 c 1,33,-1
 245 699 l 1,34,-1
 179 699 l 1,35,-1
 179 926 l 1,36,37
 225 933 225 933 266.5 939 c 128,-1,38
 308 945 308 945 351 950 c 128,-1,39
 394 955 394 955 441.5 958 c 128,-1,40
 489 961 489 961 546 961 c 0,0,1
610 472 m 1,41,-1
 526 469 l 2,42,43
 482 467 482 467 450 457 c 128,-1,44
 418 447 418 447 396.5 423.5 c 128,-1,45
 375 400 375 400 364.5 362 c 128,-1,46
 354 324 354 324 354 266 c 0,47,48
 354 181 354 181 384 141 c 128,-1,49
 414 101 414 101 462 101 c 256,50,51
 510 101 510 101 544 111.5 c 128,-1,52
 578 122 578 122 610 136 c 1,53,-1
 610 472 l 1,41,-1
EndSplineSet
EndChar

StartChar: b
Encoding: 98 98 69
Width: 1139
Flags: W
LayerCount: 2
Fore
SplineSet
763 497 m 0,0,1
 763 599 763 599 750 667.5 c 128,-1,2
 737 736 737 736 712 777.5 c 128,-1,3
 687 819 687 819 650.5 836.5 c 128,-1,4
 614 854 614 854 568 854 c 0,5,6
 530 854 530 854 485 845.5 c 128,-1,7
 440 837 440 837 411 820 c 1,8,-1
 411 101 l 1,9,10
 443 93 443 93 485.5 89 c 128,-1,11
 528 85 528 85 568 85 c 0,12,13
 622 85 622 85 659 112 c 128,-1,14
 696 139 696 139 719.5 191.5 c 128,-1,15
 743 244 743 244 753 321 c 128,-1,16
 763 398 763 398 763 497 c 0,0,1
122 1333 m 1,17,-1
 26 1356 l 1,18,-1
 26 1421 l 1,19,-1
 411 1421 l 1,20,-1
 411 1076 l 2,21,22
 411 1039 411 1039 408.5 987 c 128,-1,23
 406 935 406 935 401 887 c 1,24,25
 423 905 423 905 453.5 919 c 128,-1,26
 484 933 484 933 519.5 943.5 c 128,-1,27
 555 954 555 954 592 959.5 c 128,-1,28
 629 965 629 965 664 965 c 0,29,30
 769 965 769 965 843 936.5 c 128,-1,31
 917 908 917 908 964.5 850 c 128,-1,32
 1012 792 1012 792 1034 704 c 128,-1,33
 1056 616 1056 616 1056 496 c 0,34,35
 1056 382 1056 382 1027.5 287.5 c 128,-1,36
 999 193 999 193 942 124.5 c 128,-1,37
 885 56 885 56 798.5 18 c 128,-1,38
 712 -20 712 -20 596 -20 c 0,39,40
 500 -20 500 -20 377.5 -0.5 c 128,-1,41
 255 19 255 19 122 48 c 1,42,-1
 122 1333 l 1,17,-1
EndSplineSet
EndChar

StartChar: c
Encoding: 99 99 70
Width: 909
Flags: W
LayerCount: 2
Fore
SplineSet
858 57 m 1,0,1
 834 38 834 38 801.5 24 c 128,-1,2
 769 10 769 10 730.5 0.5 c 128,-1,3
 692 -9 692 -9 651 -14 c 128,-1,4
 610 -19 610 -19 570 -19 c 0,5,6
 436 -19 436 -19 341 14.5 c 128,-1,7
 246 48 246 48 186 111 c 128,-1,8
 126 174 126 174 98 265 c 128,-1,9
 70 356 70 356 70 472 c 0,10,11
 70 601 70 601 107 694.5 c 128,-1,12
 144 788 144 788 207.5 848 c 128,-1,13
 271 908 271 908 355 936.5 c 128,-1,14
 439 965 439 965 532 965 c 0,15,16
 618 965 618 965 694.5 954.5 c 128,-1,17
 771 944 771 944 837 930 c 1,18,-1
 837 652 l 1,19,-1
 765 652 l 1,20,-1
 723 817 l 1,21,22
 707 829 707 829 691.5 837.5 c 128,-1,23
 676 846 676 846 658 851.5 c 128,-1,24
 640 857 640 857 618.5 859.5 c 128,-1,25
 597 862 597 862 569 862 c 0,26,27
 530 862 530 862 493 839.5 c 128,-1,28
 456 817 456 817 426.5 770.5 c 128,-1,29
 397 724 397 724 379 651 c 128,-1,30
 361 578 361 578 361 478 c 0,31,32
 361 394 361 394 372.5 325 c 128,-1,33
 384 256 384 256 413 207 c 128,-1,34
 442 158 442 158 493 131.5 c 128,-1,35
 544 105 544 105 622 105 c 0,36,37
 687 105 687 105 750.5 113 c 128,-1,38
 814 121 814 121 858 134 c 1,39,-1
 858 57 l 1,0,1
EndSplineSet
EndChar

StartChar: d
Encoding: 100 100 71
Width: 1139
Flags: W
LayerCount: 2
Fore
SplineSet
733 53 m 1,0,1
 710 38 710 38 687.5 24.5 c 128,-1,2
 665 11 665 11 637.5 1.5 c 128,-1,3
 610 -8 610 -8 575.5 -14 c 128,-1,4
 541 -20 541 -20 495 -20 c 0,5,6
 287 -20 287 -20 185 99.5 c 128,-1,7
 83 219 83 219 83 467 c 0,8,9
 83 581 83 581 108 673 c 128,-1,10
 133 765 133 765 185.5 830 c 128,-1,11
 238 895 238 895 318.5 930 c 128,-1,12
 399 965 399 965 510 965 c 0,13,14
 619 965 619 965 730 938 c 1,15,16
 728 949 728 949 727 969 c 128,-1,17
 726 989 726 989 725.5 1011.5 c 128,-1,18
 725 1034 725 1034 724.5 1056 c 128,-1,19
 724 1078 724 1078 724 1093 c 2,20,-1
 724 1331 l 1,21,-1
 628 1355 l 1,22,-1
 628 1421 l 1,23,-1
 1013 1421 l 1,24,-1
 1013 90 l 1,25,-1
 1116 66 l 1,26,-1
 1116 0 l 1,27,-1
 754 0 l 1,28,-1
 733 53 l 1,0,1
376 475 m 0,29,30
 376 365 376 365 391 291.5 c 128,-1,31
 406 218 406 218 431.5 173.5 c 128,-1,32
 457 129 457 129 490 110 c 128,-1,33
 523 91 523 91 558 91 c 0,34,35
 609 91 609 91 647.5 103 c 128,-1,36
 686 115 686 115 724 134 c 1,37,-1
 724 842 l 1,38,39
 683 853 683 853 647 858 c 128,-1,40
 611 863 611 863 566 863 c 0,41,42
 476 863 476 863 426 764.5 c 128,-1,43
 376 666 376 666 376 475 c 0,29,30
EndSplineSet
EndChar

StartChar: e
Encoding: 101 101 72
Width: 909
Flags: W
LayerCount: 2
Fore
SplineSet
494 963 m 0,0,1
 577 963 577 963 644 943 c 128,-1,2
 711 923 711 923 758 874.5 c 128,-1,3
 805 826 805 826 830.5 745.5 c 128,-1,4
 856 665 856 665 856 544 c 2,5,-1
 856 462 l 1,6,-1
 363 462 l 1,7,-1
 363 446 l 2,8,9
 363 379 363 379 368.5 317.5 c 128,-1,10
 374 256 374 256 398.5 208.5 c 128,-1,11
 423 161 423 161 473.5 133 c 128,-1,12
 524 105 524 105 613 105 c 0,13,14
 672 105 672 105 728 114 c 128,-1,15
 784 123 784 123 835 134 c 1,16,-1
 835 57 l 1,17,18
 812 43 812 43 777 29 c 128,-1,19
 742 15 742 15 700.5 4.5 c 128,-1,20
 659 -6 659 -6 613 -12.5 c 128,-1,21
 567 -19 567 -19 522 -19 c 0,22,23
 401 -19 401 -19 315 13 c 128,-1,24
 229 45 229 45 174.5 108 c 128,-1,25
 120 171 120 171 95 263 c 128,-1,26
 70 355 70 355 70 475 c 0,27,28
 70 721 70 721 175.5 842 c 128,-1,29
 281 963 281 963 494 963 c 0,0,1
483 862 m 0,30,31
 447 862 447 862 424 841 c 128,-1,32
 401 820 401 820 387.5 782 c 128,-1,33
 374 744 374 744 369 689 c 128,-1,34
 364 634 364 634 364 567 c 1,35,-1
 582 567 l 1,36,37
 582 634 582 634 579.5 689 c 128,-1,38
 577 744 577 744 567.5 782 c 128,-1,39
 558 820 558 820 538 841 c 128,-1,40
 518 862 518 862 483 862 c 0,30,31
EndSplineSet
EndChar

StartChar: f
Encoding: 102 102 73
Width: 682
Flags: W
LayerCount: 2
Fore
SplineSet
157 836 m 1,0,-1
 15 836 l 1,1,-1
 15 905 l 1,2,-1
 157 944 l 1,3,-1
 157 1045 l 2,4,5
 157 1144 157 1144 183 1218.5 c 128,-1,6
 209 1293 209 1293 257.5 1342.5 c 128,-1,7
 306 1392 306 1392 376.5 1417 c 128,-1,8
 447 1442 447 1442 536 1442 c 0,9,10
 558 1442 558 1442 581.5 1440.5 c 128,-1,11
 605 1439 605 1439 627.5 1436.5 c 128,-1,12
 650 1434 650 1434 669 1430.5 c 128,-1,13
 688 1427 688 1427 702 1423 c 1,14,-1
 702 1199 l 1,15,-1
 638 1199 l 1,16,-1
 609 1308 l 1,17,18
 600 1317 600 1317 584.5 1324.5 c 128,-1,19
 569 1332 569 1332 546 1332 c 0,20,21
 524 1332 524 1332 505.5 1318.5 c 128,-1,22
 487 1305 487 1305 474 1274.5 c 128,-1,23
 461 1244 461 1244 453.5 1195.5 c 128,-1,24
 446 1147 446 1147 446 1077 c 2,25,-1
 446 940 l 1,26,-1
 637 940 l 1,27,-1
 637 836 l 1,28,-1
 446 836 l 1,29,-1
 446 90 l 1,30,-1
 599 66 l 1,31,-1
 599 0 l 1,32,-1
 55 0 l 1,33,-1
 55 66 l 1,34,-1
 157 90 l 1,35,-1
 157 836 l 1,0,-1
EndSplineSet
EndChar

StartChar: g
Encoding: 103 103 74
Width: 1024
Flags: W
LayerCount: 2
Fore
SplineSet
257 347 m 1,0,1
 79 422 79 422 79 640 c 0,2,3
 79 720 79 720 107.5 780.5 c 128,-1,4
 136 841 136 841 190 882 c 128,-1,5
 244 923 244 923 322.5 944 c 128,-1,6
 401 965 401 965 500 965 c 0,7,8
 532 965 532 965 565 962 c 128,-1,9
 598 959 598 959 626.5 955.5 c 128,-1,10
 655 952 655 952 677 947.5 c 128,-1,11
 699 943 699 943 709 940 c 1,12,-1
 934 1051 l 1,13,-1
 969 1008 l 1,14,-1
 855 846 l 1,15,16
 886 808 886 808 901.5 755 c 128,-1,17
 917 702 917 702 917 640 c 0,18,19
 917 559 917 559 889 497.5 c 128,-1,20
 861 436 861 436 807.5 394 c 128,-1,21
 754 352 754 352 675.5 331 c 128,-1,22
 597 310 597 310 496 310 c 0,23,24
 456 310 456 310 415 313.5 c 128,-1,25
 374 317 374 317 343 322 c 1,26,-1
 319 246 l 1,27,28
 320 231 320 231 330 217 c 128,-1,29
 340 203 340 203 356 191.5 c 128,-1,30
 372 180 372 180 394 173 c 128,-1,31
 416 166 416 166 442 166 c 2,32,-1
 661 166 l 2,33,34
 826 166 826 166 915 102 c 128,-1,35
 1004 38 1004 38 1004 -98 c 0,36,37
 1004 -160 1004 -160 979.5 -223 c 128,-1,38
 955 -286 955 -286 895 -337 c 128,-1,39
 835 -388 835 -388 734.5 -420 c 128,-1,40
 634 -452 634 -452 482 -452 c 0,41,42
 368 -452 368 -452 287 -434.5 c 128,-1,43
 206 -417 206 -417 154.5 -387 c 128,-1,44
 103 -357 103 -357 78.5 -317 c 128,-1,45
 54 -277 54 -277 54 -233 c 0,46,47
 54 -204 54 -204 67.5 -179 c 128,-1,48
 81 -154 81 -154 105 -131 c 128,-1,49
 129 -108 129 -108 161.5 -86.5 c 128,-1,50
 194 -65 194 -65 232 -43 c 1,51,52
 214 -36 214 -36 189.5 -19.5 c 128,-1,53
 165 -3 165 -3 143 22.5 c 128,-1,54
 121 48 121 48 105.5 82 c 128,-1,55
 90 116 90 116 90 157 c 1,56,-1
 257 347 l 1,0,1
785 -166 m 0,57,58
 785 -119 785 -119 752 -95 c 128,-1,59
 719 -71 719 -71 658 -71 c 2,60,-1
 341 -71 l 1,61,62
 300 -101 300 -101 276.5 -138 c 128,-1,63
 253 -175 253 -175 253 -216 c 0,64,65
 253 -239 253 -239 263 -262 c 128,-1,66
 273 -285 273 -285 299 -303 c 128,-1,67
 325 -321 325 -321 369.5 -332.5 c 128,-1,68
 414 -344 414 -344 483 -344 c 0,69,70
 562 -344 562 -344 619 -330.5 c 128,-1,71
 676 -317 676 -317 713 -293 c 128,-1,72
 750 -269 750 -269 767.5 -236.5 c 128,-1,73
 785 -204 785 -204 785 -166 c 0,57,58
494 410 m 0,74,75
 568 410 568 410 601 467.5 c 128,-1,76
 634 525 634 525 634 640 c 256,77,78
 634 755 634 755 601.5 809.5 c 128,-1,79
 569 864 569 864 494 864 c 0,80,81
 425 864 425 864 393.5 809.5 c 128,-1,82
 362 755 362 755 362 640 c 256,83,84
 362 525 362 525 393 467.5 c 128,-1,85
 424 410 424 410 494 410 c 0,74,75
EndSplineSet
EndChar

StartChar: h
Encoding: 104 104 75
Width: 1139
Flags: W
LayerCount: 2
Fore
SplineSet
436 1014 m 2,0,1
 436 999 436 999 435.5 978.5 c 128,-1,2
 435 958 435 958 434 936 c 128,-1,3
 433 914 433 914 432 893.5 c 128,-1,4
 431 873 431 873 430 858 c 1,5,6
 461 874 461 874 498.5 893 c 128,-1,7
 536 912 536 912 578 928 c 128,-1,8
 620 944 620 944 664.5 954.5 c 128,-1,9
 709 965 709 965 754 965 c 0,10,11
 811 965 811 965 859 950 c 128,-1,12
 907 935 907 935 941.5 902 c 128,-1,13
 976 869 976 869 995 816 c 128,-1,14
 1014 763 1014 763 1014 688 c 2,15,-1
 1014 90 l 1,16,-1
 1108 66 l 1,17,-1
 1108 0 l 1,18,-1
 641 0 l 1,19,-1
 641 66 l 1,20,-1
 725 90 l 1,21,-1
 725 649 l 2,22,23
 725 733 725 733 689.5 780 c 128,-1,24
 654 827 654 827 588 827 c 0,25,26
 512 827 512 827 436 793 c 1,27,-1
 436 90 l 1,28,-1
 522 66 l 1,29,-1
 522 0 l 1,30,-1
 55 0 l 1,31,-1
 55 66 l 1,32,-1
 147 90 l 1,33,-1
 147 1331 l 1,34,-1
 51 1355 l 1,35,-1
 51 1421 l 1,36,-1
 436 1421 l 1,37,-1
 436 1014 l 2,0,1
EndSplineSet
EndChar

StartChar: i
Encoding: 105 105 76
Width: 569
Flags: W
LayerCount: 2
Fore
SplineSet
436 90 m 1,0,-1
 539 66 l 1,1,-1
 539 0 l 1,2,-1
 45 0 l 1,3,-1
 45 66 l 1,4,-1
 147 90 l 1,5,-1
 147 850 l 1,6,-1
 51 874 l 1,7,-1
 51 940 l 1,8,-1
 436 940 l 1,9,-1
 436 90 l 1,0,-1
137 1268 m 256,10,11
 137 1300 137 1300 149 1328 c 128,-1,12
 161 1356 161 1356 182 1376.5 c 128,-1,13
 203 1397 203 1397 231 1409 c 128,-1,14
 259 1421 259 1421 291 1421 c 256,15,16
 323 1421 323 1421 351 1409 c 128,-1,17
 379 1397 379 1397 399.5 1376.5 c 128,-1,18
 420 1356 420 1356 432 1328 c 128,-1,19
 444 1300 444 1300 444 1268 c 256,20,21
 444 1236 444 1236 432 1208 c 128,-1,22
 420 1180 420 1180 399.5 1159 c 128,-1,23
 379 1138 379 1138 351 1126 c 128,-1,24
 323 1114 323 1114 291 1114 c 256,25,26
 259 1114 259 1114 231 1126 c 128,-1,27
 203 1138 203 1138 182 1159 c 128,-1,28
 161 1180 161 1180 149 1208 c 128,-1,29
 137 1236 137 1236 137 1268 c 256,10,11
EndSplineSet
EndChar

StartChar: j
Encoding: 106 106 77
Width: 682
Flags: W
LayerCount: 2
Fore
SplineSet
553 1268 m 0,0,1
 553 1236 553 1236 541 1208 c 128,-1,2
 529 1180 529 1180 508 1159 c 128,-1,3
 487 1138 487 1138 459 1126 c 128,-1,4
 431 1114 431 1114 400 1114 c 0,5,6
 368 1114 368 1114 340 1126 c 128,-1,7
 312 1138 312 1138 291 1159 c 128,-1,8
 270 1180 270 1180 258 1208 c 128,-1,9
 246 1236 246 1236 246 1268 c 0,10,11
 246 1299 246 1299 258 1327 c 128,-1,12
 270 1355 270 1355 291 1376 c 128,-1,13
 312 1397 312 1397 340 1409 c 128,-1,14
 368 1421 368 1421 400 1421 c 0,15,16
 431 1421 431 1421 459 1409 c 128,-1,17
 487 1397 487 1397 508 1376 c 128,-1,18
 529 1355 529 1355 541 1327 c 128,-1,19
 553 1299 553 1299 553 1268 c 0,0,1
545 -39 m 2,20,21
 545 -145 545 -145 514 -220.5 c 128,-1,22
 483 -296 483 -296 430 -344 c 128,-1,23
 377 -392 377 -392 306 -414 c 128,-1,24
 235 -436 235 -436 155 -436 c 0,25,26
 110 -436 110 -436 65 -431 c 128,-1,27
 20 -426 20 -426 -17 -418 c 1,28,-1
 -17 -193 l 1,29,-1
 47 -193 l 1,30,-1
 90 -307 l 1,31,32
 100 -315 100 -315 110 -320.5 c 128,-1,33
 120 -326 120 -326 139 -326 c 0,34,35
 161 -326 161 -326 182 -312.5 c 128,-1,36
 203 -299 203 -299 219.5 -269 c 128,-1,37
 236 -239 236 -239 246 -190.5 c 128,-1,38
 256 -142 256 -142 256 -71 c 2,39,-1
 256 840 l 1,40,-1
 90 874 l 1,41,-1
 90 940 l 1,42,-1
 545 940 l 1,43,-1
 545 -39 l 2,20,21
EndSplineSet
EndChar

StartChar: k
Encoding: 107 107 78
Width: 1139
Flags: W
LayerCount: 2
Fore
SplineSet
436 451 m 1,0,-1
 803 851 l 1,1,-1
 703 874 l 1,2,-1
 703 940 l 1,3,-1
 1061 940 l 1,4,-1
 1061 874 l 1,5,-1
 953 852 l 1,6,-1
 729 616 l 1,7,-1
 1052 90 l 1,8,-1
 1136 66 l 1,9,-1
 1136 0 l 1,10,-1
 684 0 l 1,11,-1
 684 66 l 1,12,-1
 739 90 l 1,13,-1
 551 419 l 1,14,-1
 436 339 l 1,15,-1
 436 90 l 1,16,-1
 529 66 l 1,17,-1
 529 0 l 1,18,-1
 58 0 l 1,19,-1
 58 66 l 1,20,-1
 147 90 l 1,21,-1
 147 1331 l 1,22,-1
 51 1355 l 1,23,-1
 51 1421 l 1,24,-1
 436 1421 l 1,25,-1
 436 451 l 1,0,-1
EndSplineSet
EndChar

StartChar: l
Encoding: 108 108 79
Width: 569
Flags: W
LayerCount: 2
Fore
SplineSet
431 90 m 1,0,-1
 534 66 l 1,1,-1
 534 0 l 1,2,-1
 40 0 l 1,3,-1
 40 66 l 1,4,-1
 142 90 l 1,5,-1
 142 1331 l 1,6,-1
 46 1355 l 1,7,-1
 46 1421 l 1,8,-1
 431 1421 l 1,9,-1
 431 90 l 1,0,-1
EndSplineSet
EndChar

StartChar: m
Encoding: 109 109 80
Width: 1706
Flags: W
LayerCount: 2
Fore
SplineSet
434 858 m 1,0,1
 465 874 465 874 502 893 c 128,-1,2
 539 912 539 912 580 928 c 128,-1,3
 621 944 621 944 664.5 954.5 c 128,-1,4
 708 965 708 965 753 965 c 0,5,6
 831 965 831 965 889 936.5 c 128,-1,7
 947 908 947 908 977 843 c 1,8,9
 1009 862 1009 862 1050.5 883.5 c 128,-1,10
 1092 905 1092 905 1137.5 923 c 128,-1,11
 1183 941 1183 941 1231 953 c 128,-1,12
 1279 965 1279 965 1323 965 c 0,13,14
 1380 965 1380 965 1427 950 c 128,-1,15
 1474 935 1474 935 1507.5 902 c 128,-1,16
 1541 869 1541 869 1559 816 c 128,-1,17
 1577 763 1577 763 1577 688 c 2,18,-1
 1577 90 l 1,19,-1
 1671 66 l 1,20,-1
 1671 0 l 1,21,-1
 1204 0 l 1,22,-1
 1204 66 l 1,23,-1
 1288 90 l 1,24,-1
 1288 649 l 2,25,26
 1288 733 1288 733 1255.5 780 c 128,-1,27
 1223 827 1223 827 1157 827 c 0,28,29
 1121 827 1121 827 1078.5 815.5 c 128,-1,30
 1036 804 1036 804 997 785 c 1,31,32
 1002 764 1002 764 1004.5 739.5 c 128,-1,33
 1007 715 1007 715 1007 688 c 2,34,-1
 1007 90 l 1,35,-1
 1101 66 l 1,36,-1
 1101 0 l 1,37,-1
 634 0 l 1,38,-1
 634 66 l 1,39,-1
 718 90 l 1,40,-1
 718 649 l 2,41,42
 718 733 718 733 685.5 780 c 128,-1,43
 653 827 653 827 587 827 c 0,44,45
 550 827 550 827 511.5 816 c 128,-1,46
 473 805 473 805 436 788 c 1,47,-1
 436 90 l 1,48,-1
 522 66 l 1,49,-1
 522 0 l 1,50,-1
 55 0 l 1,51,-1
 55 66 l 1,52,-1
 147 90 l 1,53,-1
 147 850 l 1,54,-1
 55 874 l 1,55,-1
 55 940 l 1,56,-1
 420 940 l 1,57,-1
 434 858 l 1,0,1
EndSplineSet
EndChar

StartChar: n
Encoding: 110 110 81
Width: 1139
Flags: W
LayerCount: 2
Fore
SplineSet
434 858 m 1,0,1
 465 874 465 874 502 893 c 128,-1,2
 539 912 539 912 580 928 c 128,-1,3
 621 944 621 944 665 954.5 c 128,-1,4
 709 965 709 965 754 965 c 0,5,6
 811 965 811 965 859 950 c 128,-1,7
 907 935 907 935 941.5 902 c 128,-1,8
 976 869 976 869 995 816 c 128,-1,9
 1014 763 1014 763 1014 688 c 2,10,-1
 1014 90 l 1,11,-1
 1108 66 l 1,12,-1
 1108 0 l 1,13,-1
 641 0 l 1,14,-1
 641 66 l 1,15,-1
 725 90 l 1,16,-1
 725 649 l 2,17,18
 725 733 725 733 689.5 780 c 128,-1,19
 654 827 654 827 588 827 c 0,20,21
 512 827 512 827 436 793 c 1,22,-1
 436 90 l 1,23,-1
 522 66 l 1,24,-1
 522 0 l 1,25,-1
 55 0 l 1,26,-1
 55 66 l 1,27,-1
 147 90 l 1,28,-1
 147 850 l 1,29,-1
 55 874 l 1,30,-1
 55 940 l 1,31,-1
 420 940 l 1,32,-1
 434 858 l 1,0,1
EndSplineSet
EndChar

StartChar: o
Encoding: 111 111 82
Width: 1024
Flags: W
LayerCount: 2
Fore
SplineSet
946 475 m 0,0,1
 946 355 946 355 921.5 263 c 128,-1,2
 897 171 897 171 844 108 c 128,-1,3
 791 45 791 45 707.5 12.5 c 128,-1,4
 624 -20 624 -20 506 -20 c 0,5,6
 395 -20 395 -20 314 12 c 128,-1,7
 233 44 233 44 180.5 107 c 128,-1,8
 128 170 128 170 103 262.5 c 128,-1,9
 78 355 78 355 78 475 c 0,10,11
 78 594 78 594 103 685.5 c 128,-1,12
 128 777 128 777 181 839 c 128,-1,13
 234 901 234 901 316.5 933 c 128,-1,14
 399 965 399 965 514 965 c 0,15,16
 737 965 737 965 841.5 840.5 c 128,-1,17
 946 716 946 716 946 475 c 0,0,1
653 475 m 0,18,19
 653 572 653 572 647 645 c 128,-1,20
 641 718 641 718 625 767 c 128,-1,21
 609 816 609 816 581 840 c 128,-1,22
 553 864 553 864 508 864 c 0,23,24
 464 864 464 864 437 840 c 128,-1,25
 410 816 410 816 395.5 767 c 128,-1,26
 381 718 381 718 376 645 c 128,-1,27
 371 572 371 572 371 475 c 0,28,29
 371 377 371 377 376 303.5 c 128,-1,30
 381 230 381 230 395.5 180 c 128,-1,31
 410 130 410 130 437 105 c 128,-1,32
 464 80 464 80 508 80 c 0,33,34
 553 80 553 80 581 105 c 128,-1,35
 609 130 609 130 625 180 c 128,-1,36
 641 230 641 230 647 303.5 c 128,-1,37
 653 377 653 377 653 475 c 0,18,19
EndSplineSet
EndChar

StartChar: p
Encoding: 112 112 83
Width: 1139
Flags: W
LayerCount: 2
Fore
SplineSet
409 892 m 1,0,1
 431 907 431 907 457.5 920.5 c 128,-1,2
 484 934 484 934 515.5 943.5 c 128,-1,3
 547 953 547 953 585 959 c 128,-1,4
 623 965 623 965 669 965 c 0,5,6
 865 965 865 965 960.5 850 c 128,-1,7
 1056 735 1056 735 1056 487 c 0,8,9
 1056 373 1056 373 1030.5 279.5 c 128,-1,10
 1005 186 1005 186 952 119.5 c 128,-1,11
 899 53 899 53 818 16.5 c 128,-1,12
 737 -20 737 -20 626 -20 c 0,13,14
 572 -20 572 -20 520 -13.5 c 128,-1,15
 468 -7 468 -7 412 7 c 1,16,17
 413 -4 413 -4 414.5 -23 c 128,-1,18
 416 -42 416 -42 416.5 -63.5 c 128,-1,19
 417 -85 417 -85 417.5 -105.5 c 128,-1,20
 418 -126 418 -126 418 -141 c 2,21,-1
 418 -346 l 1,22,-1
 556 -370 l 1,23,-1
 556 -436 l 1,24,-1
 27 -436 l 1,25,-1
 27 -370 l 1,26,-1
 129 -346 l 1,27,-1
 129 850 l 1,28,-1
 26 874 l 1,29,-1
 26 940 l 1,30,-1
 407 940 l 1,31,-1
 409 892 l 1,0,1
763 480 m 0,32,33
 763 589 763 589 749 661.5 c 128,-1,34
 735 734 735 734 711 776.5 c 128,-1,35
 687 819 687 819 655.5 836.5 c 128,-1,36
 624 854 624 854 589 854 c 0,37,38
 538 854 538 854 494.5 843 c 128,-1,39
 451 832 451 832 418 816 c 1,40,-1
 418 107 l 1,41,42
 499 86 499 86 587 86 c 0,43,44
 677 86 677 86 720 185 c 128,-1,45
 763 284 763 284 763 480 c 0,32,33
EndSplineSet
EndChar

StartChar: q
Encoding: 113 113 84
Width: 1139
Flags: W
LayerCount: 2
Fore
SplineSet
377 448 m 0,0,1
 377 346 377 346 391 277.5 c 128,-1,2
 405 209 405 209 430.5 167.5 c 128,-1,3
 456 126 456 126 493 108.5 c 128,-1,4
 530 91 530 91 577 91 c 0,5,6
 615 91 615 91 657.5 101.5 c 128,-1,7
 700 112 700 112 729 129 c 1,8,-1
 729 845 l 1,9,10
 697 853 697 853 657 857.5 c 128,-1,11
 617 862 617 862 577 862 c 0,12,13
 523 862 523 862 485 834.5 c 128,-1,14
 447 807 447 807 423 754.5 c 128,-1,15
 399 702 399 702 388 624.5 c 128,-1,16
 377 547 377 547 377 448 c 0,0,1
1018 -346 m 1,17,-1
 1120 -370 l 1,18,-1
 1120 -436 l 1,19,-1
 591 -436 l 1,20,-1
 591 -370 l 1,21,-1
 729 -346 l 1,22,-1
 729 -131 l 2,23,24
 729 -94 729 -94 731.5 -42 c 128,-1,25
 734 10 734 10 739 58 c 1,26,27
 695 23 695 23 633 1.5 c 128,-1,28
 571 -20 571 -20 494 -20 c 0,29,30
 285 -20 285 -20 184.5 103.5 c 128,-1,31
 84 227 84 227 84 474 c 0,32,33
 84 588 84 588 110 678.5 c 128,-1,34
 136 769 136 769 190.5 833 c 128,-1,35
 245 897 245 897 329 931 c 128,-1,36
 413 965 413 965 529 965 c 0,37,38
 559 965 559 965 596 962.5 c 128,-1,39
 633 960 633 960 671 956.5 c 128,-1,40
 709 953 709 953 745 949 c 128,-1,41
 781 945 781 945 808 942 c 1,42,-1
 927 985 l 1,43,-1
 1018 985 l 1,44,-1
 1018 -346 l 1,17,-1
EndSplineSet
EndChar

StartChar: r
Encoding: 114 114 85
Width: 909
Flags: W
LayerCount: 2
Fore
SplineSet
461 745 m 1,0,1
 487 774 487 774 525.5 813 c 128,-1,2
 564 852 564 852 609.5 887 c 128,-1,3
 655 922 655 922 706.5 946 c 128,-1,4
 758 970 758 970 811 970 c 2,5,-1
 865 970 l 1,6,-1
 865 627 l 1,7,-1
 809 627 l 1,8,-1
 750 753 l 1,9,10
 717 753 717 753 678 745 c 128,-1,11
 639 737 639 737 601 723.5 c 128,-1,12
 563 710 563 710 527.5 693.5 c 128,-1,13
 492 677 492 677 466 661 c 1,14,-1
 466 90 l 1,15,-1
 617 66 l 1,16,-1
 617 0 l 1,17,-1
 55 0 l 1,18,-1
 55 66 l 1,19,-1
 177 90 l 1,20,-1
 177 850 l 1,21,-1
 55 874 l 1,22,-1
 55 940 l 1,23,-1
 450 940 l 1,24,-1
 461 745 l 1,0,1
EndSplineSet
EndChar

StartChar: s
Encoding: 115 115 86
Width: 797
Flags: W
LayerCount: 2
Fore
SplineSet
747 298 m 0,0,1
 747 224 747 224 724.5 165 c 128,-1,2
 702 106 702 106 655.5 65 c 128,-1,3
 609 24 609 24 538 2 c 128,-1,4
 467 -20 467 -20 370 -20 c 0,5,6
 322 -20 322 -20 273 -14 c 128,-1,7
 224 -8 224 -8 182 0.5 c 128,-1,8
 140 9 140 9 108.5 17.5 c 128,-1,9
 77 26 77 26 64 31 c 1,10,-1
 64 287 l 1,11,-1
 130 287 l 1,12,-1
 168 155 l 1,13,14
 183 140 183 140 205 125.5 c 128,-1,15
 227 111 227 111 254 99 c 128,-1,16
 281 87 281 87 312 80 c 128,-1,17
 343 73 343 73 376 73 c 0,18,19
 463 73 463 73 505.5 110.5 c 128,-1,20
 548 148 548 148 548 206 c 0,21,22
 548 238 548 238 535.5 261 c 128,-1,23
 523 284 523 284 496 302 c 128,-1,24
 469 320 469 320 427.5 336 c 128,-1,25
 386 352 386 352 328 370 c 0,26,27
 280 385 280 385 232 407.5 c 128,-1,28
 184 430 184 430 146.5 466 c 128,-1,29
 109 502 109 502 85.5 555 c 128,-1,30
 62 608 62 608 62 685 c 0,31,32
 62 753 62 753 88.5 805 c 128,-1,33
 115 857 115 857 161 892.5 c 128,-1,34
 207 928 207 928 269 946.5 c 128,-1,35
 331 965 331 965 402 965 c 0,36,37
 472 965 472 965 542.5 956 c 128,-1,38
 613 947 613 947 679 936 c 1,39,-1
 679 695 l 1,40,-1
 613 695 l 1,41,-1
 581 805 l 1,42,43
 568 818 568 818 548 830 c 128,-1,44
 528 842 528 842 503.5 851 c 128,-1,45
 479 860 479 860 452 865.5 c 128,-1,46
 425 871 425 871 400 871 c 0,47,48
 328 871 328 871 293.5 841.5 c 128,-1,49
 259 812 259 812 259 761 c 0,50,51
 259 728 259 728 273.5 705 c 128,-1,52
 288 682 288 682 316.5 664 c 128,-1,53
 345 646 345 646 385.5 631 c 128,-1,54
 426 616 426 616 479 600 c 0,55,56
 534 583 534 583 583 559.5 c 128,-1,57
 632 536 632 536 668.5 500.5 c 128,-1,58
 705 465 705 465 726 416 c 128,-1,59
 747 367 747 367 747 298 c 0,0,1
EndSplineSet
EndChar

StartChar: t
Encoding: 116 116 87
Width: 682
Flags: W
LayerCount: 2
Fore
SplineSet
438 -20 m 0,0,1
 363 -20 363 -20 309.5 -2 c 128,-1,2
 256 16 256 16 222 47.5 c 128,-1,3
 188 79 188 79 172 122.5 c 128,-1,4
 156 166 156 166 156 217 c 2,5,-1
 156 836 l 1,6,-1
 33 836 l 1,7,-1
 33 901 l 1,8,-1
 178 940 l 1,9,-1
 295 1153 l 1,10,-1
 445 1153 l 1,11,-1
 445 940 l 1,12,-1
 643 940 l 1,13,-1
 643 836 l 1,14,-1
 445 836 l 1,15,-1
 445 235 l 2,16,17
 445 170 445 170 472 137 c 128,-1,18
 499 104 499 104 543 104 c 0,19,20
 577 104 577 104 610.5 109 c 128,-1,21
 644 114 644 114 673 120 c 1,22,-1
 673 35 l 1,23,24
 659 25 659 25 632 15 c 128,-1,25
 605 5 605 5 572.5 -2.5 c 128,-1,26
 540 -10 540 -10 504.5 -15 c 128,-1,27
 469 -20 469 -20 438 -20 c 0,0,1
EndSplineSet
EndChar

StartChar: u
Encoding: 117 117 88
Width: 1139
Flags: W
LayerCount: 2
Fore
SplineSet
705 82 m 1,0,1
 674 66 674 66 637 47 c 128,-1,2
 600 28 600 28 559 12 c 128,-1,3
 518 -4 518 -4 474 -14.5 c 128,-1,4
 430 -25 430 -25 385 -25 c 0,5,6
 328 -25 328 -25 280 -10 c 128,-1,7
 232 5 232 5 197.5 38 c 128,-1,8
 163 71 163 71 144 124 c 128,-1,9
 125 177 125 177 125 252 c 2,10,-1
 125 850 l 1,11,-1
 31 874 l 1,12,-1
 31 940 l 1,13,-1
 414 940 l 1,14,-1
 414 291 l 2,15,16
 414 207 414 207 449.5 160 c 128,-1,17
 485 113 485 113 551 113 c 0,18,19
 627 113 627 113 703 147 c 1,20,-1
 703 850 l 1,21,-1
 617 874 l 1,22,-1
 617 940 l 1,23,-1
 992 940 l 1,24,-1
 992 90 l 1,25,-1
 1084 66 l 1,26,-1
 1084 0 l 1,27,-1
 719 0 l 1,28,-1
 705 82 l 1,0,1
EndSplineSet
EndChar

StartChar: v
Encoding: 118 118 89
Width: 1024
Flags: W
LayerCount: 2
Fore
SplineSet
956 854 m 1,0,-1
 580 -20 l 1,1,-1
 459 -20 l 1,2,-1
 66 850 l 1,3,-1
 0 874 l 1,4,-1
 0 940 l 1,5,-1
 481 940 l 1,6,-1
 481 874 l 1,7,-1
 369 848 l 1,8,-1
 610 312 l 1,9,-1
 827 850 l 1,10,-1
 717 874 l 1,11,-1
 717 940 l 1,12,-1
 1024 940 l 1,13,-1
 1024 874 l 1,14,-1
 956 854 l 1,0,-1
EndSplineSet
EndChar

StartChar: w
Encoding: 119 119 90
Width: 1479
Flags: W
LayerCount: 2
Fore
SplineSet
874 846 m 1,0,-1
 1091 311 l 1,1,-1
 1273 850 l 1,2,-1
 1163 874 l 1,3,-1
 1163 940 l 1,4,-1
 1468 940 l 1,5,-1
 1468 874 l 1,6,-1
 1396 854 l 1,7,-1
 1080 -20 l 1,8,-1
 959 -20 l 1,9,-1
 744 507 l 1,10,-1
 530 -20 l 1,11,-1
 409 -20 l 1,12,-1
 76 850 l 1,13,-1
 6 874 l 1,14,-1
 6 940 l 1,15,-1
 471 940 l 1,16,-1
 471 874 l 1,17,-1
 359 848 l 1,18,-1
 561 311 l 1,19,-1
 779 846 l 1,20,-1
 874 846 l 1,0,-1
EndSplineSet
EndChar

StartChar: x
Encoding: 120 120 91
Width: 1024
Flags: W
LayerCount: 2
Fore
SplineSet
31 875 m 1,0,-1
 31 940 l 1,1,-1
 533 940 l 1,2,-1
 533 875 l 1,3,-1
 428 848 l 1,4,-1
 565 637 l 1,5,-1
 746 850 l 1,6,-1
 652 875 l 1,7,-1
 652 940 l 1,8,-1
 972 940 l 1,9,-1
 972 875 l 1,10,-1
 889 854 l 1,11,-1
 625 544 l 1,12,-1
 923 86 l 1,13,-1
 1013 65 l 1,14,-1
 1013 0 l 1,15,-1
 511 0 l 1,16,-1
 511 65 l 1,17,-1
 616 88 l 1,18,-1
 452 341 l 1,19,-1
 234 86 l 1,20,-1
 328 65 l 1,21,-1
 328 0 l 1,22,-1
 8 0 l 1,23,-1
 8 65 l 1,24,-1
 92 81 l 1,25,-1
 392 433 l 1,26,-1
 122 850 l 1,27,-1
 31 875 l 1,0,-1
EndSplineSet
EndChar

StartChar: y
Encoding: 121 121 92
Width: 1024
Flags: W
LayerCount: 2
Fore
SplineSet
462 -29 m 1,0,-1
 86 850 l 1,1,-1
 20 874 l 1,2,-1
 20 940 l 1,3,-1
 501 940 l 1,4,-1
 501 874 l 1,5,-1
 389 848 l 1,6,-1
 610 328 l 1,7,-1
 807 850 l 1,8,-1
 697 874 l 1,9,-1
 697 940 l 1,10,-1
 1004 940 l 1,11,-1
 1004 874 l 1,12,-1
 936 854 l 1,13,-1
 565 -59 l 1,14,15
 533 -141 533 -141 500 -211 c 128,-1,16
 467 -281 467 -281 426.5 -332.5 c 128,-1,17
 386 -384 386 -384 334 -413 c 128,-1,18
 282 -442 282 -442 213 -442 c 0,19,20
 185 -442 185 -442 164.5 -441 c 128,-1,21
 144 -440 144 -440 125.5 -437.5 c 128,-1,22
 107 -435 107 -435 88.5 -431.5 c 128,-1,23
 70 -428 70 -428 48 -423 c 1,24,-1
 48 -181 l 1,25,-1
 108 -181 l 1,26,-1
 151 -307 l 1,27,28
 165 -318 165 -318 182.5 -324 c 128,-1,29
 200 -330 200 -330 225 -330 c 0,30,31
 266 -330 266 -330 296.5 -309 c 128,-1,32
 327 -288 327 -288 352 -252.5 c 128,-1,33
 377 -217 377 -217 398.5 -169.5 c 128,-1,34
 420 -122 420 -122 444 -69 c 2,35,-1
 462 -29 l 1,0,-1
EndSplineSet
EndChar

StartChar: z
Encoding: 122 122 93
Width: 909
Flags: W
LayerCount: 2
Fore
SplineSet
40 0 m 1,0,-1
 40 45 l 1,1,-1
 472 850 l 1,2,-1
 365 850 l 2,3,4
 337 850 337 850 309.5 847.5 c 128,-1,5
 282 845 282 845 257.5 840.5 c 128,-1,6
 233 836 233 836 214 829.5 c 128,-1,7
 195 823 195 823 185 815 c 1,8,-1
 154 660 l 1,9,-1
 82 660 l 1,10,-1
 82 940 l 1,11,-1
 812 940 l 1,12,-1
 812 891 l 1,13,-1
 380 90 l 1,14,-1
 530 90 l 2,15,16
 557 90 557 90 587.5 93.5 c 128,-1,17
 618 97 618 97 646.5 103 c 128,-1,18
 675 109 675 109 699.5 117.5 c 128,-1,19
 724 126 724 126 739 137 c 1,20,-1
 792 354 l 1,21,-1
 864 354 l 1,22,-1
 837 0 l 1,23,-1
 40 0 l 1,0,-1
EndSplineSet
EndChar

StartChar: braceleft
Encoding: 123 123 94
Width: 807
Flags: W
LayerCount: 2
Fore
SplineSet
592 -274 m 2,0,1
 515 -274 515 -274 456.5 -253.5 c 128,-1,2
 398 -233 398 -233 359 -194.5 c 128,-1,3
 320 -156 320 -156 300.5 -102 c 128,-1,4
 281 -48 281 -48 281 20 c 2,5,-1
 281 315 l 2,6,7
 281 373 281 373 266.5 413.5 c 128,-1,8
 252 454 252 454 224.5 480 c 128,-1,9
 197 506 197 506 157 518.5 c 128,-1,10
 117 531 117 531 66 533 c 1,11,-1
 66 618 l 1,12,13
 168 621 168 621 224.5 670.5 c 128,-1,14
 281 720 281 720 281 834 c 2,15,-1
 281 1128 l 2,16,17
 281 1269 281 1269 359 1345 c 128,-1,18
 437 1421 437 1421 592 1421 c 2,19,-1
 727 1421 l 1,20,-1
 727 1334 l 1,21,-1
 665 1334 l 2,22,23
 596 1334 596 1334 566.5 1290 c 128,-1,24
 537 1246 537 1246 537 1159 c 2,25,-1
 537 829 l 2,26,27
 537 779 537 779 521.5 737 c 128,-1,28
 506 695 506 695 479 662.5 c 128,-1,29
 452 630 452 630 415 608.5 c 128,-1,30
 378 587 378 587 335 578 c 1,31,-1
 335 575 l 1,32,33
 380 565 380 565 417 543.5 c 128,-1,34
 454 522 454 522 481 489.5 c 128,-1,35
 508 457 508 457 522.5 415 c 128,-1,36
 537 373 537 373 537 322 c 2,37,-1
 537 -12 l 2,38,39
 537 -98 537 -98 566.5 -142.5 c 128,-1,40
 596 -187 596 -187 665 -187 c 2,41,-1
 727 -187 l 1,42,-1
 727 -274 l 1,43,-1
 592 -274 l 2,0,1
EndSplineSet
EndChar

StartChar: bar
Encoding: 124 124 95
Width: 451
Flags: W
LayerCount: 2
Fore
SplineSet
154 -442 m 1,0,-1
 154 1421 l 1,1,-1
 297 1421 l 1,2,-1
 297 -442 l 1,3,-1
 154 -442 l 1,0,-1
EndSplineSet
EndChar

StartChar: braceright
Encoding: 125 125 96
Width: 807
Flags: W
LayerCount: 2
Fore
SplineSet
80 -274 m 1,0,-1
 80 -187 l 1,1,-1
 142 -187 l 2,2,3
 211 -187 211 -187 240.5 -142.5 c 128,-1,4
 270 -98 270 -98 270 -12 c 2,5,-1
 270 322 l 2,6,7
 270 373 270 373 284.5 415 c 128,-1,8
 299 457 299 457 326 489.5 c 128,-1,9
 353 522 353 522 390 543.5 c 128,-1,10
 427 565 427 565 472 575 c 1,11,-1
 472 578 l 1,12,13
 428 587 428 587 391 608.5 c 128,-1,14
 354 630 354 630 327 662.5 c 128,-1,15
 300 695 300 695 285 737 c 128,-1,16
 270 779 270 779 270 829 c 2,17,-1
 270 1159 l 2,18,19
 270 1246 270 1246 240.5 1290 c 128,-1,20
 211 1334 211 1334 142 1334 c 2,21,-1
 80 1334 l 1,22,-1
 80 1421 l 1,23,-1
 215 1421 l 2,24,25
 370 1421 370 1421 448 1345 c 128,-1,26
 526 1269 526 1269 526 1128 c 2,27,-1
 526 834 l 2,28,29
 526 720 526 720 582.5 670.5 c 128,-1,30
 639 621 639 621 741 618 c 1,31,-1
 741 533 l 1,32,33
 690 531 690 531 650 518.5 c 128,-1,34
 610 506 610 506 582.5 480 c 128,-1,35
 555 454 555 454 540.5 413.5 c 128,-1,36
 526 373 526 373 526 315 c 2,37,-1
 526 20 l 2,38,39
 526 -48 526 -48 506.5 -102 c 128,-1,40
 487 -156 487 -156 448 -194.5 c 128,-1,41
 409 -233 409 -233 350.5 -253.5 c 128,-1,42
 292 -274 292 -274 215 -274 c 2,43,-1
 80 -274 l 1,0,-1
EndSplineSet
EndChar

StartChar: asciitilde
Encoding: 126 126 97
Width: 1065
Flags: W
LayerCount: 2
Fore
SplineSet
761 481 m 0,0,1
 713 481 713 481 669 499 c 128,-1,2
 625 517 625 517 585 544 c 128,-1,3
 545 571 545 571 508 602 c 128,-1,4
 471 633 471 633 436.5 660 c 128,-1,5
 402 687 402 687 369.5 705 c 128,-1,6
 337 723 337 723 306 723 c 0,7,8
 272 723 272 723 247 711 c 128,-1,9
 222 699 222 699 204.5 670.5 c 128,-1,10
 187 642 187 642 175.5 595.5 c 128,-1,11
 164 549 164 549 157 481 c 1,12,-1
 16 481 l 1,13,14
 23 550 23 550 37 619 c 128,-1,15
 51 688 51 688 82 742.5 c 128,-1,16
 113 797 113 797 166.5 831.5 c 128,-1,17
 220 866 220 866 306 866 c 0,18,19
 345 866 345 866 380 855 c 128,-1,20
 415 844 415 844 447 826.5 c 128,-1,21
 479 809 479 809 509 787 c 128,-1,22
 539 765 539 765 566 743 c 0,23,24
 583 728 583 728 606.5 708 c 128,-1,25
 630 688 630 688 656.5 669 c 128,-1,26
 683 650 683 650 710 637 c 128,-1,27
 737 624 737 624 761 624 c 0,28,29
 794 624 794 624 818 637.5 c 128,-1,30
 842 651 842 651 859 680 c 128,-1,31
 876 709 876 709 888 755 c 128,-1,32
 900 801 900 801 908 866 c 1,33,-1
 1052 866 l 1,34,35
 1043 798 1043 798 1027.5 729 c 128,-1,36
 1012 660 1012 660 980.5 605 c 128,-1,37
 949 550 949 550 896.5 515.5 c 128,-1,38
 844 481 844 481 761 481 c 0,0,1
EndSplineSet
EndChar

StartChar: exclamdown
Encoding: 161 161 98
Width: 682
Flags: W
LayerCount: 2
Fore
SplineSet
283 512 m 1,0,-1
 398 512 l 1,1,-1
 490 -409 l 1,2,-1
 191 -409 l 1,3,-1
 283 512 l 1,0,-1
340 961 m 0,4,5
 374 961 374 961 404.5 948 c 128,-1,6
 435 935 435 935 457.5 912.5 c 128,-1,7
 480 890 480 890 493 859.5 c 128,-1,8
 506 829 506 829 506 795 c 0,9,10
 506 760 506 760 493 730 c 128,-1,11
 480 700 480 700 457.5 677.5 c 128,-1,12
 435 655 435 655 404.5 642 c 128,-1,13
 374 629 374 629 340 629 c 0,14,15
 305 629 305 629 275 642 c 128,-1,16
 245 655 245 655 222.5 677.5 c 128,-1,17
 200 700 200 700 187 730 c 128,-1,18
 174 760 174 760 174 795 c 0,19,20
 174 829 174 829 187 859.5 c 128,-1,21
 200 890 200 890 222.5 912.5 c 128,-1,22
 245 935 245 935 275 948 c 128,-1,23
 305 961 305 961 340 961 c 0,4,5
EndSplineSet
EndChar

StartChar: cent
Encoding: 162 162 99
Width: 1024
Flags: W
LayerCount: 2
Fore
SplineSet
927 262 m 1,0,1
 883 230 883 230 813 211 c 128,-1,2
 743 192 743 192 669 187 c 1,3,-1
 669 0 l 1,4,-1
 577 0 l 1,5,-1
 577 187 l 1,6,7
 448 192 448 192 355.5 227.5 c 128,-1,8
 263 263 263 263 203.5 326 c 128,-1,9
 144 389 144 389 116.5 477.5 c 128,-1,10
 89 566 89 566 89 677 c 0,11,12
 89 806 89 806 128 899.5 c 128,-1,13
 167 993 167 993 233.5 1053 c 128,-1,14
 300 1113 300 1113 388 1141.5 c 128,-1,15
 476 1170 476 1170 575 1170 c 2,16,-1
 577 1170 l 1,17,-1
 577 1341 l 1,18,-1
 669 1341 l 1,19,-1
 669 1166 l 1,20,21
 734 1161 734 1161 794.5 1153 c 128,-1,22
 855 1145 855 1145 906 1135 c 1,23,-1
 906 857 l 1,24,-1
 834 857 l 1,25,-1
 780 1022 l 1,26,27
 754 1039 754 1039 729 1049 c 128,-1,28
 704 1059 704 1059 669 1064 c 1,29,-1
 669 310 l 1,30,31
 703 310 703 310 739 312 c 128,-1,32
 775 314 775 314 809 318 c 128,-1,33
 843 322 843 322 873.5 327.5 c 128,-1,34
 904 333 904 333 927 339 c 1,35,-1
 927 262 l 1,0,1
380 683 m 0,36,37
 380 611 380 611 389.5 550.5 c 128,-1,38
 399 490 399 490 421.5 443 c 128,-1,39
 444 396 444 396 482 364.5 c 128,-1,40
 520 333 520 333 577 320 c 1,41,-1
 577 1063 l 1,42,43
 538 1055 538 1055 502.5 1029 c 128,-1,44
 467 1003 467 1003 440 956.5 c 128,-1,45
 413 910 413 910 396.5 842 c 128,-1,46
 380 774 380 774 380 683 c 0,36,37
EndSplineSet
EndChar

StartChar: sterling
Encoding: 163 163 100
Width: 1024
Flags: W
LayerCount: 2
Fore
SplineSet
960 223 m 1,0,-1
 960 0 l 1,1,-1
 87 0 l 1,2,-1
 87 123 l 1,3,4
 120 153 120 153 158 185 c 128,-1,5
 196 217 196 217 227.5 254 c 128,-1,6
 259 291 259 291 280 334 c 128,-1,7
 301 377 301 377 301 430 c 0,8,9
 301 475 301 475 284.5 521.5 c 128,-1,10
 268 568 268 568 245 620 c 1,11,-1
 82 620 l 1,12,-1
 82 721 l 1,13,-1
 170 721 l 1,14,15
 142 784 142 784 122.5 854 c 128,-1,16
 103 924 103 924 103 1006 c 0,17,18
 103 1174 103 1174 221.5 1265 c 128,-1,19
 340 1356 340 1356 576 1356 c 0,20,21
 622 1356 622 1356 661.5 1352.5 c 128,-1,22
 701 1349 701 1349 737.5 1343.5 c 128,-1,23
 774 1338 774 1338 810.5 1330 c 128,-1,24
 847 1322 847 1322 887 1313 c 1,25,-1
 887 1008 l 1,26,-1
 800 1008 l 1,27,-1
 757 1202 l 1,28,29
 724 1222 724 1222 678.5 1238.5 c 128,-1,30
 633 1255 633 1255 576 1255 c 0,31,32
 485 1255 485 1255 441 1192 c 128,-1,33
 397 1129 397 1129 397 1006 c 0,34,35
 397 914 397 914 405 846.5 c 128,-1,36
 413 779 413 779 423 721 c 1,37,-1
 674 721 l 1,38,-1
 674 620 l 1,39,-1
 436 620 l 1,40,41
 442 582 442 582 446 546.5 c 128,-1,42
 450 511 450 511 450 467 c 0,43,44
 450 383 450 383 423 325 c 128,-1,45
 396 267 396 267 360 222 c 1,46,-1
 960 223 l 1,0,-1
EndSplineSet
EndChar

StartChar: currency
Encoding: 164 164 101
Width: 1024
Flags: W
LayerCount: 2
Fore
SplineSet
735 352 m 1,0,1
 687 318 687 318 630.5 300.5 c 128,-1,2
 574 283 574 283 512 283 c 0,3,4
 449 283 449 283 393 301.5 c 128,-1,5
 337 320 337 320 289 352 c 1,6,-1
 184 248 l 1,7,-1
 84 350 l 1,8,-1
 186 453 l 1,9,10
 154 501 154 501 136.5 557 c 128,-1,11
 119 613 119 613 119 676 c 256,12,13
 119 739 119 739 136.5 795 c 128,-1,14
 154 851 154 851 186 899 c 1,15,-1
 84 1004 l 1,16,-1
 188 1108 l 1,17,-1
 289 1001 l 1,18,19
 337 1033 337 1033 393 1052 c 128,-1,20
 449 1071 449 1071 512 1071 c 0,21,22
 574 1071 574 1071 630.5 1052 c 128,-1,23
 687 1033 687 1033 735 1001 c 1,24,-1
 840 1106 l 1,25,-1
 942 1006 l 1,26,-1
 838 899 l 1,27,28
 870 851 870 851 888.5 794.5 c 128,-1,29
 907 738 907 738 907 676 c 0,30,31
 907 613 907 613 888.5 557 c 128,-1,32
 870 501 870 501 838 453 c 1,33,-1
 942 350 l 1,34,-1
 842 248 l 1,35,-1
 735 352 l 1,0,1
512 932 m 0,36,37
 460 932 460 932 413.5 912 c 128,-1,38
 367 892 367 892 332.5 857 c 128,-1,39
 298 822 298 822 278 775.5 c 128,-1,40
 258 729 258 729 258 676 c 0,41,42
 258 624 258 624 278 577.5 c 128,-1,43
 298 531 298 531 332.5 496.5 c 128,-1,44
 367 462 367 462 413.5 442 c 128,-1,45
 460 422 460 422 512 422 c 0,46,47
 565 422 565 422 611.5 442 c 128,-1,48
 658 462 658 462 693 496.5 c 128,-1,49
 728 531 728 531 748 577.5 c 128,-1,50
 768 624 768 624 768 676 c 0,51,52
 768 729 768 729 748 775.5 c 128,-1,53
 728 822 728 822 693 857 c 128,-1,54
 658 892 658 892 611.5 912 c 128,-1,55
 565 932 565 932 512 932 c 0,36,37
EndSplineSet
EndChar

StartChar: yen
Encoding: 165 165 102
Width: 1024
Flags: W
LayerCount: 2
Fore
SplineSet
2 1275 m 1,0,-1
 2 1341 l 1,1,-1
 501 1341 l 1,2,-1
 501 1275 l 1,3,-1
 389 1249 l 1,4,-1
 595 709 l 1,5,-1
 807 1251 l 1,6,-1
 697 1275 l 1,7,-1
 697 1341 l 1,8,-1
 1022 1341 l 1,9,-1
 1022 1275 l 1,10,-1
 936 1255 l 1,11,-1
 679 639 l 1,12,-1
 905 639 l 1,13,-1
 905 537 l 1,14,-1
 661 537 l 1,15,-1
 661 399 l 1,16,-1
 905 399 l 1,17,-1
 905 297 l 1,18,-1
 661 297 l 1,19,-1
 661 90 l 1,20,-1
 804 66 l 1,21,-1
 804 0 l 1,22,-1
 230 0 l 1,23,-1
 230 66 l 1,24,-1
 372 90 l 1,25,-1
 372 297 l 1,26,-1
 115 297 l 1,27,-1
 115 399 l 1,28,-1
 372 399 l 1,29,-1
 372 537 l 1,30,-1
 115 537 l 1,31,-1
 115 639 l 1,32,-1
 348 639 l 1,33,-1
 86 1251 l 1,34,-1
 2 1275 l 1,0,-1
EndSplineSet
EndChar

StartChar: brokenbar
Encoding: 166 166 103
Width: 451
Flags: W
LayerCount: 2
Fore
SplineSet
154 801 m 1,0,-1
 154 1421 l 1,1,-1
 296 1421 l 1,2,-1
 296 801 l 1,3,-1
 154 801 l 1,0,-1
154 -442 m 1,4,-1
 154 180 l 1,5,-1
 296 180 l 1,6,-1
 296 -442 l 1,7,-1
 154 -442 l 1,4,-1
EndSplineSet
EndChar

StartChar: section
Encoding: 167 167 104
Width: 1024
Flags: W
LayerCount: 2
Fore
SplineSet
855 42 m 0,0,1
 855 -24 855 -24 832.5 -78.5 c 128,-1,2
 810 -133 810 -133 763.5 -172.5 c 128,-1,3
 717 -212 717 -212 646 -233.5 c 128,-1,4
 575 -255 575 -255 478 -255 c 0,5,6
 430 -255 430 -255 381 -249 c 128,-1,7
 332 -243 332 -243 290 -234.5 c 128,-1,8
 248 -226 248 -226 216.5 -217.5 c 128,-1,9
 185 -209 185 -209 172 -204 c 1,10,-1
 172 57 l 1,11,-1
 238 57 l 1,12,-1
 276 -75 l 1,13,14
 291 -90 291 -90 313 -105.5 c 128,-1,15
 335 -121 335 -121 362 -133.5 c 128,-1,16
 389 -146 389 -146 420 -154 c 128,-1,17
 451 -162 451 -162 484 -162 c 0,18,19
 565 -162 565 -162 609 -124.5 c 128,-1,20
 653 -87 653 -87 653 -29 c 0,21,22
 653 18 653 18 630.5 53 c 128,-1,23
 608 88 608 88 571.5 116.5 c 128,-1,24
 535 145 535 145 488 169.5 c 128,-1,25
 441 194 441 194 391.5 220 c 128,-1,26
 342 246 342 246 295 276 c 128,-1,27
 248 306 248 306 211.5 346 c 128,-1,28
 175 386 175 386 152.5 438 c 128,-1,29
 130 490 130 490 130 560 c 0,30,31
 130 612 130 612 146 656.5 c 128,-1,32
 162 701 162 701 191 735.5 c 128,-1,33
 220 770 220 770 260 795 c 128,-1,34
 300 820 300 820 348 834 c 1,35,36
 311 854 311 854 278.5 879 c 128,-1,37
 246 904 246 904 221.5 937 c 128,-1,38
 197 970 197 970 183 1012.5 c 128,-1,39
 169 1055 169 1055 169 1110 c 0,40,41
 169 1178 169 1178 195.5 1230 c 128,-1,42
 222 1282 222 1282 268 1317.5 c 128,-1,43
 314 1353 314 1353 376 1371.5 c 128,-1,44
 438 1390 438 1390 509 1390 c 0,45,46
 579 1390 579 1390 649.5 1381 c 128,-1,47
 720 1372 720 1372 786 1361 c 1,48,-1
 786 1120 l 1,49,-1
 720 1120 l 1,50,-1
 688 1230 l 1,51,52
 675 1243 675 1243 655 1255 c 128,-1,53
 635 1267 635 1267 610.5 1276 c 128,-1,54
 586 1285 586 1285 559 1290.5 c 128,-1,55
 532 1296 532 1296 507 1296 c 0,56,57
 435 1296 435 1296 400.5 1266.5 c 128,-1,58
 366 1237 366 1237 366 1186 c 0,59,60
 366 1140 366 1140 388.5 1107.5 c 128,-1,61
 411 1075 411 1075 448.5 1050.5 c 128,-1,62
 486 1026 486 1026 533 1005.5 c 128,-1,63
 580 985 580 985 629.5 963 c 128,-1,64
 679 941 679 941 726.5 914.5 c 128,-1,65
 774 888 774 888 811.5 851 c 128,-1,66
 849 814 849 814 871.5 763 c 128,-1,67
 894 712 894 712 894 642 c 0,68,69
 894 591 894 591 880 544 c 128,-1,70
 866 497 866 497 838 458.5 c 128,-1,71
 810 420 810 420 767 390.5 c 128,-1,72
 724 361 724 361 666 344 c 1,73,74
 705 320 705 320 739 291 c 128,-1,75
 773 262 773 262 799 225.5 c 128,-1,76
 825 189 825 189 840 144 c 128,-1,77
 855 99 855 99 855 42 c 0,0,1
692 571 m 0,78,79
 692 612 692 612 675 642 c 128,-1,80
 658 672 658 672 628.5 695.5 c 128,-1,81
 599 719 599 719 561 737.5 c 128,-1,82
 523 756 523 756 481 774 c 1,83,84
 449 770 449 770 421 757 c 128,-1,85
 393 744 393 744 372 724.5 c 128,-1,86
 351 705 351 705 339 682 c 128,-1,87
 327 659 327 659 327 636 c 0,88,89
 327 596 327 596 344.5 564.5 c 128,-1,90
 362 533 362 533 391.5 507 c 128,-1,91
 421 481 421 481 460 458.5 c 128,-1,92
 499 436 499 436 541 414 c 1,93,94
 574 420 574 420 602 435.5 c 128,-1,95
 630 451 630 451 650 473 c 128,-1,96
 670 495 670 495 681 520 c 128,-1,97
 692 545 692 545 692 571 c 0,78,79
EndSplineSet
EndChar

StartChar: dieresis
Encoding: 168 168 105
Width: 682
Flags: W
LayerCount: 2
Fore
SplineSet
510 1130 m 256,0,1
 485 1130 485 1130 463 1140 c 128,-1,2
 441 1150 441 1150 424.5 1166.5 c 128,-1,3
 408 1183 408 1183 398.5 1205 c 128,-1,4
 389 1227 389 1227 389 1251 c 0,5,6
 389 1276 389 1276 398.5 1297.5 c 128,-1,7
 408 1319 408 1319 424.5 1335 c 128,-1,8
 441 1351 441 1351 463 1360.5 c 128,-1,9
 485 1370 485 1370 510 1370 c 256,10,11
 535 1370 535 1370 557 1360.5 c 128,-1,12
 579 1351 579 1351 595 1335 c 128,-1,13
 611 1319 611 1319 620 1297.5 c 128,-1,14
 629 1276 629 1276 629 1251 c 0,15,16
 629 1227 629 1227 620 1205 c 128,-1,17
 611 1183 611 1183 595 1166.5 c 128,-1,18
 579 1150 579 1150 557 1140 c 128,-1,19
 535 1130 535 1130 510 1130 c 256,0,1
174 1130 m 0,20,21
 150 1130 150 1130 128 1140 c 128,-1,22
 106 1150 106 1150 89.5 1166.5 c 128,-1,23
 73 1183 73 1183 63 1205 c 128,-1,24
 53 1227 53 1227 53 1251 c 0,25,26
 53 1276 53 1276 63 1297.5 c 128,-1,27
 73 1319 73 1319 89.5 1335 c 128,-1,28
 106 1351 106 1351 128 1360.5 c 128,-1,29
 150 1370 150 1370 174 1370 c 0,30,31
 199 1370 199 1370 220.5 1360.5 c 128,-1,32
 242 1351 242 1351 258 1335 c 128,-1,33
 274 1319 274 1319 283.5 1297.5 c 128,-1,34
 293 1276 293 1276 293 1251 c 0,35,36
 293 1227 293 1227 284 1205 c 128,-1,37
 275 1183 275 1183 259 1166.5 c 128,-1,38
 243 1150 243 1150 221 1140 c 128,-1,39
 199 1130 199 1130 174 1130 c 0,20,21
EndSplineSet
EndChar

StartChar: copyright
Encoding: 169 169 106
Width: 1530
Flags: W
LayerCount: 2
Fore
SplineSet
88 670 m 0,0,1
 88 766 88 766 112.5 854.5 c 128,-1,2
 137 943 137 943 182 1020 c 128,-1,3
 227 1097 227 1097 289.5 1160 c 128,-1,4
 352 1223 352 1223 429 1268 c 128,-1,5
 506 1313 506 1313 594 1337.5 c 128,-1,6
 682 1362 682 1362 778 1362 c 256,7,8
 874 1362 874 1362 962.5 1337.5 c 128,-1,9
 1051 1313 1051 1313 1128 1268 c 128,-1,10
 1205 1223 1205 1223 1268 1160 c 128,-1,11
 1331 1097 1331 1097 1376 1020 c 128,-1,12
 1421 943 1421 943 1445.5 854.5 c 128,-1,13
 1470 766 1470 766 1470 670 c 256,14,15
 1470 574 1470 574 1445.5 486 c 128,-1,16
 1421 398 1421 398 1376 321 c 128,-1,17
 1331 244 1331 244 1268 181.5 c 128,-1,18
 1205 119 1205 119 1128 74 c 128,-1,19
 1051 29 1051 29 962.5 4.5 c 128,-1,20
 874 -20 874 -20 778 -20 c 0,21,22
 634 -20 634 -20 508.5 34 c 128,-1,23
 383 88 383 88 289.5 181.5 c 128,-1,24
 196 275 196 275 142 400.5 c 128,-1,25
 88 526 88 526 88 670 c 0,0,1
813 254 m 0,26,27
 714 254 714 254 635 282.5 c 128,-1,28
 556 311 556 311 501 364.5 c 128,-1,29
 446 418 446 418 416.5 493.5 c 128,-1,30
 387 569 387 569 387 664 c 0,31,32
 387 772 387 772 416.5 852 c 128,-1,33
 446 932 446 932 501.5 984.5 c 128,-1,34
 557 1037 557 1037 636 1063 c 128,-1,35
 715 1089 715 1089 815 1089 c 0,36,37
 897 1089 897 1089 962.5 1079.5 c 128,-1,38
 1028 1070 1028 1070 1083 1059 c 1,39,-1
 1087 852 l 1,40,-1
 1018 852 l 1,41,-1
 999 957 l 1,42,43
 958 982 958 982 917 995 c 128,-1,44
 876 1008 876 1008 819 1008 c 0,45,46
 753 1008 753 1008 707 989.5 c 128,-1,47
 661 971 661 971 632 930.5 c 128,-1,48
 603 890 603 890 590 824.5 c 128,-1,49
 577 759 577 759 577 666 c 0,50,51
 577 501 577 501 630.5 417.5 c 128,-1,52
 684 334 684 334 813 334 c 0,53,54
 888 334 888 334 932.5 351 c 128,-1,55
 977 368 977 368 1008 393 c 1,56,-1
 1030 512 l 1,57,-1
 1100 512 l 1,58,-1
 1096 293 l 1,59,60
 1070 285 1070 285 1038 278 c 128,-1,61
 1006 271 1006 271 969 265.5 c 128,-1,62
 932 260 932 260 892.5 257 c 128,-1,63
 853 254 853 254 813 254 c 0,26,27
778 1278 m 0,64,65
 653 1278 653 1278 543.5 1230 c 128,-1,66
 434 1182 434 1182 353 1099.5 c 128,-1,67
 272 1017 272 1017 225 906.5 c 128,-1,68
 178 796 178 796 178 670 c 256,69,70
 178 544 178 544 225 433.5 c 128,-1,71
 272 323 272 323 353 240.5 c 128,-1,72
 434 158 434 158 543.5 110.5 c 128,-1,73
 653 63 653 63 778 63 c 0,74,75
 902 63 902 63 1012 110.5 c 128,-1,76
 1122 158 1122 158 1203.5 240.5 c 128,-1,77
 1285 323 1285 323 1332.5 433.5 c 128,-1,78
 1380 544 1380 544 1380 670 c 0,79,80
 1380 754 1380 754 1358.5 831.5 c 128,-1,81
 1337 909 1337 909 1297.5 977 c 128,-1,82
 1258 1045 1258 1045 1203.5 1100 c 128,-1,83
 1149 1155 1149 1155 1082 1195 c 128,-1,84
 1015 1235 1015 1235 938 1256.5 c 128,-1,85
 861 1278 861 1278 778 1278 c 0,64,65
EndSplineSet
EndChar

StartChar: ordfeminine
Encoding: 170 170 107
Width: 614
Flags: W
LayerCount: 2
Fore
SplineSet
323 1362 m 0,0,1
 369 1362 369 1362 408.5 1351 c 128,-1,2
 448 1340 448 1340 477 1318 c 128,-1,3
 506 1296 506 1296 522.5 1263 c 128,-1,4
 539 1230 539 1230 539 1186 c 2,5,-1
 539 850 l 1,6,-1
 595 835 l 1,7,-1
 595 786 l 1,8,-1
 381 786 l 1,9,-1
 374 829 l 1,10,11
 366 821 366 821 352.5 811.5 c 128,-1,12
 339 802 339 802 319.5 794 c 128,-1,13
 300 786 300 786 274.5 780 c 128,-1,14
 249 774 249 774 217 774 c 0,15,16
 164 774 164 774 128 786.5 c 128,-1,17
 92 799 92 799 69.5 821.5 c 128,-1,18
 47 844 47 844 37.5 875 c 128,-1,19
 28 906 28 906 28 942 c 0,20,21
 28 1000 28 1000 51.5 1035.5 c 128,-1,22
 75 1071 75 1071 114 1090.5 c 128,-1,23
 153 1110 153 1110 202.5 1117 c 128,-1,24
 252 1124 252 1124 303 1125 c 2,25,-1
 365 1127 l 1,26,-1
 365 1196 l 2,27,28
 365 1246 365 1246 337.5 1271 c 128,-1,29
 310 1296 310 1296 268 1296 c 0,30,31
 235 1296 235 1296 213.5 1287 c 128,-1,32
 192 1278 192 1278 166 1265 c 1,33,-1
 143 1188 l 1,34,-1
 94 1188 l 1,35,-1
 94 1341 l 1,36,37
 121 1345 121 1345 147.5 1349 c 128,-1,38
 174 1353 174 1353 201.5 1356 c 128,-1,39
 229 1359 229 1359 258.5 1360.5 c 128,-1,40
 288 1362 288 1362 323 1362 c 0,0,1
365 1064 m 1,41,-1
 309 1062 l 2,42,43
 283 1061 283 1061 263 1056 c 128,-1,44
 243 1051 243 1051 229 1038 c 128,-1,45
 215 1025 215 1025 208 1002.5 c 128,-1,46
 201 980 201 980 201 945 c 0,47,48
 201 895 201 895 219.5 875.5 c 128,-1,49
 238 856 238 856 264 856 c 0,50,51
 297 856 297 856 319 863.5 c 128,-1,52
 341 871 341 871 365 883 c 1,53,-1
 365 1064 l 1,41,-1
EndSplineSet
EndChar

StartChar: guillemotleft
Encoding: 171 171 108
Width: 1024
Flags: W
LayerCount: 2
Fore
SplineSet
106 496 m 1,0,-1
 436 852 l 1,1,-1
 537 852 l 1,2,-1
 354 463 l 1,3,-1
 537 74 l 1,4,-1
 436 74 l 1,5,-1
 106 430 l 1,6,-1
 106 496 l 1,0,-1
516 496 m 1,7,-1
 846 852 l 1,8,-1
 946 852 l 1,9,-1
 764 463 l 1,10,-1
 946 74 l 1,11,-1
 846 74 l 1,12,-1
 516 430 l 1,13,-1
 516 496 l 1,7,-1
EndSplineSet
EndChar

StartChar: logicalnot
Encoding: 172 172 109
Width: 1167
Flags: W
LayerCount: 2
Fore
SplineSet
1055 752 m 1,0,-1
 1055 203 l 1,1,-1
 913 203 l 1,2,-1
 913 608 l 1,3,-1
 102 608 l 1,4,-1
 102 752 l 1,5,-1
 1055 752 l 1,0,-1
EndSplineSet
EndChar

StartChar: registered
Encoding: 174 174 110
Width: 1530
Flags: W
LayerCount: 2
Fore
SplineSet
1470 670 m 256,0,1
 1470 574 1470 574 1445.5 486 c 128,-1,2
 1421 398 1421 398 1376 321 c 128,-1,3
 1331 244 1331 244 1268 181.5 c 128,-1,4
 1205 119 1205 119 1128 74 c 128,-1,5
 1051 29 1051 29 962.5 4.5 c 128,-1,6
 874 -20 874 -20 778 -20 c 0,7,8
 634 -20 634 -20 508.5 34 c 128,-1,9
 383 88 383 88 289.5 181.5 c 128,-1,10
 196 275 196 275 142 400.5 c 128,-1,11
 88 526 88 526 88 670 c 0,12,13
 88 766 88 766 112.5 854.5 c 128,-1,14
 137 943 137 943 182 1020 c 128,-1,15
 227 1097 227 1097 289.5 1160 c 128,-1,16
 352 1223 352 1223 429 1268 c 128,-1,17
 506 1313 506 1313 594 1337.5 c 128,-1,18
 682 1362 682 1362 778 1362 c 256,19,20
 874 1362 874 1362 962.5 1337.5 c 128,-1,21
 1051 1313 1051 1313 1128 1268 c 128,-1,22
 1205 1223 1205 1223 1268 1160 c 128,-1,23
 1331 1097 1331 1097 1376 1020 c 128,-1,24
 1421 943 1421 943 1445.5 854.5 c 128,-1,25
 1470 766 1470 766 1470 670 c 256,0,1
967 276 m 1,26,-1
 737 619 l 1,27,-1
 688 619 l 1,28,-1
 688 350 l 1,29,-1
 782 334 l 1,30,-1
 782 276 l 1,31,-1
 436 276 l 1,32,-1
 436 334 l 1,33,-1
 512 350 l 1,34,-1
 512 1010 l 1,35,-1
 428 1026 l 1,36,-1
 428 1081 l 1,37,-1
 778 1081 l 2,38,39
 862 1081 862 1081 921.5 1065 c 128,-1,40
 981 1049 981 1049 1019.5 1019.5 c 128,-1,41
 1058 990 1058 990 1076 949.5 c 128,-1,42
 1094 909 1094 909 1094 860 c 0,43,44
 1094 783 1094 783 1048.5 725 c 128,-1,45
 1003 667 1003 667 915 639 c 1,46,-1
 1122 350 l 1,47,-1
 1192 334 l 1,48,-1
 1192 276 l 1,49,-1
 967 276 l 1,26,-1
911 858 m 0,50,51
 911 906 911 906 898 935 c 128,-1,52
 885 964 885 964 859.5 979.5 c 128,-1,53
 834 995 834 995 796 1000.5 c 128,-1,54
 758 1006 758 1006 707 1006 c 2,55,-1
 688 1006 l 1,56,-1
 688 694 l 1,57,-1
 711 694 l 2,58,59
 815 694 815 694 863 730 c 128,-1,60
 911 766 911 766 911 858 c 0,50,51
778 1278 m 0,61,62
 653 1278 653 1278 543.5 1230 c 128,-1,63
 434 1182 434 1182 353 1099.5 c 128,-1,64
 272 1017 272 1017 225 906.5 c 128,-1,65
 178 796 178 796 178 670 c 256,66,67
 178 544 178 544 225 433.5 c 128,-1,68
 272 323 272 323 353 240.5 c 128,-1,69
 434 158 434 158 543.5 110.5 c 128,-1,70
 653 63 653 63 778 63 c 0,71,72
 902 63 902 63 1012 110.5 c 128,-1,73
 1122 158 1122 158 1203.5 240.5 c 128,-1,74
 1285 323 1285 323 1332.5 433.5 c 128,-1,75
 1380 544 1380 544 1380 670 c 0,76,77
 1380 754 1380 754 1358.5 831.5 c 128,-1,78
 1337 909 1337 909 1297.5 977 c 128,-1,79
 1258 1045 1258 1045 1203.5 1100 c 128,-1,80
 1149 1155 1149 1155 1082 1195 c 128,-1,81
 1015 1235 1015 1235 938 1256.5 c 128,-1,82
 861 1278 861 1278 778 1278 c 0,61,62
EndSplineSet
EndChar

StartChar: macron
Encoding: 175 175 111
Width: 1024
Flags: W
LayerCount: 2
Fore
SplineSet
1042 1392 m 1,0,-1
 -17 1392 l 1,1,-1
 -17 1541 l 1,2,-1
 1042 1541 l 1,3,-1
 1042 1392 l 1,0,-1
EndSplineSet
EndChar

StartChar: degree
Encoding: 176 176 112
Width: 819
Flags: W
LayerCount: 2
Fore
SplineSet
98 1051 m 0,0,1
 98 1115 98 1115 122 1172 c 128,-1,2
 146 1229 146 1229 188 1271 c 128,-1,3
 230 1313 230 1313 286.5 1337.5 c 128,-1,4
 343 1362 343 1362 408 1362 c 0,5,6
 472 1362 472 1362 529 1337.5 c 128,-1,7
 586 1313 586 1313 628 1271 c 128,-1,8
 670 1229 670 1229 694.5 1172 c 128,-1,9
 719 1115 719 1115 719 1051 c 0,10,11
 719 986 719 986 694.5 929.5 c 128,-1,12
 670 873 670 873 628 831 c 128,-1,13
 586 789 586 789 529 765 c 128,-1,14
 472 741 472 741 408 741 c 0,15,16
 343 741 343 741 286.5 765 c 128,-1,17
 230 789 230 789 188 831 c 128,-1,18
 146 873 146 873 122 929.5 c 128,-1,19
 98 986 98 986 98 1051 c 0,0,1
407 1250 m 0,20,21
 367 1250 367 1250 332 1234.5 c 128,-1,22
 297 1219 297 1219 271.5 1192 c 128,-1,23
 246 1165 246 1165 231.5 1128.5 c 128,-1,24
 217 1092 217 1092 217 1049 c 0,25,26
 217 1008 217 1008 231.5 972 c 128,-1,27
 246 936 246 936 271.5 909 c 128,-1,28
 297 882 297 882 332 866 c 128,-1,29
 367 850 367 850 407 850 c 0,30,31
 449 850 449 850 484 866 c 128,-1,32
 519 882 519 882 544.5 909 c 128,-1,33
 570 936 570 936 584.5 972 c 128,-1,34
 599 1008 599 1008 599 1049 c 0,35,36
 599 1092 599 1092 584.5 1128.5 c 128,-1,37
 570 1165 570 1165 544.5 1192 c 128,-1,38
 519 1219 519 1219 484 1234.5 c 128,-1,39
 449 1250 449 1250 407 1250 c 0,20,21
EndSplineSet
EndChar

StartChar: plusminus
Encoding: 177 177 113
Width: 1124
Flags: W
LayerCount: 2
Fore
SplineSet
633 608 m 1,0,-1
 633 203 l 1,1,-1
 490 203 l 1,2,-1
 490 608 l 1,3,-1
 86 608 l 1,4,-1
 86 752 l 1,5,-1
 490 752 l 1,6,-1
 490 1157 l 1,7,-1
 633 1157 l 1,8,-1
 633 752 l 1,9,-1
 1039 752 l 1,10,-1
 1039 608 l 1,11,-1
 633 608 l 1,0,-1
1039 141 m 1,12,-1
 1039 0 l 1,13,-1
 86 0 l 1,14,-1
 86 141 l 1,15,-1
 1039 141 l 1,12,-1
EndSplineSet
EndChar

StartChar: uni00B2
Encoding: 178 178 114
Width: 614
Flags: W
LayerCount: 2
Fore
SplineSet
566 536 m 1,0,-1
 56 536 l 1,1,-1
 56 649 l 1,2,3
 133 732 133 732 192 790 c 128,-1,4
 251 848 251 848 291 900 c 128,-1,5
 331 952 331 952 351.5 1008 c 128,-1,6
 372 1064 372 1064 372 1143 c 0,7,8
 372 1179 372 1179 363.5 1205 c 128,-1,9
 355 1231 355 1231 340 1247 c 128,-1,10
 325 1263 325 1263 304.5 1270.5 c 128,-1,11
 284 1278 284 1278 261 1278 c 0,12,13
 208 1278 208 1278 171 1247 c 1,14,-1
 145 1131 l 1,15,-1
 83 1131 l 1,16,-1
 83 1324 l 1,17,18
 131 1335 131 1335 176.5 1342.5 c 128,-1,19
 222 1350 222 1350 276 1350 c 0,20,21
 409 1350 409 1350 479.5 1295 c 128,-1,22
 550 1240 550 1240 550 1140 c 0,23,24
 550 1092 550 1092 540 1053.5 c 128,-1,25
 530 1015 530 1015 510.5 981.5 c 128,-1,26
 491 948 491 948 461 916 c 128,-1,27
 431 884 431 884 391 848.5 c 128,-1,28
 351 813 351 813 301 771.5 c 128,-1,29
 251 730 251 730 191 677 c 1,30,-1
 566 677 l 1,31,-1
 566 536 l 1,0,-1
EndSplineSet
EndChar

StartChar: uni00B3
Encoding: 179 179 115
Width: 614
Flags: W
LayerCount: 2
Fore
SplineSet
571 754 m 0,0,1
 571 645 571 645 494 584 c 128,-1,2
 417 523 417 523 274 523 c 0,3,4
 213 523 213 523 156 529.5 c 128,-1,5
 99 536 99 536 52 547 c 1,6,-1
 45 752 l 1,7,-1
 110 752 l 1,8,-1
 142 620 l 1,9,10
 161 609 161 609 186.5 601.5 c 128,-1,11
 212 594 212 594 241 594 c 0,12,13
 320 594 320 594 355 638 c 128,-1,14
 390 682 390 682 390 760 c 0,15,16
 390 803 390 803 379 831.5 c 128,-1,17
 368 860 368 860 349.5 876.5 c 128,-1,18
 331 893 331 893 305.5 900.5 c 128,-1,19
 280 908 280 908 251 910 c 2,20,-1
 187 914 l 1,21,-1
 187 997 l 1,22,-1
 249 1001 l 2,23,24
 303 1005 303 1005 328 1038 c 128,-1,25
 353 1071 353 1071 353 1143 c 0,26,27
 353 1217 353 1217 323 1247 c 128,-1,28
 293 1277 293 1277 242 1277 c 0,29,30
 216 1277 216 1277 197.5 1269 c 128,-1,31
 179 1261 179 1261 160 1249 c 1,32,-1
 134 1130 l 1,33,-1
 72 1130 l 1,34,-1
 72 1323 l 1,35,36
 115 1334 115 1334 159.5 1341.5 c 128,-1,37
 204 1349 204 1349 265 1349 c 0,38,39
 398 1349 398 1349 466.5 1300 c 128,-1,40
 535 1251 535 1251 535 1151 c 0,41,42
 535 1075 535 1075 495.5 1022.5 c 128,-1,43
 456 970 456 970 369 956 c 1,44,45
 473 943 473 943 522 893.5 c 128,-1,46
 571 844 571 844 571 754 c 0,0,1
EndSplineSet
EndChar

StartChar: acute
Encoding: 180 180 116
Width: 682
Flags: W
LayerCount: 2
Fore
SplineSet
145 1118 m 1,0,-1
 145 1151 l 1,1,-1
 311 1423 l 1,2,-1
 596 1423 l 1,3,-1
 596 1386 l 1,4,-1
 231 1118 l 1,5,-1
 145 1118 l 1,0,-1
EndSplineSet
EndChar

StartChar: uni00B5
Encoding: 181 181 117
Width: 1180
Flags: W
LayerCount: 2
Fore
SplineSet
768 92 m 1,0,1
 748 72 748 72 725 52 c 128,-1,2
 702 32 702 32 674.5 16 c 128,-1,3
 647 0 647 0 615 -10 c 128,-1,4
 583 -20 583 -20 544 -20 c 0,5,6
 494 -20 494 -20 460 -6.5 c 128,-1,7
 426 7 426 7 400 32 c 1,8,9
 400 -3 400 -3 398.5 -60 c 128,-1,10
 397 -117 397 -117 395 -182 c 128,-1,11
 393 -247 393 -247 391 -314 c 128,-1,12
 389 -381 389 -381 387 -436 c 1,13,-1
 105 -436 l 1,14,-1
 105 -391 l 1,15,16
 116 -272 116 -272 122.5 -149.5 c 128,-1,17
 129 -27 129 -27 129 103 c 2,18,-1
 129 849 l 1,19,-1
 35 874 l 1,20,-1
 35 940 l 1,21,-1
 418 940 l 1,22,-1
 418 288 l 2,23,24
 418 197 418 197 456 155.5 c 128,-1,25
 494 114 494 114 573 114 c 0,26,27
 604 114 604 114 631 121 c 128,-1,28
 658 128 658 128 681.5 139 c 128,-1,29
 705 150 705 150 725 164 c 128,-1,30
 745 178 745 178 763 193 c 1,31,-1
 763 849 l 1,32,-1
 677 874 l 1,33,-1
 677 940 l 1,34,-1
 1052 940 l 1,35,-1
 1052 90 l 1,36,-1
 1144 65 l 1,37,-1
 1144 0 l 1,38,-1
 787 0 l 1,39,-1
 768 92 l 1,0,1
EndSplineSet
EndChar

StartChar: paragraph
Encoding: 182 182 118
Width: 1106
Flags: W
LayerCount: 2
Fore
SplineSet
936 1245 m 1,0,-1
 936 -258 l 1,1,-1
 796 -258 l 1,2,-1
 796 1245 l 1,3,-1
 661 1245 l 1,4,-1
 661 -258 l 1,5,-1
 521 -258 l 1,6,-1
 521 545 l 1,7,8
 434 548 434 548 356.5 574.5 c 128,-1,9
 279 601 279 601 221.5 651 c 128,-1,10
 164 701 164 701 130.5 776 c 128,-1,11
 97 851 97 851 97 952 c 0,12,13
 97 1042 97 1042 124.5 1114 c 128,-1,14
 152 1186 152 1186 206.5 1236.5 c 128,-1,15
 261 1287 261 1287 342.5 1314 c 128,-1,16
 424 1341 424 1341 531 1341 c 2,17,-1
 1019 1341 l 1,18,-1
 1019 1268 l 1,19,-1
 936 1245 l 1,0,-1
EndSplineSet
EndChar

StartChar: uni2219
Encoding: 8729 8729 119
AltUni2: 0000b7.ffffffff.0 0000b7.ffffffff.0 0000b7.ffffffff.0
Width: 512
Flags: W
LayerCount: 2
Fore
SplineSet
256 511 m 0,0,1
 221 511 221 511 191 524 c 128,-1,2
 161 537 161 537 138.5 559.5 c 128,-1,3
 116 582 116 582 103 612 c 128,-1,4
 90 642 90 642 90 677 c 0,5,6
 90 711 90 711 103 741.5 c 128,-1,7
 116 772 116 772 138.5 794.5 c 128,-1,8
 161 817 161 817 191 830 c 128,-1,9
 221 843 221 843 256 843 c 0,10,11
 290 843 290 843 320.5 830 c 128,-1,12
 351 817 351 817 373.5 794.5 c 128,-1,13
 396 772 396 772 409 741.5 c 128,-1,14
 422 711 422 711 422 677 c 0,15,16
 422 642 422 642 409 612 c 128,-1,17
 396 582 396 582 373.5 559.5 c 128,-1,18
 351 537 351 537 320.5 524 c 128,-1,19
 290 511 290 511 256 511 c 0,0,1
EndSplineSet
EndChar

StartChar: cedilla
Encoding: 184 184 120
Width: 682
Flags: W
LayerCount: 2
Fore
SplineSet
283 -422 m 0,0,1
 245 -422 245 -422 201 -414 c 128,-1,2
 157 -406 157 -406 123 -391 c 1,3,-1
 123 -301 l 1,4,5
 157 -310 157 -310 195 -315 c 128,-1,6
 233 -320 233 -320 258 -320 c 0,7,8
 309 -320 309 -320 329.5 -295 c 128,-1,9
 350 -270 350 -270 350 -234 c 0,10,11
 350 -190 350 -190 319 -166.5 c 128,-1,12
 288 -143 288 -143 219 -138 c 1,13,-1
 270 57 l 1,14,-1
 381 57 l 1,15,-1
 358 -53 l 1,16,17
 399 -59 399 -59 433 -71 c 128,-1,18
 467 -83 467 -83 491.5 -103.5 c 128,-1,19
 516 -124 516 -124 529.5 -153 c 128,-1,20
 543 -182 543 -182 543 -221 c 0,21,22
 543 -271 543 -271 523 -308.5 c 128,-1,23
 503 -346 503 -346 468 -371 c 128,-1,24
 433 -396 433 -396 385.5 -409 c 128,-1,25
 338 -422 338 -422 283 -422 c 0,0,1
EndSplineSet
EndChar

StartChar: uni00B9
Encoding: 185 185 121
Width: 614
Flags: W
LayerCount: 2
Fore
SplineSet
393 616 m 1,0,-1
 533 602 l 1,1,-1
 533 535 l 1,2,-1
 76 535 l 1,3,-1
 76 602 l 1,4,-1
 215 616 l 1,5,-1
 215 1193 l 1,6,-1
 76 1147 l 1,7,-1
 76 1213 l 1,8,-1
 303 1347 l 1,9,-1
 393 1347 l 1,10,-1
 393 616 l 1,0,-1
EndSplineSet
EndChar

StartChar: ordmasculine
Encoding: 186 186 122
Width: 676
Flags: W
LayerCount: 2
Fore
SplineSet
618 1067 m 0,0,1
 618 923 618 923 547.5 846.5 c 128,-1,2
 477 770 477 770 334 770 c 0,3,4
 199 770 199 770 128 845.5 c 128,-1,5
 57 921 57 921 57 1067 c 0,6,7
 57 1211 57 1211 128 1286 c 128,-1,8
 199 1361 199 1361 338 1361 c 0,9,10
 473 1361 473 1361 545.5 1287 c 128,-1,11
 618 1213 618 1213 618 1067 c 0,0,1
442 1067 m 0,12,13
 442 1184 442 1184 415 1237 c 128,-1,14
 388 1290 388 1290 335 1290 c 256,15,16
 282 1290 282 1290 257.5 1237 c 128,-1,17
 233 1184 233 1184 233 1067 c 0,18,19
 233 949 233 949 257.5 894.5 c 128,-1,20
 282 840 282 840 335 840 c 0,21,22
 389 840 389 840 415.5 894.5 c 128,-1,23
 442 949 442 949 442 1067 c 0,12,13
EndSplineSet
EndChar

StartChar: guillemotright
Encoding: 187 187 123
Width: 1024
Flags: W
LayerCount: 2
Fore
SplineSet
918 430 m 1,0,-1
 588 74 l 1,1,-1
 487 74 l 1,2,-1
 670 463 l 1,3,-1
 487 852 l 1,4,-1
 588 852 l 1,5,-1
 918 496 l 1,6,-1
 918 430 l 1,0,-1
508 430 m 1,7,-1
 178 74 l 1,8,-1
 78 74 l 1,9,-1
 260 463 l 1,10,-1
 78 852 l 1,11,-1
 178 852 l 1,12,-1
 508 496 l 1,13,-1
 508 430 l 1,7,-1
EndSplineSet
EndChar

StartChar: questiondown
Encoding: 191 191 127
Width: 1024
Flags: W
LayerCount: 2
Fore
SplineSet
581 961 m 256,0,1
 616 961 616 961 646.5 948 c 128,-1,2
 677 935 677 935 699 912.5 c 128,-1,3
 721 890 721 890 733.5 859.5 c 128,-1,4
 746 829 746 829 746 795 c 0,5,6
 746 760 746 760 733.5 730 c 128,-1,7
 721 700 721 700 699 677.5 c 128,-1,8
 677 655 677 655 646.5 642 c 128,-1,9
 616 629 616 629 581 629 c 256,10,11
 546 629 546 629 516 642 c 128,-1,12
 486 655 486 655 463.5 677.5 c 128,-1,13
 441 700 441 700 428 730 c 128,-1,14
 415 760 415 760 415 795 c 0,15,16
 415 829 415 829 428 859.5 c 128,-1,17
 441 890 441 890 463.5 912.5 c 128,-1,18
 486 935 486 935 516 948 c 128,-1,19
 546 961 546 961 581 961 c 256,0,1
535 542 m 1,20,-1
 638 542 l 1,21,-1
 695 229 l 1,22,-1
 600 204 l 2,23,24
 562 194 562 194 528 177.5 c 128,-1,25
 494 161 494 161 468.5 131 c 128,-1,26
 443 101 443 101 428 54.5 c 128,-1,27
 413 8 413 8 413 -62 c 0,28,29
 413 -133 413 -133 425 -182 c 128,-1,30
 437 -231 437 -231 462.5 -262.5 c 128,-1,31
 488 -294 488 -294 527 -308 c 128,-1,32
 566 -322 566 -322 621 -322 c 0,33,34
 669 -322 669 -322 705.5 -310 c 128,-1,35
 742 -298 742 -298 770 -280 c 1,36,-1
 813 -86 l 1,37,-1
 902 -86 l 1,38,-1
 902 -381 l 1,39,40
 825 -401 825 -401 747.5 -412.5 c 128,-1,41
 670 -424 670 -424 578 -424 c 0,42,43
 353 -424 353 -424 238.5 -335.5 c 128,-1,44
 124 -247 124 -247 124 -69 c 0,45,46
 124 -2 124 -2 142 59 c 128,-1,47
 160 120 160 120 197 170 c 128,-1,48
 234 220 234 220 290 257.5 c 128,-1,49
 346 295 346 295 421 316 c 2,50,-1
 508 340 l 1,51,-1
 535 542 l 1,20,-1
EndSplineSet
EndChar

StartChar: AE
Encoding: 198 198 134
Width: 2048
Flags: W
LayerCount: 2
Fore
SplineSet
827 1252 m 1,0,-1
 684 1270 l 1,1,-1
 684 1341 l 1,2,-1
 1858 1341 l 1,3,-1
 1858 1000 l 1,4,-1
 1767 1000 l 1,5,-1
 1735 1217 l 1,6,7
 1703 1221 1703 1221 1667 1224 c 128,-1,8
 1631 1227 1631 1227 1595 1228.5 c 128,-1,9
 1559 1230 1559 1230 1526.5 1230.5 c 128,-1,10
 1494 1231 1494 1231 1471 1231 c 2,11,-1
 1271 1231 l 1,12,-1
 1271 739 l 1,13,-1
 1554 739 l 1,14,-1
 1585 887 l 1,15,-1
 1674 887 l 1,16,-1
 1674 475 l 1,17,-1
 1585 475 l 1,18,-1
 1554 627 l 1,19,-1
 1271 627 l 1,20,-1
 1271 110 l 1,21,-1
 1516 110 l 2,22,23
 1578 110 1578 110 1623.5 111.5 c 128,-1,24
 1669 113 1669 113 1702 115 c 128,-1,25
 1735 117 1735 117 1757 120 c 128,-1,26
 1779 123 1779 123 1794 126 c 1,27,-1
 1851 374 l 1,28,-1
 1942 374 l 1,29,-1
 1923 0 l 1,30,-1
 784 0 l 1,31,-1
 784 73 l 1,32,-1
 956 100 l 1,33,-1
 956 447 l 1,34,-1
 495 447 l 1,35,-1
 290 100 l 1,36,-1
 442 73 l 1,37,-1
 442 0 l 1,38,-1
 14 0 l 1,39,-1
 14 73 l 1,40,-1
 136 100 l 1,41,-1
 827 1252 l 1,0,-1
956 557 m 1,42,-1
 956 1236 l 1,43,-1
 560 557 l 1,44,-1
 956 557 l 1,42,-1
EndSplineSet
EndChar

StartChar: Eth
Encoding: 208 208 144
Width: 1479
Flags: W
LayerCount: 2
Fore
SplineSet
695 1341 m 2,0,1
 857 1341 857 1341 987.5 1306.5 c 128,-1,2
 1118 1272 1118 1272 1210 1194 c 128,-1,3
 1302 1116 1302 1116 1351.5 989.5 c 128,-1,4
 1401 863 1401 863 1401 678 c 0,5,6
 1401 514 1401 514 1363 387 c 128,-1,7
 1325 260 1325 260 1244 173 c 128,-1,8
 1163 86 1163 86 1037.5 41 c 128,-1,9
 912 -4 912 -4 737 -4 c 0,10,11
 680 -4 680 -4 617 -3.5 c 128,-1,12
 554 -3 554 -3 494 -2 c 128,-1,13
 434 -1 434 -1 380.5 -0.5 c 128,-1,14
 327 0 327 0 288 0 c 2,15,-1
 80 0 l 1,16,-1
 80 73 l 1,17,-1
 230 100 l 1,18,-1
 230 609 l 1,19,-1
 51 609 l 1,20,-1
 51 731 l 1,21,-1
 230 731 l 1,22,-1
 230 1242 l 1,23,-1
 58 1268 l 1,24,-1
 58 1341 l 1,25,-1
 695 1341 l 2,0,1
1069 670 m 0,26,27
 1069 827 1069 827 1039.5 934.5 c 128,-1,28
 1010 1042 1010 1042 953 1108 c 128,-1,29
 896 1174 896 1174 812 1202.5 c 128,-1,30
 728 1231 728 1231 618 1231 c 2,31,-1
 544 1231 l 1,32,-1
 544 731 l 1,33,-1
 800 731 l 1,34,-1
 800 609 l 1,35,-1
 544 609 l 1,36,-1
 544 114 l 1,37,38
 568 112 568 112 587.5 111 c 128,-1,39
 607 110 607 110 626.5 108.5 c 128,-1,40
 646 107 646 107 667.5 106.5 c 128,-1,41
 689 106 689 106 718 106 c 0,42,43
 818 106 818 106 885 138.5 c 128,-1,44
 952 171 952 171 993 240 c 128,-1,45
 1034 309 1034 309 1051.5 415.5 c 128,-1,46
 1069 522 1069 522 1069 670 c 0,26,27
EndSplineSet
EndChar

StartChar: multiply
Encoding: 215 215 151
Width: 1167
Flags: W
LayerCount: 2
Fore
SplineSet
578 578 m 1,0,-1
 253 254 l 1,1,-1
 152 356 l 1,2,-1
 476 682 l 1,3,-1
 152 1004 l 1,4,-1
 256 1108 l 1,5,-1
 578 784 l 1,6,-1
 904 1108 l 1,7,-1
 1005 1006 l 1,8,-1
 681 682 l 1,9,-1
 1005 356 l 1,10,-1
 904 254 l 1,11,-1
 578 578 l 1,0,-1
EndSplineSet
EndChar

StartChar: Oslash
Encoding: 216 216 152
Width: 1593
Flags: W
LayerCount: 2
Fore
SplineSet
291 144 m 1,0,1
 198 229 198 229 149 359.5 c 128,-1,2
 100 490 100 490 100 672 c 0,3,4
 100 850 100 850 146 979 c 128,-1,5
 192 1108 192 1108 281 1192 c 128,-1,6
 370 1276 370 1276 499.5 1316 c 128,-1,7
 629 1356 629 1356 797 1356 c 0,8,9
 922 1356 922 1356 1026 1332.5 c 128,-1,10
 1130 1309 1130 1309 1213 1261 c 1,11,-1
 1321 1391 l 1,12,-1
 1466 1391 l 1,13,-1
 1304 1194 l 1,14,15
 1396 1110 1396 1110 1444.5 981 c 128,-1,16
 1493 852 1493 852 1493 672 c 0,17,18
 1493 494 1493 494 1445 363.5 c 128,-1,19
 1397 233 1397 233 1307 148 c 128,-1,20
 1217 63 1217 63 1088 21.5 c 128,-1,21
 959 -20 959 -20 797 -20 c 0,22,23
 673 -20 673 -20 570 3.5 c 128,-1,24
 467 27 467 27 383 75 c 1,25,-1
 276 -55 l 1,26,-1
 127 -55 l 1,27,-1
 291 144 l 1,0,1
432 672 m 0,28,29
 432 578 432 578 439 498.5 c 128,-1,30
 446 419 446 419 463 353 c 1,31,-1
 1084 1104 l 1,32,33
 1042 1178 1042 1178 972.5 1216.5 c 128,-1,34
 903 1255 903 1255 797 1255 c 256,35,36
 691 1255 691 1255 620.5 1216 c 128,-1,37
 550 1177 550 1177 508 1103 c 128,-1,38
 466 1029 466 1029 449 920 c 128,-1,39
 432 811 432 811 432 672 c 0,28,29
1161 672 m 0,40,41
 1161 763 1161 763 1154 841 c 128,-1,42
 1147 919 1147 919 1130 983 c 1,43,-1
 511 231 l 1,44,45
 553 157 553 157 622.5 118.5 c 128,-1,46
 692 80 692 80 797 80 c 0,47,48
 903 80 903 80 973 120 c 128,-1,49
 1043 160 1043 160 1085 236 c 128,-1,50
 1127 312 1127 312 1144 422 c 128,-1,51
 1161 532 1161 532 1161 672 c 0,40,41
EndSplineSet
EndChar

StartChar: Thorn
Encoding: 222 222 158
Width: 1251
Flags: W
LayerCount: 2
Fore
SplineSet
530 100 m 1,0,-1
 702 74 l 1,1,-1
 702 0 l 1,2,-1
 43 0 l 1,3,-1
 43 74 l 1,4,-1
 215 100 l 1,5,-1
 215 1241 l 1,6,-1
 43 1268 l 1,7,-1
 43 1341 l 1,8,-1
 702 1341 l 1,9,-1
 702 1268 l 1,10,-1
 530 1241 l 1,11,-1
 530 1083 l 1,12,-1
 586 1083 l 2,13,14
 754 1083 754 1083 863.5 1052.5 c 128,-1,15
 973 1022 973 1022 1037.5 968.5 c 128,-1,16
 1102 915 1102 915 1127.5 843 c 128,-1,17
 1153 771 1153 771 1153 688 c 0,18,19
 1153 606 1153 606 1131.5 530 c 128,-1,20
 1110 454 1110 454 1054.5 396 c 128,-1,21
 999 338 999 338 904 303 c 128,-1,22
 809 268 809 268 663 268 c 2,23,-1
 530 268 l 1,24,-1
 530 100 l 1,0,-1
831 686 m 0,25,26
 831 766 831 766 817 821 c 128,-1,27
 803 876 803 876 771.5 909.5 c 128,-1,28
 740 943 740 943 688.5 958 c 128,-1,29
 637 973 637 973 562 973 c 2,30,-1
 530 973 l 1,31,-1
 530 378 l 1,32,-1
 566 378 l 2,33,34
 642 378 642 378 692.5 397.5 c 128,-1,35
 743 417 743 417 774 455.5 c 128,-1,36
 805 494 805 494 818 551.5 c 128,-1,37
 831 609 831 609 831 686 c 0,25,26
EndSplineSet
EndChar

StartChar: germandbls
Encoding: 223 223 159
Width: 1139
Flags: W
LayerCount: 2
Fore
SplineSet
537 785 m 0,0,1
 537 836 537 836 550.5 877.5 c 128,-1,2
 564 919 564 919 587 952 c 128,-1,3
 610 985 610 985 640.5 1008.5 c 128,-1,4
 671 1032 671 1032 706 1046 c 1,5,6
 700 1195 700 1195 665 1268 c 128,-1,7
 630 1341 630 1341 552 1341 c 0,8,9
 508 1341 508 1341 481 1317 c 128,-1,10
 454 1293 454 1293 439 1244 c 128,-1,11
 424 1195 424 1195 419 1122 c 128,-1,12
 414 1049 414 1049 414 952 c 2,13,-1
 414 0 l 1,14,-1
 43 0 l 1,15,-1
 43 66 l 1,16,-1
 125 90 l 1,17,-1
 125 952 l 2,18,19
 125 1071 125 1071 149.5 1162.5 c 128,-1,20
 174 1254 174 1254 226.5 1316 c 128,-1,21
 279 1378 279 1378 361 1410 c 128,-1,22
 443 1442 443 1442 558 1442 c 0,23,24
 773 1442 773 1442 881 1326.5 c 128,-1,25
 989 1211 989 1211 995 985 c 1,26,27
 949 985 949 985 910.5 977 c 128,-1,28
 872 969 872 969 844.5 951.5 c 128,-1,29
 817 934 817 934 801.5 907 c 128,-1,30
 786 880 786 880 786 841 c 0,31,32
 786 794 786 794 803 754.5 c 128,-1,33
 820 715 820 715 848.5 679 c 128,-1,34
 877 643 877 643 913 606.5 c 128,-1,35
 949 570 949 570 987 529 c 0,36,37
 1007 507 1007 507 1025.5 482 c 128,-1,38
 1044 457 1044 457 1058 426.5 c 128,-1,39
 1072 396 1072 396 1080 359 c 128,-1,40
 1088 322 1088 322 1088 277 c 0,41,42
 1088 211 1088 211 1065.5 156.5 c 128,-1,43
 1043 102 1043 102 998.5 62.5 c 128,-1,44
 954 23 954 23 889 1.5 c 128,-1,45
 824 -20 824 -20 740 -20 c 0,46,47
 700 -20 700 -20 662.5 -16 c 128,-1,48
 625 -12 625 -12 592.5 -6 c 128,-1,49
 560 0 560 0 535 7 c 128,-1,50
 510 14 510 14 496 21 c 1,51,-1
 496 269 l 1,52,-1
 562 269 l 1,53,-1
 600 127 l 1,54,55
 624 97 624 97 653.5 84 c 128,-1,56
 683 71 683 71 721 73 c 0,57,58
 746 74 746 74 766.5 85.5 c 128,-1,59
 787 97 787 97 802 116.5 c 128,-1,60
 817 136 817 136 825.5 161.5 c 128,-1,61
 834 187 834 187 834 216 c 0,62,63
 834 267 834 267 814 305.5 c 128,-1,64
 794 344 794 344 764 378.5 c 128,-1,65
 734 413 734 413 698 448 c 128,-1,66
 662 483 662 483 630 526 c 0,67,68
 613 548 613 548 596.5 573 c 128,-1,69
 580 598 580 598 567 628.5 c 128,-1,70
 554 659 554 659 545.5 697 c 128,-1,71
 537 735 537 735 537 785 c 0,0,1
EndSplineSet
EndChar

StartChar: ae
Encoding: 230 230 166
Width: 1479
Flags: W
LayerCount: 2
Fore
SplineSet
988 965 m 0,0,1
 1072 965 1072 965 1147 944.5 c 128,-1,2
 1222 924 1222 924 1278.5 875.5 c 128,-1,3
 1335 827 1335 827 1368 746 c 128,-1,4
 1401 665 1401 665 1401 544 c 2,5,-1
 1401 462 l 1,6,-1
 878 462 l 1,7,-1
 878 409 l 1,8,9
 879 353 879 353 888 298.5 c 128,-1,10
 897 244 897 244 925.5 201 c 128,-1,11
 954 158 954 158 1007 131.5 c 128,-1,12
 1060 105 1060 105 1149 105 c 0,13,14
 1174 105 1174 105 1202 107.5 c 128,-1,15
 1230 110 1230 110 1258 114 c 128,-1,16
 1286 118 1286 118 1312 123 c 128,-1,17
 1338 128 1338 128 1360 134 c 1,18,-1
 1360 57 l 1,19,20
 1339 43 1339 43 1307.5 29 c 128,-1,21
 1276 15 1276 15 1238 4.5 c 128,-1,22
 1200 -6 1200 -6 1157 -12.5 c 128,-1,23
 1114 -19 1114 -19 1070 -19 c 0,24,25
 934 -19 934 -19 848.5 12.5 c 128,-1,26
 763 44 763 44 710 105 c 1,27,28
 681 82 681 82 645.5 59.5 c 128,-1,29
 610 37 610 37 565.5 19.5 c 128,-1,30
 521 2 521 2 468.5 -9 c 128,-1,31
 416 -20 416 -20 355 -20 c 0,32,33
 272 -20 272 -20 216.5 1 c 128,-1,34
 161 22 161 22 127.5 59.5 c 128,-1,35
 94 97 94 97 80 148.5 c 128,-1,36
 66 200 66 200 66 260 c 0,37,38
 66 325 66 325 83 372 c 128,-1,39
 100 419 100 419 130.5 451.5 c 128,-1,40
 161 484 161 484 202.5 504 c 128,-1,41
 244 524 244 524 292.5 535.5 c 128,-1,42
 341 547 341 547 394.5 551.5 c 128,-1,43
 448 556 448 556 503 558 c 2,44,-1
 602 561 l 1,45,-1
 602 696 l 2,46,47
 602 734 602 734 595.5 765.5 c 128,-1,48
 589 797 589 797 573 820 c 128,-1,49
 557 843 557 843 530 855.5 c 128,-1,50
 503 868 503 868 463 868 c 0,51,52
 416 868 416 868 368.5 853.5 c 128,-1,53
 321 839 321 839 283 817 c 1,54,-1
 244 699 l 1,55,-1
 179 699 l 1,56,-1
 179 925 l 1,57,58
 213 932 213 932 253.5 938.5 c 128,-1,59
 294 945 294 945 337.5 950 c 128,-1,60
 381 955 381 955 426 958 c 128,-1,61
 471 961 471 961 514 961 c 0,62,63
 589 961 589 961 647.5 945 c 128,-1,64
 706 929 706 929 746 891 c 1,65,66
 791 927 791 927 851 946 c 128,-1,67
 911 965 911 965 988 965 c 0,0,1
466 101 m 0,68,69
 522 101 522 101 569 119.5 c 128,-1,70
 616 138 616 138 661 164 c 1,71,72
 653 174 653 174 642.5 195.5 c 128,-1,73
 632 217 632 217 623 249.5 c 128,-1,74
 614 282 614 282 608 324.5 c 128,-1,75
 602 367 602 367 602 420 c 2,76,-1
 602 472 l 1,77,-1
 528 469 l 2,78,79
 488 467 488 467 455.5 458.5 c 128,-1,80
 423 450 423 450 400.5 428 c 128,-1,81
 378 406 378 406 366 367 c 128,-1,82
 354 328 354 328 354 266 c 0,83,84
 354 181 354 181 386 141 c 128,-1,85
 418 101 418 101 466 101 c 0,68,69
1004 862 m 0,86,87
 966 862 966 862 941.5 841 c 128,-1,88
 917 820 917 820 903 782 c 128,-1,89
 889 744 889 744 884 689 c 128,-1,90
 879 634 879 634 879 567 c 1,91,-1
 1107 567 l 1,92,93
 1107 646 1107 646 1102 702.5 c 128,-1,94
 1097 759 1097 759 1085 794 c 128,-1,95
 1073 829 1073 829 1053 845.5 c 128,-1,96
 1033 862 1033 862 1004 862 c 0,86,87
EndSplineSet
EndChar

StartChar: eth
Encoding: 240 240 176
Width: 1024
Flags: W
LayerCount: 2
Fore
SplineSet
229 1117 m 1,0,-1
 402 1217 l 1,1,2
 363 1246 363 1246 317.5 1271 c 128,-1,3
 272 1296 272 1296 218 1313 c 1,4,-1
 218 1421 l 1,5,6
 306 1401 306 1401 384 1369.5 c 128,-1,7
 462 1338 462 1338 534 1294 c 1,8,-1
 819 1459 l 1,9,-1
 819 1335 l 1,10,-1
 628 1224 l 1,11,12
 699 1165 699 1165 757 1090 c 128,-1,13
 815 1015 815 1015 856.5 922.5 c 128,-1,14
 898 830 898 830 921 719.5 c 128,-1,15
 944 609 944 609 946 479 c 1,16,-1
 946 444 l 2,17,18
 946 220 946 220 839 100 c 128,-1,19
 732 -20 732 -20 506 -20 c 0,20,21
 294 -20 294 -20 186 99 c 128,-1,22
 78 218 78 218 78 444 c 0,23,24
 78 667 78 667 186 785 c 128,-1,25
 294 903 294 903 514 903 c 0,26,27
 543 903 543 903 568.5 901.5 c 128,-1,28
 594 900 594 900 617 895 c 1,29,30
 603 954 603 954 571 1017.5 c 128,-1,31
 539 1081 539 1081 484 1139 c 1,32,-1
 229 991 l 1,33,-1
 229 1117 l 1,0,-1
653 445 m 0,34,35
 653 530 653 530 645.5 597 c 128,-1,36
 638 664 638 664 621 710 c 128,-1,37
 604 756 604 756 576.5 780 c 128,-1,38
 549 804 549 804 508 804 c 256,39,40
 467 804 467 804 440.5 780 c 128,-1,41
 414 756 414 756 398.5 710 c 128,-1,42
 383 664 383 664 377 597 c 128,-1,43
 371 530 371 530 371 445 c 0,44,45
 371 359 371 359 377 291.5 c 128,-1,46
 383 224 383 224 398.5 177 c 128,-1,47
 414 130 414 130 440.5 105 c 128,-1,48
 467 80 467 80 508 80 c 256,49,50
 549 80 549 80 576.5 105 c 128,-1,51
 604 130 604 130 621 177 c 128,-1,52
 638 224 638 224 645.5 291.5 c 128,-1,53
 653 359 653 359 653 445 c 0,34,35
EndSplineSet
EndChar

StartChar: divide
Encoding: 247 247 183
Width: 1124
Flags: W
LayerCount: 2
Fore
SplineSet
1038 751 m 1,0,-1
 1038 608 l 1,1,-1
 86 608 l 1,2,-1
 86 751 l 1,3,-1
 1038 751 l 1,0,-1
561 183 m 256,4,5
 533 183 533 183 508.5 193.5 c 128,-1,6
 484 204 484 204 466 222 c 128,-1,7
 448 240 448 240 437.5 264.5 c 128,-1,8
 427 289 427 289 427 317 c 256,9,10
 427 345 427 345 437.5 369.5 c 128,-1,11
 448 394 448 394 466 412 c 128,-1,12
 484 430 484 430 508.5 440.5 c 128,-1,13
 533 451 533 451 561 451 c 256,14,15
 589 451 589 451 613.5 440.5 c 128,-1,16
 638 430 638 430 656 412 c 128,-1,17
 674 394 674 394 684.5 369.5 c 128,-1,18
 695 345 695 345 695 317 c 256,19,20
 695 289 695 289 684.5 264.5 c 128,-1,21
 674 240 674 240 656 222 c 128,-1,22
 638 204 638 204 613.5 193.5 c 128,-1,23
 589 183 589 183 561 183 c 256,4,5
561 909 m 256,24,25
 533 909 533 909 508.5 919.5 c 128,-1,26
 484 930 484 930 466 948 c 128,-1,27
 448 966 448 966 437.5 990.5 c 128,-1,28
 427 1015 427 1015 427 1043 c 256,29,30
 427 1071 427 1071 437.5 1095.5 c 128,-1,31
 448 1120 448 1120 466 1138 c 128,-1,32
 484 1156 484 1156 508.5 1166.5 c 128,-1,33
 533 1177 533 1177 561 1177 c 256,34,35
 589 1177 589 1177 613.5 1166.5 c 128,-1,36
 638 1156 638 1156 656 1138 c 128,-1,37
 674 1120 674 1120 684.5 1095.5 c 128,-1,38
 695 1071 695 1071 695 1043 c 256,39,40
 695 1015 695 1015 684.5 990.5 c 128,-1,41
 674 966 674 966 656 948 c 128,-1,42
 638 930 638 930 613.5 919.5 c 128,-1,43
 589 909 589 909 561 909 c 256,24,25
EndSplineSet
EndChar

StartChar: oslash
Encoding: 248 248 184
Width: 1024
Flags: W
LayerCount: 2
Fore
SplineSet
192 94 m 1,0,1
 133 157 133 157 105.5 252 c 128,-1,2
 78 347 78 347 78 475 c 0,3,4
 78 594 78 594 103 685.5 c 128,-1,5
 128 777 128 777 181 839 c 128,-1,6
 234 901 234 901 316.5 933 c 128,-1,7
 399 965 399 965 514 965 c 0,8,9
 658 965 658 965 753 912 c 1,10,-1
 828 1022 l 1,11,-1
 952 1022 l 1,12,-1
 834 849 l 1,13,14
 891 787 891 787 918.5 693.5 c 128,-1,15
 946 600 946 600 946 475 c 0,16,17
 946 355 946 355 921.5 263 c 128,-1,18
 897 171 897 171 844 108 c 128,-1,19
 791 45 791 45 707.5 12.5 c 128,-1,20
 624 -20 624 -20 506 -20 c 0,21,22
 369 -20 369 -20 275 30 c 1,23,-1
 198 -84 l 1,24,-1
 70 -84 l 1,25,-1
 192 94 l 1,0,1
371 475 m 0,26,27
 371 443 371 443 371 414 c 128,-1,28
 371 385 371 385 373 358 c 1,29,-1
 633 738 l 1,30,31
 618 801 618 801 588.5 832.5 c 128,-1,32
 559 864 559 864 508 864 c 0,33,34
 464 864 464 864 437 840 c 128,-1,35
 410 816 410 816 395.5 767 c 128,-1,36
 381 718 381 718 376 645 c 128,-1,37
 371 572 371 572 371 475 c 0,26,27
653 475 m 0,38,39
 653 504 653 504 652.5 530 c 128,-1,40
 652 556 652 556 651 581 c 1,41,-1
 390 199 l 1,42,43
 404 139 404 139 432 109.5 c 128,-1,44
 460 80 460 80 508 80 c 0,45,46
 553 80 553 80 581 105 c 128,-1,47
 609 130 609 130 625 180 c 128,-1,48
 641 230 641 230 647 303.5 c 128,-1,49
 653 377 653 377 653 475 c 0,38,39
EndSplineSet
EndChar

StartChar: thorn
Encoding: 254 254 190
Width: 1139
Flags: W
LayerCount: 2
Fore
SplineSet
129 1333 m 1,0,-1
 14 1356 l 1,1,-1
 14 1421 l 1,2,-1
 418 1421 l 1,3,-1
 418 1076 l 2,4,5
 418 1040 418 1040 416 989.5 c 128,-1,6
 414 939 414 939 409 892 c 1,7,8
 431 907 431 907 456 920.5 c 128,-1,9
 481 934 481 934 510.5 943.5 c 128,-1,10
 540 953 540 953 576 959 c 128,-1,11
 612 965 612 965 658 965 c 0,12,13
 866 965 866 965 970.5 845.5 c 128,-1,14
 1075 726 1075 726 1075 478 c 0,15,16
 1075 364 1075 364 1049 272 c 128,-1,17
 1023 180 1023 180 970 115 c 128,-1,18
 917 50 917 50 835.5 15 c 128,-1,19
 754 -20 754 -20 643 -20 c 0,20,21
 589 -20 589 -20 528.5 -13.5 c 128,-1,22
 468 -7 468 -7 412 7 c 1,23,24
 413 -4 413 -4 414.5 -23 c 128,-1,25
 416 -42 416 -42 416.5 -63.5 c 128,-1,26
 417 -85 417 -85 417.5 -105.5 c 128,-1,27
 418 -126 418 -126 418 -141 c 2,28,-1
 418 -346 l 1,29,-1
 556 -370 l 1,30,-1
 556 -436 l 1,31,-1
 27 -436 l 1,32,-1
 27 -370 l 1,33,-1
 129 -346 l 1,34,-1
 129 1333 l 1,0,-1
782 470 m 0,35,36
 782 579 782 579 766 653 c 128,-1,37
 750 727 750 727 723.5 771.5 c 128,-1,38
 697 816 697 816 663.5 835 c 128,-1,39
 630 854 630 854 595 854 c 0,40,41
 538 854 538 854 497 842 c 128,-1,42
 456 830 456 830 418 811 c 1,43,-1
 418 103 l 1,44,45
 499 82 499 82 587 82 c 0,46,47
 677 82 677 82 729.5 180.5 c 128,-1,48
 782 279 782 279 782 470 c 0,35,36
EndSplineSet
EndChar

StartChar: dcroat
Encoding: 273 273 209
Width: 1139
Flags: W
LayerCount: 2
Fore
SplineSet
733 53 m 1,0,1
 710 38 710 38 687.5 24.5 c 128,-1,2
 665 11 665 11 637.5 1.5 c 128,-1,3
 610 -8 610 -8 575.5 -14 c 128,-1,4
 541 -20 541 -20 495 -20 c 0,5,6
 286 -20 286 -20 184.5 96.5 c 128,-1,7
 83 213 83 213 83 457 c 0,8,9
 83 569 83 569 108 659 c 128,-1,10
 133 749 133 749 185.5 812.5 c 128,-1,11
 238 876 238 876 318.5 910.5 c 128,-1,12
 399 945 399 945 510 945 c 0,13,14
 619 945 619 945 730 918 c 1,15,16
 728 929 728 929 727 950.5 c 128,-1,17
 726 972 726 972 725.5 997.5 c 128,-1,18
 725 1023 725 1023 724.5 1047.5 c 128,-1,19
 724 1072 724 1072 724 1089 c 2,20,-1
 724 1099 l 1,21,-1
 506 1099 l 1,22,-1
 506 1202 l 1,23,-1
 724 1202 l 1,24,-1
 724 1331 l 1,25,-1
 628 1355 l 1,26,-1
 628 1421 l 1,27,-1
 1013 1421 l 1,28,-1
 1013 1202 l 1,29,-1
 1116 1202 l 1,30,-1
 1116 1099 l 1,31,-1
 1013 1099 l 1,32,-1
 1013 90 l 1,33,-1
 1116 66 l 1,34,-1
 1116 0 l 1,35,-1
 754 0 l 1,36,-1
 733 53 l 1,0,1
376 465 m 0,37,38
 376 358 376 358 391 286.5 c 128,-1,39
 406 215 406 215 431.5 171.5 c 128,-1,40
 457 128 457 128 490 109.5 c 128,-1,41
 523 91 523 91 558 91 c 0,42,43
 609 91 609 91 647.5 103 c 128,-1,44
 686 115 686 115 724 133 c 1,45,-1
 724 823 l 1,46,47
 683 833 683 833 647 838 c 128,-1,48
 611 843 611 843 566 843 c 0,49,50
 476 843 476 843 426 747 c 128,-1,51
 376 651 376 651 376 465 c 0,37,38
EndSplineSet
EndChar

StartChar: Hbar
Encoding: 294 294 230
Width: 1593
Flags: W
LayerCount: 2
Fore
SplineSet
35 0 m 1,0,-1
 35 74 l 1,1,-1
 207 100 l 1,2,-1
 207 952 l 1,3,-1
 35 952 l 1,4,-1
 35 1062 l 1,5,-1
 207 1062 l 1,6,-1
 207 1241 l 1,7,-1
 35 1268 l 1,8,-1
 35 1341 l 1,9,-1
 694 1341 l 1,10,-1
 694 1268 l 1,11,-1
 522 1241 l 1,12,-1
 522 1062 l 1,13,-1
 1070 1062 l 1,14,-1
 1070 1241 l 1,15,-1
 898 1268 l 1,16,-1
 898 1341 l 1,17,-1
 1559 1341 l 1,18,-1
 1559 1268 l 1,19,-1
 1386 1241 l 1,20,-1
 1386 1062 l 1,21,-1
 1559 1062 l 1,22,-1
 1559 952 l 1,23,-1
 1386 952 l 1,24,-1
 1386 100 l 1,25,-1
 1559 74 l 1,26,-1
 1559 0 l 1,27,-1
 898 0 l 1,28,-1
 898 74 l 1,29,-1
 1070 100 l 1,30,-1
 1070 635 l 1,31,-1
 522 635 l 1,32,-1
 522 100 l 1,33,-1
 694 74 l 1,34,-1
 694 0 l 1,35,-1
 35 0 l 1,0,-1
1070 745 m 1,36,-1
 1070 952 l 1,37,-1
 522 952 l 1,38,-1
 522 745 l 1,39,-1
 1070 745 l 1,36,-1
EndSplineSet
EndChar

StartChar: hbar
Encoding: 295 295 231
Width: 1139
Flags: W
LayerCount: 2
Fore
SplineSet
687 1099 m 1,0,-1
 436 1099 l 1,1,-1
 436 994 l 2,2,3
 436 979 436 979 435.5 958.5 c 128,-1,4
 435 938 435 938 434 916 c 128,-1,5
 433 894 433 894 432 873.5 c 128,-1,6
 431 853 431 853 430 838 c 1,7,8
 461 854 461 854 498.5 873 c 128,-1,9
 536 892 536 892 578 908 c 128,-1,10
 620 924 620 924 664.5 934.5 c 128,-1,11
 709 945 709 945 754 945 c 0,12,13
 811 945 811 945 859 930 c 128,-1,14
 907 915 907 915 941.5 882 c 128,-1,15
 976 849 976 849 995 796 c 128,-1,16
 1014 743 1014 743 1014 668 c 2,17,-1
 1014 90 l 1,18,-1
 1108 66 l 1,19,-1
 1108 0 l 1,20,-1
 641 0 l 1,21,-1
 641 66 l 1,22,-1
 725 90 l 1,23,-1
 725 629 l 2,24,25
 725 713 725 713 689.5 760 c 128,-1,26
 654 807 654 807 588 807 c 0,27,28
 512 807 512 807 436 773 c 1,29,-1
 436 90 l 1,30,-1
 522 66 l 1,31,-1
 522 0 l 1,32,-1
 55 0 l 1,33,-1
 55 66 l 1,34,-1
 147 90 l 1,35,-1
 147 1099 l 1,36,-1
 2 1099 l 1,37,-1
 2 1202 l 1,38,-1
 147 1202 l 1,39,-1
 147 1331 l 1,40,-1
 51 1355 l 1,41,-1
 51 1421 l 1,42,-1
 436 1421 l 1,43,-1
 436 1202 l 1,44,-1
 687 1202 l 1,45,-1
 687 1099 l 1,0,-1
EndSplineSet
EndChar

StartChar: dotlessi
Encoding: 305 305 241
Width: 569
Flags: W
LayerCount: 2
Fore
SplineSet
436 90 m 1,0,-1
 539 66 l 1,1,-1
 539 0 l 1,2,-1
 45 0 l 1,3,-1
 45 66 l 1,4,-1
 147 90 l 1,5,-1
 147 850 l 1,6,-1
 51 874 l 1,7,-1
 51 940 l 1,8,-1
 436 940 l 1,9,-1
 436 90 l 1,0,-1
EndSplineSet
EndChar

StartChar: jcircumflex
Encoding: 309 309 245
Width: 682
Flags: W
LayerCount: 2
Fore
SplineSet
545 -39 m 2,0,1
 545 -145 545 -145 514 -220.5 c 128,-1,2
 483 -296 483 -296 430 -344 c 128,-1,3
 377 -392 377 -392 306 -414 c 128,-1,4
 235 -436 235 -436 155 -436 c 0,5,6
 110 -436 110 -436 65 -431 c 128,-1,7
 20 -426 20 -426 -17 -418 c 1,8,-1
 -17 -193 l 1,9,-1
 47 -193 l 1,10,-1
 90 -307 l 1,11,12
 100 -315 100 -315 110 -320.5 c 128,-1,13
 120 -326 120 -326 139 -326 c 0,14,15
 161 -326 161 -326 182 -312.5 c 128,-1,16
 203 -299 203 -299 219.5 -269 c 128,-1,17
 236 -239 236 -239 246 -190.5 c 128,-1,18
 256 -142 256 -142 256 -71 c 2,19,-1
 256 840 l 1,20,-1
 90 874 l 1,21,-1
 90 940 l 1,22,-1
 545 940 l 1,23,-1
 545 -39 l 2,0,1
64 1118 m 1,24,-1
 64 1151 l 1,25,-1
 282 1444 l 1,26,-1
 495 1444 l 1,27,-1
 712 1151 l 1,28,-1
 712 1118 l 1,29,-1
 636 1118 l 1,30,-1
 388 1280 l 1,31,-1
 140 1118 l 1,32,-1
 64 1118 l 1,24,-1
EndSplineSet
EndChar

StartChar: kgreenlandic
Encoding: 312 312 248
Width: 1139
Flags: W
LayerCount: 2
Fore
SplineSet
436 451 m 1,0,-1
 803 851 l 1,1,-1
 703 874 l 1,2,-1
 703 940 l 1,3,-1
 1061 940 l 1,4,-1
 1061 874 l 1,5,-1
 953 852 l 1,6,-1
 729 616 l 1,7,-1
 1052 90 l 1,8,-1
 1136 66 l 1,9,-1
 1136 0 l 1,10,-1
 684 0 l 1,11,-1
 684 66 l 1,12,-1
 739 90 l 1,13,-1
 551 419 l 1,14,-1
 436 339 l 1,15,-1
 436 90 l 1,16,-1
 529 66 l 1,17,-1
 529 0 l 1,18,-1
 58 0 l 1,19,-1
 58 66 l 1,20,-1
 147 90 l 1,21,-1
 147 850 l 1,22,-1
 51 874 l 1,23,-1
 51 940 l 1,24,-1
 436 940 l 1,25,-1
 436 451 l 1,0,-1
EndSplineSet
EndChar

StartChar: Lslash
Encoding: 321 321 257
Width: 1366
Flags: W
LayerCount: 2
Fore
SplineSet
207 632 m 1,0,-1
 207 1241 l 1,1,-1
 37 1268 l 1,2,-1
 37 1341 l 1,3,-1
 729 1341 l 1,4,-1
 729 1268 l 1,5,-1
 522 1241 l 1,6,-1
 522 813 l 1,7,-1
 761 951 l 1,8,-1
 761 817 l 1,9,-1
 522 679 l 1,10,-1
 522 106 l 1,11,-1
 795 106 l 2,12,13
 920 106 920 106 998.5 113.5 c 128,-1,14
 1077 121 1077 121 1108 127 c 1,15,-1
 1190 406 l 1,16,-1
 1280 406 l 1,17,-1
 1241 0 l 1,18,-1
 35 0 l 1,19,-1
 35 74 l 1,20,-1
 207 100 l 1,21,-1
 207 497 l 1,22,-1
 43 402 l 1,23,-1
 43 538 l 1,24,-1
 207 632 l 1,0,-1
EndSplineSet
EndChar

StartChar: lslash
Encoding: 322 322 258
Width: 569
Flags: W
LayerCount: 2
Fore
SplineSet
20 533 m 1,0,-1
 142 603 l 1,1,-1
 142 1331 l 1,2,-1
 46 1355 l 1,3,-1
 46 1421 l 1,4,-1
 431 1421 l 1,5,-1
 431 770 l 1,6,-1
 559 844 l 1,7,-1
 559 720 l 1,8,-1
 431 645 l 1,9,-1
 431 90 l 1,10,-1
 534 66 l 1,11,-1
 534 0 l 1,12,-1
 40 0 l 1,13,-1
 40 66 l 1,14,-1
 142 90 l 1,15,-1
 142 478 l 1,16,-1
 20 407 l 1,17,-1
 20 533 l 1,0,-1
EndSplineSet
EndChar

StartChar: Eng
Encoding: 330 330 266
Width: 1575
Flags: W
LayerCount: 2
Fore
SplineSet
1085 985 m 2,0,1
 1085 1054 1085 1054 1066.5 1099.5 c 128,-1,2
 1048 1145 1048 1145 1018.5 1171 c 128,-1,3
 989 1197 989 1197 952 1207.5 c 128,-1,4
 915 1218 915 1218 877 1218 c 0,5,6
 807 1218 807 1218 718.5 1192.5 c 128,-1,7
 630 1167 630 1167 527 1114 c 1,8,-1
 527 100 l 1,9,-1
 628 85 l 1,10,-1
 628 0 l 1,11,-1
 40 0 l 1,12,-1
 40 74 l 1,13,-1
 211 100 l 1,14,-1
 211 1241 l 1,15,-1
 40 1268 l 1,16,-1
 40 1341 l 1,17,-1
 513 1341 l 1,18,-1
 527 1219 l 1,19,20
 587 1253 587 1253 642 1277.5 c 128,-1,21
 697 1302 697 1302 750 1318.5 c 128,-1,22
 803 1335 803 1335 855.5 1343 c 128,-1,23
 908 1351 908 1351 962 1351 c 0,24,25
 1066 1351 1066 1351 1147.5 1329 c 128,-1,26
 1229 1307 1229 1307 1285.5 1260.5 c 128,-1,27
 1342 1214 1342 1214 1371.5 1141.5 c 128,-1,28
 1401 1069 1401 1069 1401 968 c 2,29,-1
 1401 432 l 2,30,31
 1401 295 1401 295 1363.5 207.5 c 128,-1,32
 1326 120 1326 120 1264.5 69.5 c 128,-1,33
 1203 19 1203 19 1124 -0.5 c 128,-1,34
 1045 -20 1045 -20 961 -20 c 0,35,36
 896 -20 896 -20 838 -12 c 128,-1,37
 780 -4 780 -4 738 10 c 1,38,-1
 738 284 l 1,39,-1
 827 284 l 1,40,-1
 860 127 l 1,41,42
 880 107 880 107 904 96.5 c 128,-1,43
 928 86 928 86 965 86 c 0,44,45
 1029 86 1029 86 1057 137 c 128,-1,46
 1085 188 1085 188 1085 282 c 2,47,-1
 1085 985 l 2,0,1
EndSplineSet
EndChar

StartChar: eng
Encoding: 331 331 267
Width: 1139
Flags: W
LayerCount: 2
Fore
SplineSet
434 858 m 1,0,1
 465 874 465 874 502 893 c 128,-1,2
 539 912 539 912 580 928 c 128,-1,3
 621 944 621 944 665 954.5 c 128,-1,4
 709 965 709 965 754 965 c 0,5,6
 811 965 811 965 857.5 950 c 128,-1,7
 904 935 904 935 936.5 902 c 128,-1,8
 969 869 969 869 986.5 816 c 128,-1,9
 1004 763 1004 763 1004 688 c 2,10,-1
 1004 -39 l 2,11,12
 1004 -145 1004 -145 973 -220.5 c 128,-1,13
 942 -296 942 -296 889 -344 c 128,-1,14
 836 -392 836 -392 765 -414 c 128,-1,15
 694 -436 694 -436 614 -436 c 0,16,17
 569 -436 569 -436 524 -431 c 128,-1,18
 479 -426 479 -426 442 -418 c 1,19,-1
 442 -193 l 1,20,-1
 506 -193 l 1,21,-1
 549 -307 l 1,22,23
 559 -315 559 -315 569 -320.5 c 128,-1,24
 579 -326 579 -326 598 -326 c 0,25,26
 620 -326 620 -326 641 -312.5 c 128,-1,27
 662 -299 662 -299 678.5 -269 c 128,-1,28
 695 -239 695 -239 705 -190.5 c 128,-1,29
 715 -142 715 -142 715 -71 c 2,30,-1
 715 649 l 2,31,32
 715 748 715 748 684.5 787.5 c 128,-1,33
 654 827 654 827 588 827 c 0,34,35
 512 827 512 827 436 793 c 1,36,-1
 436 90 l 1,37,-1
 522 66 l 1,38,-1
 522 0 l 1,39,-1
 55 0 l 1,40,-1
 55 66 l 1,41,-1
 147 90 l 1,42,-1
 147 850 l 1,43,-1
 55 874 l 1,44,-1
 55 940 l 1,45,-1
 420 940 l 1,46,-1
 434 858 l 1,0,1
EndSplineSet
EndChar

StartChar: OE
Encoding: 338 338 274
Width: 2048
Flags: W
LayerCount: 2
Fore
SplineSet
113 675 m 256,0,1
 113 853 113 853 159 980.5 c 128,-1,2
 205 1108 205 1108 294 1190 c 128,-1,3
 383 1272 383 1272 512.5 1310.5 c 128,-1,4
 642 1349 642 1349 810 1349 c 0,5,6
 848 1349 848 1349 899 1347 c 128,-1,7
 950 1345 950 1345 1006 1341 c 1,8,-1
 1859 1341 l 1,9,-1
 1859 1000 l 1,10,-1
 1768 1000 l 1,11,-1
 1736 1217 l 1,12,13
 1704 1221 1704 1221 1656.5 1224 c 128,-1,14
 1609 1227 1609 1227 1559.5 1228.5 c 128,-1,15
 1510 1230 1510 1230 1466.5 1230.5 c 128,-1,16
 1423 1231 1423 1231 1400 1231 c 2,17,-1
 1292 1231 l 1,18,-1
 1292 739 l 1,19,-1
 1555 739 l 1,20,-1
 1586 887 l 1,21,-1
 1675 887 l 1,22,-1
 1675 475 l 1,23,-1
 1586 475 l 1,24,-1
 1555 627 l 1,25,-1
 1292 627 l 1,26,-1
 1292 110 l 1,27,-1
 1445 110 l 2,28,29
 1507 110 1507 110 1564 111.5 c 128,-1,30
 1621 113 1621 113 1667 115 c 128,-1,31
 1713 117 1713 117 1746.5 120 c 128,-1,32
 1780 123 1780 123 1795 126 c 1,33,-1
 1852 374 l 1,34,-1
 1943 374 l 1,35,-1
 1924 0 l 1,36,-1
 989 0 l 1,37,38
 938 -3 938 -3 891.5 -5 c 128,-1,39
 845 -7 845 -7 810 -7 c 0,40,41
 648 -7 648 -7 519 33 c 128,-1,42
 390 73 390 73 299.5 156 c 128,-1,43
 209 239 209 239 161 368 c 128,-1,44
 113 497 113 497 113 675 c 256,0,1
445 675 m 0,45,46
 445 535 445 535 462 426.5 c 128,-1,47
 479 318 479 318 521 244 c 128,-1,48
 563 170 563 170 633.5 131.5 c 128,-1,49
 704 93 704 93 810 93 c 0,50,51
 829 93 829 93 852 94 c 128,-1,52
 875 95 875 95 897.5 97 c 128,-1,53
 920 99 920 99 941 103 c 128,-1,54
 962 107 962 107 977 112 c 1,55,-1
 977 1229 l 1,56,57
 961 1234 961 1234 940.5 1237.5 c 128,-1,58
 920 1241 920 1241 897.5 1243.5 c 128,-1,59
 875 1246 875 1246 852 1247 c 128,-1,60
 829 1248 829 1248 810 1248 c 0,61,62
 704 1248 704 1248 633.5 1211 c 128,-1,63
 563 1174 563 1174 521 1101 c 128,-1,64
 479 1028 479 1028 462 921 c 128,-1,65
 445 814 445 814 445 675 c 0,45,46
EndSplineSet
EndChar

StartChar: oe
Encoding: 339 339 275
Width: 1479
Flags: W
LayerCount: 2
Fore
SplineSet
1046 963 m 0,0,1
 1131 963 1131 963 1202 943 c 128,-1,2
 1273 923 1273 923 1324 874.5 c 128,-1,3
 1375 826 1375 826 1403.5 745.5 c 128,-1,4
 1432 665 1432 665 1432 544 c 2,5,-1
 1432 462 l 1,6,-1
 909 462 l 1,7,-1
 909 446 l 2,8,9
 909 379 909 379 915.5 317.5 c 128,-1,10
 922 256 922 256 949 208.5 c 128,-1,11
 976 161 976 161 1029 133 c 128,-1,12
 1082 105 1082 105 1175 105 c 0,13,14
 1236 105 1236 105 1287.5 114 c 128,-1,15
 1339 123 1339 123 1393 134 c 1,16,-1
 1393 57 l 1,17,18
 1346 28 1346 28 1281 4.5 c 128,-1,19
 1216 -19 1216 -19 1124 -19 c 0,20,21
 998 -19 998 -19 912.5 17 c 128,-1,22
 827 53 827 53 773 115 c 1,23,24
 728 52 728 52 655.5 16 c 128,-1,25
 583 -20 583 -20 471 -20 c 0,26,27
 360 -20 360 -20 280 12 c 128,-1,28
 200 44 200 44 148.5 107 c 128,-1,29
 97 170 97 170 72.5 262.5 c 128,-1,30
 48 355 48 355 48 475 c 0,31,32
 48 594 48 594 72 685.5 c 128,-1,33
 96 777 96 777 148 839 c 128,-1,34
 200 901 200 901 282 933 c 128,-1,35
 364 965 364 965 479 965 c 0,36,37
 580 965 580 965 649 932.5 c 128,-1,38
 718 900 718 900 763 843 c 1,39,40
 808 899 808 899 877 931 c 128,-1,41
 946 963 946 963 1046 963 c 0,0,1
613 475 m 0,42,43
 613 572 613 572 608 645 c 128,-1,44
 603 718 603 718 588 767 c 128,-1,45
 573 816 573 816 545.5 840 c 128,-1,46
 518 864 518 864 473 864 c 0,47,48
 429 864 429 864 403 840 c 128,-1,49
 377 816 377 816 363 767 c 128,-1,50
 349 718 349 718 345 645 c 128,-1,51
 341 572 341 572 341 475 c 0,52,53
 341 377 341 377 345 303.5 c 128,-1,54
 349 230 349 230 363 180 c 128,-1,55
 377 130 377 130 403 105 c 128,-1,56
 429 80 429 80 473 80 c 0,57,58
 518 80 518 80 545.5 105 c 128,-1,59
 573 130 573 130 588 180 c 128,-1,60
 603 230 603 230 608 303.5 c 128,-1,61
 613 377 613 377 613 475 c 0,42,43
1035 862 m 0,62,63
 996 862 996 862 971.5 841 c 128,-1,64
 947 820 947 820 933.5 782 c 128,-1,65
 920 744 920 744 915 689 c 128,-1,66
 910 634 910 634 910 567 c 1,67,-1
 1138 567 l 1,68,69
 1138 634 1138 634 1136 689 c 128,-1,70
 1134 744 1134 744 1124.5 782 c 128,-1,71
 1115 820 1115 820 1094 841 c 128,-1,72
 1073 862 1073 862 1035 862 c 0,62,63
EndSplineSet
EndChar

StartChar: Tbar
Encoding: 358 358 294
Width: 1366
Flags: W
LayerCount: 2
Fore
SplineSet
310 0 m 1,0,-1
 310 73 l 1,1,-1
 523 100 l 1,2,-1
 523 609 l 1,3,-1
 242 609 l 1,4,-1
 242 731 l 1,5,-1
 523 731 l 1,6,-1
 523 1235 l 1,7,-1
 472 1235 l 2,8,9
 341 1235 341 1235 264 1229 c 128,-1,10
 187 1223 187 1223 150 1215 c 1,11,-1
 123 966 l 1,12,-1
 32 966 l 1,13,-1
 32 1341 l 1,14,-1
 1335 1341 l 1,15,-1
 1335 966 l 1,16,-1
 1243 966 l 1,17,-1
 1216 1215 l 1,18,19
 1179 1223 1179 1223 1092.5 1228 c 128,-1,20
 1006 1233 1006 1233 888 1233 c 2,21,-1
 839 1233 l 1,22,-1
 839 731 l 1,23,-1
 1120 731 l 1,24,-1
 1120 609 l 1,25,-1
 839 609 l 1,26,-1
 839 100 l 1,27,-1
 1052 73 l 1,28,-1
 1052 0 l 1,29,-1
 310 0 l 1,0,-1
EndSplineSet
EndChar

StartChar: tbar
Encoding: 359 359 295
Width: 682
Flags: W
LayerCount: 2
Fore
SplineSet
33 581 m 1,0,-1
 156 581 l 1,1,-1
 156 836 l 1,2,-1
 33 836 l 1,3,-1
 33 901 l 1,4,-1
 178 940 l 1,5,-1
 295 1153 l 1,6,-1
 445 1153 l 1,7,-1
 445 940 l 1,8,-1
 643 940 l 1,9,-1
 643 836 l 1,10,-1
 445 836 l 1,11,-1
 445 581 l 1,12,-1
 643 581 l 1,13,-1
 643 477 l 1,14,-1
 445 477 l 1,15,-1
 445 235 l 2,16,17
 445 170 445 170 472 137 c 128,-1,18
 499 104 499 104 543 104 c 0,19,20
 577 104 577 104 610.5 109 c 128,-1,21
 644 114 644 114 673 120 c 1,22,-1
 673 35 l 1,23,24
 659 25 659 25 632 15 c 128,-1,25
 605 5 605 5 572.5 -2.5 c 128,-1,26
 540 -10 540 -10 504.5 -15 c 128,-1,27
 469 -20 469 -20 438 -20 c 0,28,29
 363 -20 363 -20 309.5 -2 c 128,-1,30
 256 16 256 16 222 47.5 c 128,-1,31
 188 79 188 79 172 122.5 c 128,-1,32
 156 166 156 166 156 217 c 2,33,-1
 156 477 l 1,34,-1
 33 477 l 1,35,-1
 33 581 l 1,0,-1
EndSplineSet
EndChar

StartChar: longs
Encoding: 383 383 319
Width: 569
Flags: W
LayerCount: 2
Fore
SplineSet
109 1045 m 2,0,1
 109 1144 109 1144 135 1218.5 c 128,-1,2
 161 1293 161 1293 209.5 1342.5 c 128,-1,3
 258 1392 258 1392 328.5 1417 c 128,-1,4
 399 1442 399 1442 488 1442 c 0,5,6
 510 1442 510 1442 533.5 1440.5 c 128,-1,7
 557 1439 557 1439 579.5 1436.5 c 128,-1,8
 602 1434 602 1434 621 1430.5 c 128,-1,9
 640 1427 640 1427 654 1423 c 1,10,-1
 654 1199 l 1,11,-1
 590 1199 l 1,12,-1
 561 1308 l 1,13,14
 552 1317 552 1317 536.5 1324.5 c 128,-1,15
 521 1332 521 1332 498 1332 c 0,16,17
 476 1332 476 1332 457.5 1318.5 c 128,-1,18
 439 1305 439 1305 426 1274.5 c 128,-1,19
 413 1244 413 1244 405.5 1195.5 c 128,-1,20
 398 1147 398 1147 398 1077 c 2,21,-1
 398 90 l 1,22,-1
 551 66 l 1,23,-1
 551 0 l 1,24,-1
 7 0 l 1,25,-1
 7 66 l 1,26,-1
 109 90 l 1,27,-1
 109 1045 l 2,0,1
EndSplineSet
EndChar

StartChar: florin
Encoding: 402 402 320
Width: 1024
Flags: W
LayerCount: 2
Fore
SplineSet
180 -285 m 1,0,-1
 317 693 l 1,1,-1
 148 693 l 1,2,-1
 161 762 l 1,3,-1
 332 796 l 1,4,-1
 365 1032 l 2,5,6
 376 1111 376 1111 407.5 1172.5 c 128,-1,7
 439 1234 439 1234 486.5 1276 c 128,-1,8
 534 1318 534 1318 594 1340 c 128,-1,9
 654 1362 654 1362 722 1362 c 0,10,11
 839 1362 839 1362 918 1343 c 1,12,-1
 918 1119 l 1,13,-1
 854 1119 l 1,14,-1
 826 1232 l 1,15,16
 815 1240 815 1240 799 1246 c 128,-1,17
 783 1252 783 1252 761 1252 c 256,18,19
 739 1252 739 1252 722 1240 c 128,-1,20
 705 1228 705 1228 691 1200.5 c 128,-1,21
 677 1173 677 1173 666 1129 c 128,-1,22
 655 1085 655 1085 646 1021 c 2,23,-1
 614 797 l 1,24,-1
 853 797 l 1,25,-1
 838 693 l 1,26,-1
 599 693 l 1,27,-1
 462 -285 l 1,28,-1
 180 -285 l 1,0,-1
EndSplineSet
EndChar

StartChar: circumflex
Encoding: 710 710 327
Width: 682
Flags: W
LayerCount: 2
Fore
SplineSet
18 1118 m 1,0,-1
 18 1151 l 1,1,-1
 236 1444 l 1,2,-1
 449 1444 l 1,3,-1
 666 1151 l 1,4,-1
 666 1118 l 1,5,-1
 590 1118 l 1,6,-1
 342 1280 l 1,7,-1
 94 1118 l 1,8,-1
 18 1118 l 1,0,-1
EndSplineSet
EndChar

StartChar: caron
Encoding: 711 711 328
Width: 682
Flags: W
LayerCount: 2
Fore
SplineSet
666 1444 m 1,0,-1
 666 1411 l 1,1,-1
 448 1118 l 1,2,-1
 235 1118 l 1,3,-1
 18 1411 l 1,4,-1
 18 1444 l 1,5,-1
 94 1444 l 1,6,-1
 342 1282 l 1,7,-1
 590 1444 l 1,8,-1
 666 1444 l 1,0,-1
EndSplineSet
EndChar

StartChar: uni02C9
Encoding: 713 713 329
Width: 682
Flags: W
LayerCount: 2
Fore
SplineSet
27 1121 m 1,0,-1
 27 1271 l 1,1,-1
 655 1271 l 1,2,-1
 655 1121 l 1,3,-1
 27 1121 l 1,0,-1
EndSplineSet
EndChar

StartChar: breve
Encoding: 728 728 330
Width: 682
Flags: W
LayerCount: 2
Fore
SplineSet
340 1120 m 256,0,1
 263 1120 263 1120 207 1144.5 c 128,-1,2
 151 1169 151 1169 114 1212 c 128,-1,3
 77 1255 77 1255 58.5 1314 c 128,-1,4
 40 1373 40 1373 39 1443 c 1,5,-1
 140 1443 l 1,6,7
 157 1360 157 1360 208 1326 c 128,-1,8
 259 1292 259 1292 340 1292 c 0,9,10
 380 1292 380 1292 412.5 1299.5 c 128,-1,11
 445 1307 445 1307 469.5 1324.5 c 128,-1,12
 494 1342 494 1342 511.5 1371 c 128,-1,13
 529 1400 529 1400 540 1443 c 1,14,-1
 641 1443 l 1,15,16
 639 1373 639 1373 621 1314 c 128,-1,17
 603 1255 603 1255 566 1212 c 128,-1,18
 529 1169 529 1169 473 1144.5 c 128,-1,19
 417 1120 417 1120 340 1120 c 256,0,1
EndSplineSet
EndChar

StartChar: dotaccent
Encoding: 729 729 331
Width: 682
Flags: W
LayerCount: 2
Fore
SplineSet
189 1268 m 256,0,1
 189 1300 189 1300 201 1328 c 128,-1,2
 213 1356 213 1356 234 1376.5 c 128,-1,3
 255 1397 255 1397 283 1409 c 128,-1,4
 311 1421 311 1421 343 1421 c 256,5,6
 375 1421 375 1421 403 1409 c 128,-1,7
 431 1397 431 1397 451.5 1376.5 c 128,-1,8
 472 1356 472 1356 484 1328 c 128,-1,9
 496 1300 496 1300 496 1268 c 256,10,11
 496 1236 496 1236 484 1208 c 128,-1,12
 472 1180 472 1180 451.5 1159 c 128,-1,13
 431 1138 431 1138 403 1126 c 128,-1,14
 375 1114 375 1114 343 1114 c 256,15,16
 311 1114 311 1114 283 1126 c 128,-1,17
 255 1138 255 1138 234 1159 c 128,-1,18
 213 1180 213 1180 201 1208 c 128,-1,19
 189 1236 189 1236 189 1268 c 256,0,1
EndSplineSet
EndChar

StartChar: ring
Encoding: 730 730 332
Width: 682
Flags: W
LayerCount: 2
Fore
SplineSet
342 1059 m 256,0,1
 297 1059 297 1059 258.5 1076 c 128,-1,2
 220 1093 220 1093 191.5 1122 c 128,-1,3
 163 1151 163 1151 147 1189.5 c 128,-1,4
 131 1228 131 1228 131 1272 c 256,5,6
 131 1316 131 1316 147 1354.5 c 128,-1,7
 163 1393 163 1393 191.5 1421.5 c 128,-1,8
 220 1450 220 1450 258.5 1466.5 c 128,-1,9
 297 1483 297 1483 342 1483 c 256,10,11
 387 1483 387 1483 425.5 1466.5 c 128,-1,12
 464 1450 464 1450 492.5 1421.5 c 128,-1,13
 521 1393 521 1393 537 1354.5 c 128,-1,14
 553 1316 553 1316 553 1272 c 256,15,16
 553 1228 553 1228 537 1189.5 c 128,-1,17
 521 1151 521 1151 492.5 1122 c 128,-1,18
 464 1093 464 1093 425.5 1076 c 128,-1,19
 387 1059 387 1059 342 1059 c 256,0,1
342 1371 m 256,20,21
 322 1371 322 1371 304.5 1363 c 128,-1,22
 287 1355 287 1355 273.5 1341.5 c 128,-1,23
 260 1328 260 1328 252 1310 c 128,-1,24
 244 1292 244 1292 244 1272 c 256,25,26
 244 1252 244 1252 252 1234.5 c 128,-1,27
 260 1217 260 1217 273.5 1203.5 c 128,-1,28
 287 1190 287 1190 304.5 1182 c 128,-1,29
 322 1174 322 1174 342 1174 c 256,30,31
 362 1174 362 1174 379.5 1182 c 128,-1,32
 397 1190 397 1190 410.5 1203.5 c 128,-1,33
 424 1217 424 1217 432 1234.5 c 128,-1,34
 440 1252 440 1252 440 1272 c 256,35,36
 440 1292 440 1292 432 1310 c 128,-1,37
 424 1328 424 1328 410.5 1341.5 c 128,-1,38
 397 1355 397 1355 379.5 1363 c 128,-1,39
 362 1371 362 1371 342 1371 c 256,20,21
EndSplineSet
EndChar

StartChar: ogonek
Encoding: 731 731 333
Width: 682
Flags: W
LayerCount: 2
Fore
SplineSet
346 -430 m 0,0,1
 284 -430 284 -430 239.5 -413.5 c 128,-1,2
 195 -397 195 -397 166.5 -368 c 128,-1,3
 138 -339 138 -339 124.5 -299.5 c 128,-1,4
 111 -260 111 -260 111 -215 c 0,5,6
 111 -177 111 -177 122 -142 c 128,-1,7
 133 -107 133 -107 151.5 -78 c 128,-1,8
 170 -49 170 -49 194 -25.5 c 128,-1,9
 218 -2 218 -2 244 14 c 1,10,-1
 371 14 l 1,11,12
 339 -32 339 -32 318 -87 c 128,-1,13
 297 -142 297 -142 297 -199 c 0,14,15
 297 -257 297 -257 326 -288.5 c 128,-1,16
 355 -320 355 -320 409 -320 c 0,17,18
 447 -320 447 -320 479.5 -312 c 128,-1,19
 512 -304 512 -304 547 -291 c 1,20,-1
 547 -376 l 1,21,22
 505 -401 505 -401 455 -415.5 c 128,-1,23
 405 -430 405 -430 346 -430 c 0,0,1
EndSplineSet
EndChar

StartChar: tilde
Encoding: 732 732 334
Width: 682
Flags: W
LayerCount: 2
Fore
SplineSet
465 1120 m 0,0,1
 439 1120 439 1120 415.5 1126.5 c 128,-1,2
 392 1133 392 1133 370.5 1142.5 c 128,-1,3
 349 1152 349 1152 330 1164.5 c 128,-1,4
 311 1177 311 1177 293 1189 c 0,5,6
 282 1197 282 1197 268 1208 c 128,-1,7
 254 1219 254 1219 238.5 1229 c 128,-1,8
 223 1239 223 1239 207.5 1246 c 128,-1,9
 192 1253 192 1253 178 1253 c 0,10,11
 159 1253 159 1253 147.5 1247 c 128,-1,12
 136 1241 136 1241 129 1227 c 128,-1,13
 122 1213 122 1213 117.5 1191 c 128,-1,14
 113 1169 113 1169 109 1138 c 1,15,-1
 4 1138 l 1,16,17
 8 1194 8 1194 19 1246 c 128,-1,18
 30 1298 30 1298 54 1337.5 c 128,-1,19
 78 1377 78 1377 117.5 1401 c 128,-1,20
 157 1425 157 1425 219 1425 c 0,21,22
 272 1425 272 1425 314 1403.5 c 128,-1,23
 356 1382 356 1382 391 1357 c 0,24,25
 402 1349 402 1349 416.5 1338.5 c 128,-1,26
 431 1328 431 1328 446.5 1318 c 128,-1,27
 462 1308 462 1308 477.5 1301 c 128,-1,28
 493 1294 493 1294 506 1294 c 0,29,30
 524 1294 524 1294 535.5 1300 c 128,-1,31
 547 1306 547 1306 554.5 1319.5 c 128,-1,32
 562 1333 562 1333 566 1354.5 c 128,-1,33
 570 1376 570 1376 575 1406 c 1,34,-1
 680 1406 l 1,35,36
 676 1350 676 1350 665 1298.5 c 128,-1,37
 654 1247 654 1247 630 1207 c 128,-1,38
 606 1167 606 1167 566 1143.5 c 128,-1,39
 526 1120 526 1120 465 1120 c 0,0,1
EndSplineSet
EndChar

StartChar: hungarumlaut
Encoding: 733 733 335
Width: 682
Flags: W
LayerCount: 2
Fore
SplineSet
-29 1118 m 1,0,-1
 -29 1151 l 1,1,-1
 109 1444 l 1,2,-1
 360 1444 l 1,3,-1
 360 1407 l 1,4,-1
 68 1118 l 1,5,-1
 -29 1118 l 1,0,-1
322 1118 m 1,6,-1
 322 1151 l 1,7,-1
 459 1444 l 1,8,-1
 711 1444 l 1,9,-1
 711 1407 l 1,10,-1
 418 1118 l 1,11,-1
 322 1118 l 1,6,-1
EndSplineSet
EndChar

StartChar: tonos
Encoding: 900 900 336
Width: 682
Flags: W
LayerCount: 2
Fore
SplineSet
248 1118 m 1,0,-1
 248 1151 l 1,1,-1
 311 1522 l 1,2,-1
 596 1522 l 1,3,-1
 596 1485 l 1,4,-1
 334 1118 l 1,5,-1
 248 1118 l 1,0,-1
EndSplineSet
EndChar

StartChar: dieresistonos
Encoding: 901 901 337
Width: 682
Flags: W
LayerCount: 2
Fore
SplineSet
583 1132 m 0,0,1
 561 1132 561 1132 541 1140.5 c 128,-1,2
 521 1149 521 1149 506 1164 c 128,-1,3
 491 1179 491 1179 482.5 1199 c 128,-1,4
 474 1219 474 1219 474 1241 c 256,5,6
 474 1263 474 1263 482.5 1282.5 c 128,-1,7
 491 1302 491 1302 506 1316.5 c 128,-1,8
 521 1331 521 1331 541 1339.5 c 128,-1,9
 561 1348 561 1348 583 1348 c 0,10,11
 606 1348 606 1348 625.5 1339.5 c 128,-1,12
 645 1331 645 1331 659.5 1316.5 c 128,-1,13
 674 1302 674 1302 682 1282.5 c 128,-1,14
 690 1263 690 1263 690 1241 c 256,15,16
 690 1219 690 1219 682 1199 c 128,-1,17
 674 1179 674 1179 659.5 1164 c 128,-1,18
 645 1149 645 1149 625.5 1140.5 c 128,-1,19
 606 1132 606 1132 583 1132 c 0,0,1
101 1132 m 0,20,21
 79 1132 79 1132 59 1140.5 c 128,-1,22
 39 1149 39 1149 24 1164 c 128,-1,23
 9 1179 9 1179 0.5 1199 c 128,-1,24
 -8 1219 -8 1219 -8 1241 c 256,25,26
 -8 1263 -8 1263 0.5 1282.5 c 128,-1,27
 9 1302 9 1302 24 1316.5 c 128,-1,28
 39 1331 39 1331 59 1339.5 c 128,-1,29
 79 1348 79 1348 101 1348 c 256,30,31
 123 1348 123 1348 142.5 1339.5 c 128,-1,32
 162 1331 162 1331 176.5 1316.5 c 128,-1,33
 191 1302 191 1302 199.5 1282.5 c 128,-1,34
 208 1263 208 1263 208 1241 c 256,35,36
 208 1219 208 1219 200 1199 c 128,-1,37
 192 1179 192 1179 177.5 1164 c 128,-1,38
 163 1149 163 1149 143.5 1140.5 c 128,-1,39
 124 1132 124 1132 101 1132 c 0,20,21
244 1118 m 1,40,-1
 244 1151 l 1,41,-1
 307 1522 l 1,42,-1
 549 1522 l 1,43,-1
 549 1485 l 1,44,-1
 330 1118 l 1,45,-1
 244 1118 l 1,40,-1
EndSplineSet
EndChar

StartChar: anoteleia
Encoding: 903 903 339
Width: 682
Flags: W
LayerCount: 2
Fore
SplineSet
341 511 m 0,0,1
 306 511 306 511 276 524 c 128,-1,2
 246 537 246 537 223.5 559.5 c 128,-1,3
 201 582 201 582 188 612 c 128,-1,4
 175 642 175 642 175 677 c 0,5,6
 175 711 175 711 188 741.5 c 128,-1,7
 201 772 201 772 223.5 794.5 c 128,-1,8
 246 817 246 817 276 830 c 128,-1,9
 306 843 306 843 341 843 c 0,10,11
 375 843 375 843 405.5 830 c 128,-1,12
 436 817 436 817 458.5 794.5 c 128,-1,13
 481 772 481 772 494 741.5 c 128,-1,14
 507 711 507 711 507 677 c 0,15,16
 507 642 507 642 494 612 c 128,-1,17
 481 582 481 582 458.5 559.5 c 128,-1,18
 436 537 436 537 405.5 524 c 128,-1,19
 375 511 375 511 341 511 c 0,0,1
EndSplineSet
EndChar

StartChar: Gamma
Encoding: 915 915 349
Width: 1303
Flags: W
LayerCount: 2
Fore
SplineSet
731 0 m 1,0,-1
 38 0 l 1,1,-1
 38 73 l 1,2,-1
 209 99 l 1,3,-1
 209 1241 l 1,4,-1
 37 1268 l 1,5,-1
 37 1341 l 1,6,-1
 1174 1341 l 1,7,-1
 1192 936 l 1,8,-1
 1102 936 l 1,9,-1
 1040 1215 l 1,10,11
 1010 1221 1010 1221 931 1228 c 128,-1,12
 852 1235 852 1235 727 1235 c 2,13,-1
 524 1235 l 1,14,-1
 524 99 l 1,15,-1
 731 73 l 1,16,-1
 731 0 l 1,0,-1
EndSplineSet
EndChar

StartChar: Delta
Encoding: 916 916 350
Width: 1284
Flags: W
LayerCount: 2
Fore
SplineSet
1249 0 m 1,0,-1
 28 0 l 1,1,-1
 28 97 l 1,2,-1
 488 1352 l 1,3,-1
 778 1352 l 1,4,-1
 1249 97 l 1,5,-1
 1249 0 l 1,0,-1
164 119 m 1,6,-1
 917 119 l 1,7,-1
 533 1148 l 1,8,-1
 164 119 l 1,6,-1
EndSplineSet
EndChar

StartChar: Theta
Encoding: 920 920 354
Width: 1593
Flags: W
LayerCount: 2
Fore
SplineSet
432 672 m 0,0,1
 432 532 432 532 449 422 c 128,-1,2
 466 312 466 312 508 236 c 128,-1,3
 550 160 550 160 620.5 120 c 128,-1,4
 691 80 691 80 797 80 c 256,5,6
 903 80 903 80 973 120 c 128,-1,7
 1043 160 1043 160 1085 236 c 128,-1,8
 1127 312 1127 312 1144 422 c 128,-1,9
 1161 532 1161 532 1161 672 c 0,10,11
 1161 811 1161 811 1144 920 c 128,-1,12
 1127 1029 1127 1029 1085 1103 c 128,-1,13
 1043 1177 1043 1177 973 1216 c 128,-1,14
 903 1255 903 1255 797 1255 c 256,15,16
 691 1255 691 1255 620.5 1216 c 128,-1,17
 550 1177 550 1177 508 1103 c 128,-1,18
 466 1029 466 1029 449 920 c 128,-1,19
 432 811 432 811 432 672 c 0,0,1
100 672 m 256,20,21
 100 850 100 850 146 979 c 128,-1,22
 192 1108 192 1108 281 1192 c 128,-1,23
 370 1276 370 1276 499.5 1316 c 128,-1,24
 629 1356 629 1356 797 1356 c 0,25,26
 959 1356 959 1356 1088 1316 c 128,-1,27
 1217 1276 1217 1276 1307 1192 c 128,-1,28
 1397 1108 1397 1108 1445 979 c 128,-1,29
 1493 850 1493 850 1493 672 c 256,30,31
 1493 494 1493 494 1445 363.5 c 128,-1,32
 1397 233 1397 233 1307 148 c 128,-1,33
 1217 63 1217 63 1088 21.5 c 128,-1,34
 959 -20 959 -20 797 -20 c 256,35,36
 635 -20 635 -20 506 21.5 c 128,-1,37
 377 63 377 63 286.5 148 c 128,-1,38
 196 233 196 233 148 363.5 c 128,-1,39
 100 494 100 494 100 672 c 256,20,21
943 790 m 1,40,-1
 969 892 l 1,41,-1
 1037 892 l 1,42,-1
 1037 460 l 1,43,-1
 969 460 l 1,44,-1
 943 560 l 1,45,-1
 650 560 l 1,46,-1
 624 460 l 1,47,-1
 556 460 l 1,48,-1
 556 892 l 1,49,-1
 624 892 l 1,50,-1
 650 790 l 1,51,-1
 943 790 l 1,40,-1
EndSplineSet
EndChar

StartChar: Lambda
Encoding: 923 923 357
Width: 1468
Flags: W
LayerCount: 2
Fore
SplineSet
420 73 m 1,0,-1
 420 0 l 1,1,-1
 12 0 l 1,2,-1
 12 73 l 1,3,-1
 110 100 l 1,4,-1
 587 1352 l 1,5,-1
 879 1352 l 1,6,-1
 1354 100 l 1,7,-1
 1456 73 l 1,8,-1
 1456 0 l 1,9,-1
 859 0 l 1,10,-1
 859 73 l 1,11,-1
 1014 90 l 1,12,-1
 637 1139 l 1,13,-1
 256 100 l 1,14,-1
 420 73 l 1,0,-1
EndSplineSet
EndChar

StartChar: Xi
Encoding: 926 926 360
Width: 1387
Flags: W
LayerCount: 2
Fore
SplineSet
912 790 m 1,0,-1
 938 892 l 1,1,-1
 1006 892 l 1,2,-1
 1006 460 l 1,3,-1
 938 460 l 1,4,-1
 912 560 l 1,5,-1
 475 560 l 1,6,-1
 449 460 l 1,7,-1
 381 460 l 1,8,-1
 381 892 l 1,9,-1
 449 892 l 1,10,-1
 475 790 l 1,11,-1
 912 790 l 1,0,-1
549 1098 m 2,12,13
 526 1098 526 1098 490.5 1097.5 c 128,-1,14
 455 1097 455 1097 415.5 1095.5 c 128,-1,15
 376 1094 376 1094 336 1091 c 128,-1,16
 296 1088 296 1088 265 1084 c 1,17,-1
 229 920 l 1,18,-1
 146 920 l 1,19,-1
 166 1341 l 1,20,-1
 1221 1341 l 1,21,-1
 1241 920 l 1,22,-1
 1158 920 l 1,23,-1
 1122 1084 l 1,24,25
 1090 1088 1090 1088 1050.5 1091 c 128,-1,26
 1011 1094 1011 1094 971.5 1095.5 c 128,-1,27
 932 1097 932 1097 896.5 1097.5 c 128,-1,28
 861 1098 861 1098 838 1098 c 2,29,-1
 549 1098 l 2,12,13
853 263 m 2,30,31
 978 263 978 263 1059 268 c 128,-1,32
 1140 273 1140 273 1171 279 c 1,33,-1
 1207 464 l 1,34,-1
 1290 464 l 1,35,-1
 1271 0 l 1,36,-1
 116 0 l 1,37,-1
 97 464 l 1,38,-1
 180 464 l 1,39,-1
 216 279 l 1,40,41
 247 273 247 273 323 268 c 128,-1,42
 399 263 399 263 524 263 c 2,43,-1
 853 263 l 2,30,31
EndSplineSet
EndChar

StartChar: Pi
Encoding: 928 928 362
Width: 1593
Flags: W
LayerCount: 2
Fore
SplineSet
40 0 m 1,0,-1
 40 74 l 1,1,-1
 212 100 l 1,2,-1
 212 1241 l 1,3,-1
 40 1268 l 1,4,-1
 40 1341 l 1,5,-1
 1553 1341 l 1,6,-1
 1553 1268 l 1,7,-1
 1380 1241 l 1,8,-1
 1380 100 l 1,9,-1
 1553 74 l 1,10,-1
 1553 0 l 1,11,-1
 892 0 l 1,12,-1
 892 74 l 1,13,-1
 1064 100 l 1,14,-1
 1064 1231 l 1,15,-1
 527 1231 l 1,16,-1
 527 100 l 1,17,-1
 699 74 l 1,18,-1
 699 0 l 1,19,-1
 40 0 l 1,0,-1
EndSplineSet
EndChar

StartChar: Sigma
Encoding: 931 931 364
Width: 1339
Flags: W
LayerCount: 2
Fore
SplineSet
775 817 m 1,0,-1
 775 717 l 1,1,-1
 366 263 l 1,2,-1
 651 263 l 2,3,4
 719 263 719 263 795 264.5 c 128,-1,5
 871 266 871 266 938.5 268 c 128,-1,6
 1006 270 1006 270 1056.5 273 c 128,-1,7
 1107 276 1107 276 1124 279 c 1,8,-1
 1160 464 l 1,9,-1
 1243 464 l 1,10,-1
 1224 0 l 1,11,-1
 67 0 l 1,12,-1
 67 102 l 1,13,-1
 547 632 l 1,14,-1
 75 1234 l 1,15,-1
 75 1341 l 1,16,-1
 1160 1341 l 1,17,-1
 1160 1000 l 1,18,-1
 1069 1000 l 1,19,-1
 1027 1217 l 1,20,21
 994 1221 994 1221 947.5 1224 c 128,-1,22
 901 1227 901 1227 854 1228.5 c 128,-1,23
 807 1230 807 1230 765.5 1230.5 c 128,-1,24
 724 1231 724 1231 699 1231 c 2,25,-1
 460 1231 l 1,26,-1
 775 817 l 1,0,-1
EndSplineSet
EndChar

StartChar: Phi
Encoding: 934 934 367
Width: 1698
Flags: W
LayerCount: 2
Fore
SplineSet
711 324 m 1,0,-1
 711 1034 l 1,1,-1
 646 1034 l 2,2,3
 592 1034 592 1034 544 1013 c 128,-1,4
 496 992 496 992 460 949 c 128,-1,5
 424 906 424 906 403.5 841.5 c 128,-1,6
 383 777 383 777 383 690 c 0,7,8
 383 606 383 606 402.5 538.5 c 128,-1,9
 422 471 422 471 456.5 423 c 128,-1,10
 491 375 491 375 537.5 349.5 c 128,-1,11
 584 324 584 324 637 324 c 2,12,-1
 711 324 l 1,0,-1
1060 324 m 2,13,14
 1113 324 1113 324 1159.5 349.5 c 128,-1,15
 1206 375 1206 375 1240.5 423 c 128,-1,16
 1275 471 1275 471 1294.5 538.5 c 128,-1,17
 1314 606 1314 606 1314 690 c 0,18,19
 1314 777 1314 777 1293.5 841.5 c 128,-1,20
 1273 906 1273 906 1237 949 c 128,-1,21
 1201 992 1201 992 1153 1013 c 128,-1,22
 1105 1034 1105 1034 1051 1034 c 2,23,-1
 986 1034 l 1,24,-1
 986 324 l 1,25,-1
 1060 324 l 2,13,14
539 0 m 1,26,-1
 539 74 l 1,27,-1
 711 100 l 1,28,-1
 711 221 l 1,29,-1
 602 221 l 2,30,31
 504 221 504 221 427 240.5 c 128,-1,32
 350 260 350 260 292 294.5 c 128,-1,33
 234 329 234 329 193.5 374.5 c 128,-1,34
 153 420 153 420 127.5 472.5 c 128,-1,35
 102 525 102 525 90.5 581 c 128,-1,36
 79 637 79 637 79 692 c 0,37,38
 79 775 79 775 106 855 c 128,-1,39
 133 935 133 935 195 997.5 c 128,-1,40
 257 1060 257 1060 358 1098.5 c 128,-1,41
 459 1137 459 1137 607 1137 c 2,42,-1
 711 1137 l 1,43,-1
 711 1241 l 1,44,-1
 539 1268 l 1,45,-1
 539 1341 l 1,46,-1
 1158 1341 l 1,47,-1
 1158 1268 l 1,48,-1
 986 1241 l 1,49,-1
 986 1137 l 1,50,-1
 1090 1137 l 2,51,52
 1238 1137 1238 1137 1339 1098.5 c 128,-1,53
 1440 1060 1440 1060 1502 997.5 c 128,-1,54
 1564 935 1564 935 1591 855 c 128,-1,55
 1618 775 1618 775 1618 692 c 0,56,57
 1618 637 1618 637 1606.5 581 c 128,-1,58
 1595 525 1595 525 1569.5 472.5 c 128,-1,59
 1544 420 1544 420 1503.5 374.5 c 128,-1,60
 1463 329 1463 329 1405 294.5 c 128,-1,61
 1347 260 1347 260 1270 240.5 c 128,-1,62
 1193 221 1193 221 1095 221 c 2,63,-1
 986 221 l 1,64,-1
 986 100 l 1,65,-1
 1158 74 l 1,66,-1
 1158 0 l 1,67,-1
 539 0 l 1,26,-1
EndSplineSet
EndChar

StartChar: Psi
Encoding: 936 936 369
Width: 1597
Flags: W
LayerCount: 2
Fore
SplineSet
489 0 m 1,0,-1
 489 74 l 1,1,-1
 661 100 l 1,2,-1
 661 493 l 1,3,4
 517 493 517 493 412 529 c 128,-1,5
 307 565 307 565 238.5 629.5 c 128,-1,6
 170 694 170 694 137 784.5 c 128,-1,7
 104 875 104 875 104 984 c 2,8,-1
 104 1241 l 1,9,-1
 7 1268 l 1,10,-1
 7 1341 l 1,11,-1
 398 1341 l 1,12,-1
 398 972 l 2,13,14
 398 888 398 888 415.5 819 c 128,-1,15
 433 750 433 750 466.5 700.5 c 128,-1,16
 500 651 500 651 549 624 c 128,-1,17
 598 597 598 597 661 596 c 1,18,-1
 661 1241 l 1,19,-1
 539 1268 l 1,20,-1
 539 1341 l 1,21,-1
 1058 1341 l 1,22,-1
 1058 1268 l 1,23,-1
 936 1241 l 1,24,-1
 936 596 l 1,25,26
 999 597 999 597 1048 624 c 128,-1,27
 1097 651 1097 651 1130.5 700.5 c 128,-1,28
 1164 750 1164 750 1181.5 819 c 128,-1,29
 1199 888 1199 888 1199 972 c 2,30,-1
 1199 1341 l 1,31,-1
 1590 1341 l 1,32,-1
 1590 1268 l 1,33,-1
 1493 1241 l 1,34,-1
 1493 984 l 2,35,36
 1493 875 1493 875 1460 784.5 c 128,-1,37
 1427 694 1427 694 1358.5 629.5 c 128,-1,38
 1290 565 1290 565 1185 529 c 128,-1,39
 1080 493 1080 493 936 493 c 1,40,-1
 936 100 l 1,41,-1
 1108 74 l 1,42,-1
 1108 0 l 1,43,-1
 489 0 l 1,0,-1
EndSplineSet
EndChar

StartChar: Omega
Encoding: 937 937 370
Width: 1640
Flags: W
LayerCount: 2
Fore
SplineSet
821 1255 m 256,0,1
 711 1255 711 1255 635.5 1221 c 128,-1,2
 560 1187 560 1187 513.5 1129.5 c 128,-1,3
 467 1072 467 1072 446.5 996.5 c 128,-1,4
 426 921 426 921 426 837 c 0,5,6
 426 758 426 758 442 689.5 c 128,-1,7
 458 621 458 621 493.5 567.5 c 128,-1,8
 529 514 529 514 584.5 479 c 128,-1,9
 640 444 640 444 718 432 c 1,10,-1
 741 0 l 1,11,-1
 116 0 l 1,12,-1
 93 384 l 1,13,-1
 179 384 l 1,14,-1
 240 256 l 1,15,16
 270 250 270 250 337 245 c 128,-1,17
 404 240 404 240 498 240 c 2,18,-1
 607 240 l 1,19,-1
 602 345 l 1,20,21
 490 361 490 361 397 399.5 c 128,-1,22
 304 438 304 438 236.5 499 c 128,-1,23
 169 560 169 560 131.5 644 c 128,-1,24
 94 728 94 728 94 837 c 0,25,26
 94 961 94 961 142 1057.5 c 128,-1,27
 190 1154 190 1154 283 1220.5 c 128,-1,28
 376 1287 376 1287 511.5 1321.5 c 128,-1,29
 647 1356 647 1356 821 1356 c 256,30,31
 995 1356 995 1356 1130.5 1321.5 c 128,-1,32
 1266 1287 1266 1287 1359 1220.5 c 128,-1,33
 1452 1154 1452 1154 1500 1057.5 c 128,-1,34
 1548 961 1548 961 1548 837 c 0,35,36
 1548 728 1548 728 1510.5 644 c 128,-1,37
 1473 560 1473 560 1405.5 499 c 128,-1,38
 1338 438 1338 438 1245 399.5 c 128,-1,39
 1152 361 1152 361 1040 345 c 1,40,-1
 1035 240 l 1,41,-1
 1144 240 l 2,42,43
 1238 240 1238 240 1305 245 c 128,-1,44
 1372 250 1372 250 1402 256 c 1,45,-1
 1463 384 l 1,46,-1
 1549 384 l 1,47,-1
 1526 0 l 1,48,-1
 901 0 l 1,49,-1
 924 432 l 1,50,51
 1002 444 1002 444 1057.5 479 c 128,-1,52
 1113 514 1113 514 1148.5 567.5 c 128,-1,53
 1184 621 1184 621 1200 689.5 c 128,-1,54
 1216 758 1216 758 1216 837 c 0,55,56
 1216 921 1216 921 1195.5 996.5 c 128,-1,57
 1175 1072 1175 1072 1128.5 1129.5 c 128,-1,58
 1082 1187 1082 1187 1006.5 1221 c 128,-1,59
 931 1255 931 1255 821 1255 c 256,0,1
EndSplineSet
EndChar

StartChar: alpha
Encoding: 945 945 378
Width: 1143
Flags: W
LayerCount: 2
Fore
SplineSet
428 -20 m 0,0,1
 350 -20 350 -20 285 10 c 128,-1,2
 220 40 220 40 173.5 99.5 c 128,-1,3
 127 159 127 159 101 247.5 c 128,-1,4
 75 336 75 336 75 453 c 0,5,6
 75 580 75 580 106.5 676 c 128,-1,7
 138 772 138 772 194.5 836 c 128,-1,8
 251 900 251 900 327.5 932.5 c 128,-1,9
 404 965 404 965 494 965 c 0,10,11
 603 965 603 965 674 908 c 128,-1,12
 745 851 745 851 787 745 c 1,13,-1
 793 745 l 1,14,-1
 839 940 l 1,15,-1
 1122 940 l 1,16,-1
 1122 900 l 1,17,18
 1104 871 1104 871 1085 829 c 128,-1,19
 1066 787 1066 787 1045.5 733.5 c 128,-1,20
 1025 680 1025 680 1004.5 616.5 c 128,-1,21
 984 553 984 553 964 483 c 1,22,23
 975 420 975 420 985.5 367.5 c 128,-1,24
 996 315 996 315 1008.5 268 c 128,-1,25
 1021 221 1021 221 1036 177.5 c 128,-1,26
 1051 134 1051 134 1071 90 c 1,27,-1
 1119 75 l 1,28,-1
 1119 0 l 1,29,-1
 801 0 l 1,30,31
 793 21 793 21 785 49 c 128,-1,32
 777 77 777 77 770 106.5 c 128,-1,33
 763 136 763 136 757 165.5 c 128,-1,34
 751 195 751 195 747 219 c 1,35,-1
 741 219 l 1,36,37
 710 163 710 163 677.5 119 c 128,-1,38
 645 75 645 75 607.5 44 c 128,-1,39
 570 13 570 13 526 -3.5 c 128,-1,40
 482 -20 482 -20 428 -20 c 0,0,1
527 849 m 0,41,42
 487 849 487 849 457.5 826.5 c 128,-1,43
 428 804 428 804 408.5 757 c 128,-1,44
 389 710 389 710 379 636.5 c 128,-1,45
 369 563 369 563 369 460 c 0,46,47
 369 361 369 361 380.5 296 c 128,-1,48
 392 231 392 231 410 192.5 c 128,-1,49
 428 154 428 154 450.5 139 c 128,-1,50
 473 124 473 124 495 124 c 0,51,52
 531 124 531 124 564 148 c 128,-1,53
 597 172 597 172 627 217.5 c 128,-1,54
 657 263 657 263 682.5 328 c 128,-1,55
 708 393 708 393 729 474 c 1,56,57
 718 583 718 583 697 655.5 c 128,-1,58
 676 728 676 728 648.5 771 c 128,-1,59
 621 814 621 814 589.5 831.5 c 128,-1,60
 558 849 558 849 527 849 c 0,41,42
EndSplineSet
EndChar

StartChar: beta
Encoding: 946 946 379
Width: 1079
Flags: W
LayerCount: 2
Fore
SplineSet
405 -436 m 1,0,-1
 116 -436 l 1,1,-1
 116 978 l 2,2,3
 116 1110 116 1110 146.5 1199 c 128,-1,4
 177 1288 177 1288 234 1342 c 128,-1,5
 291 1396 291 1396 372 1419 c 128,-1,6
 453 1442 453 1442 554 1442 c 0,7,8
 646 1442 646 1442 720.5 1418 c 128,-1,9
 795 1394 795 1394 848 1349 c 128,-1,10
 901 1304 901 1304 929.5 1240 c 128,-1,11
 958 1176 958 1176 958 1096 c 0,12,13
 958 1021 958 1021 936.5 963.5 c 128,-1,14
 915 906 915 906 879.5 864.5 c 128,-1,15
 844 823 844 823 799 797 c 128,-1,16
 754 771 754 771 707 761 c 1,17,-1
 707 751 l 1,18,19
 774 737 774 737 829.5 708.5 c 128,-1,20
 885 680 885 680 925 635 c 128,-1,21
 965 590 965 590 986.5 527 c 128,-1,22
 1008 464 1008 464 1008 382 c 0,23,24
 1008 181 1008 181 890 81.5 c 128,-1,25
 772 -18 772 -18 538 -18 c 0,26,27
 499 -18 499 -18 462 -13 c 128,-1,28
 425 -8 425 -8 405 -1 c 1,29,-1
 405 -436 l 1,0,-1
663 1083 m 0,30,31
 663 1204 663 1204 633 1272.5 c 128,-1,32
 603 1341 603 1341 541 1341 c 0,33,34
 508 1341 508 1341 483 1329.5 c 128,-1,35
 458 1318 458 1318 440.5 1284.5 c 128,-1,36
 423 1251 423 1251 414 1190.5 c 128,-1,37
 405 1130 405 1130 405 1033 c 2,38,-1
 405 99 l 1,39,40
 426 91 426 91 457 86 c 128,-1,41
 488 81 488 81 517 81 c 0,42,43
 569 81 569 81 606 98 c 128,-1,44
 643 115 643 115 667 151.5 c 128,-1,45
 691 188 691 188 702.5 245 c 128,-1,46
 714 302 714 302 714 382 c 0,47,48
 714 449 714 449 701 506.5 c 128,-1,49
 688 564 688 564 659 606.5 c 128,-1,50
 630 649 630 649 584.5 674.5 c 128,-1,51
 539 700 539 700 473 703 c 1,52,-1
 473 799 l 1,53,54
 528 800 528 800 564.5 817 c 128,-1,55
 601 834 601 834 623 868 c 128,-1,56
 645 902 645 902 654 955 c 128,-1,57
 663 1008 663 1008 663 1083 c 0,30,31
EndSplineSet
EndChar

StartChar: gamma
Encoding: 947 947 380
Width: 958
Flags: W
LayerCount: 2
Fore
SplineSet
-11 874 m 1,0,-1
 -11 940 l 1,1,-1
 320 940 l 1,2,3
 384 769 384 769 443 587.5 c 128,-1,4
 502 406 502 406 549 227 c 1,5,-1
 556 227 l 1,6,-1
 692 550 l 2,7,8
 722 622 722 622 736.5 679.5 c 128,-1,9
 751 737 751 737 751 780 c 0,10,11
 751 825 751 825 728 846.5 c 128,-1,12
 705 868 705 868 673 875 c 1,13,-1
 673 940 l 1,14,-1
 911 940 l 1,15,16
 923 929 923 929 926.5 906 c 128,-1,17
 930 883 930 883 930 861 c 0,18,19
 930 810 930 810 908 739.5 c 128,-1,20
 886 669 886 669 844 581 c 2,21,-1
 589 48 l 1,22,23
 596 12 596 12 602 -50 c 128,-1,24
 608 -112 608 -112 612.5 -180.5 c 128,-1,25
 617 -249 617 -249 619.5 -314.5 c 128,-1,26
 622 -380 622 -380 622 -423 c 1,27,-1
 377 -436 l 1,28,-1
 331 -407 l 1,29,30
 331 -367 331 -367 333.5 -312.5 c 128,-1,31
 336 -258 336 -258 340.5 -200 c 128,-1,32
 345 -142 345 -142 352.5 -86.5 c 128,-1,33
 360 -31 360 -31 369 12 c 1,34,35
 346 81 346 81 320 158.5 c 128,-1,36
 294 236 294 236 266 315 c 128,-1,37
 238 394 238 394 209.5 471.5 c 128,-1,38
 181 549 181 549 153.5 619 c 128,-1,39
 126 689 126 689 101 748.5 c 128,-1,40
 76 808 76 808 55 850 c 1,41,-1
 -11 874 l 1,0,-1
EndSplineSet
EndChar

StartChar: delta
Encoding: 948 948 381
Width: 1063
Flags: W
LayerCount: 2
Fore
SplineSet
880 1169 m 1,0,-1
 814 1169 l 1,1,-1
 779 1292 l 1,2,3
 757 1309 757 1309 722 1322.5 c 128,-1,4
 687 1336 687 1336 642 1336 c 0,5,6
 579 1336 579 1336 545 1300 c 128,-1,7
 511 1264 511 1264 511 1208 c 0,8,9
 511 1163 511 1163 530 1124 c 128,-1,10
 549 1085 549 1085 582 1047.5 c 128,-1,11
 615 1010 615 1010 659 971.5 c 128,-1,12
 703 933 703 933 752 890 c 0,13,14
 809 840 809 840 853 790.5 c 128,-1,15
 897 741 897 741 927 686 c 128,-1,16
 957 631 957 631 972.5 567 c 128,-1,17
 988 503 988 503 988 424 c 0,18,19
 988 313 988 313 953.5 228.5 c 128,-1,20
 919 144 919 144 857.5 86.5 c 128,-1,21
 796 29 796 29 711 -0.5 c 128,-1,22
 626 -30 626 -30 526 -30 c 0,23,24
 427 -30 427 -30 344 -2 c 128,-1,25
 261 26 261 26 201.5 80.5 c 128,-1,26
 142 135 142 135 108.5 216 c 128,-1,27
 75 297 75 297 75 402 c 0,28,29
 75 486 75 486 101 554 c 128,-1,30
 127 622 127 622 171.5 675.5 c 128,-1,31
 216 729 216 729 275 769.5 c 128,-1,32
 334 810 334 810 399 839 c 1,33,34
 372 864 372 864 344 898.5 c 128,-1,35
 316 933 316 933 294 973 c 128,-1,36
 272 1013 272 1013 258 1058 c 128,-1,37
 244 1103 244 1103 244 1150 c 0,38,39
 244 1210 244 1210 267 1261.5 c 128,-1,40
 290 1313 290 1313 335.5 1350.5 c 128,-1,41
 381 1388 381 1388 449 1409.5 c 128,-1,42
 517 1431 517 1431 608 1431 c 0,43,44
 683 1431 683 1431 752.5 1421 c 128,-1,45
 822 1411 822 1411 880 1400 c 1,46,-1
 880 1169 l 1,0,-1
357 392 m 0,47,48
 357 221 357 221 403.5 140 c 128,-1,49
 450 59 450 59 527 59 c 0,50,51
 566 59 566 59 597.5 80 c 128,-1,52
 629 101 629 101 651 140.5 c 128,-1,53
 673 180 673 180 685 237 c 128,-1,54
 697 294 697 294 697 366 c 0,55,56
 697 482 697 482 649 581 c 128,-1,57
 601 680 601 680 485 765 c 1,58,59
 462 745 462 745 439.5 711.5 c 128,-1,60
 417 678 417 678 398.5 630.5 c 128,-1,61
 380 583 380 583 368.5 523.5 c 128,-1,62
 357 464 357 464 357 392 c 0,47,48
EndSplineSet
EndChar

StartChar: epsilon
Encoding: 949 949 382
Width: 875
Flags: W
LayerCount: 2
Fore
SplineSet
833 70 m 1,0,1
 773 32 773 32 685.5 6 c 128,-1,2
 598 -20 598 -20 483 -20 c 0,3,4
 373 -20 373 -20 292.5 1 c 128,-1,5
 212 22 212 22 159.5 60 c 128,-1,6
 107 98 107 98 81.5 151 c 128,-1,7
 56 204 56 204 56 268 c 0,8,9
 56 314 56 314 71.5 352.5 c 128,-1,10
 87 391 87 391 112.5 420.5 c 128,-1,11
 138 450 138 450 172 470.5 c 128,-1,12
 206 491 206 491 244 502 c 1,13,-1
 244 509 l 1,14,15
 179 537 179 537 137 587.5 c 128,-1,16
 95 638 95 638 95 715 c 0,17,18
 95 783 95 783 132 830.5 c 128,-1,19
 169 878 169 878 229 908 c 128,-1,20
 289 938 289 938 365 951.5 c 128,-1,21
 441 965 441 965 520 965 c 0,22,23
 590 965 590 965 667.5 955.5 c 128,-1,24
 745 946 745 946 809 929 c 1,25,-1
 809 713 l 1,26,-1
 744 713 l 1,27,-1
 692 828 l 1,28,29
 666 842 666 842 626 853 c 128,-1,30
 586 864 586 864 535 864 c 0,31,32
 511 864 511 864 482.5 857.5 c 128,-1,33
 454 851 454 851 430 834 c 128,-1,34
 406 817 406 817 389.5 788 c 128,-1,35
 373 759 373 759 373 715 c 0,36,37
 373 677 373 677 381 648.5 c 128,-1,38
 389 620 389 620 401 600.5 c 128,-1,39
 413 581 413 581 426 569 c 128,-1,40
 439 557 439 557 450 551 c 1,41,42
 471 553 471 553 500 558 c 128,-1,43
 529 563 529 563 557 568 c 128,-1,44
 585 573 585 573 608.5 577 c 128,-1,45
 632 581 632 581 642 581 c 2,46,-1
 693 581 l 1,47,-1
 693 423 l 1,48,-1
 642 423 l 2,49,50
 632 423 632 423 608 427 c 128,-1,51
 584 431 584 431 554 436.5 c 128,-1,52
 524 442 524 442 492 447.5 c 128,-1,53
 460 453 460 453 433 455 c 1,54,55
 419 449 419 449 401.5 437 c 128,-1,56
 384 425 384 425 369 405.5 c 128,-1,57
 354 386 354 386 344 357 c 128,-1,58
 334 328 334 328 334 288 c 0,59,60
 334 252 334 252 347 219.5 c 128,-1,61
 360 187 360 187 386 161.5 c 128,-1,62
 412 136 412 136 451 121 c 128,-1,63
 490 106 490 106 543 106 c 0,64,65
 597 106 597 106 638 110.5 c 128,-1,66
 679 115 679 115 712.5 122 c 128,-1,67
 746 129 746 129 775 138.5 c 128,-1,68
 804 148 804 148 833 157 c 1,69,-1
 833 70 l 1,0,1
EndSplineSet
EndChar

StartChar: zeta
Encoding: 950 950 383
Width: 846
Flags: W
LayerCount: 2
Fore
SplineSet
867 -40 m 0,0,1
 867 -107 867 -107 843.5 -160 c 128,-1,2
 820 -213 820 -213 774.5 -255 c 128,-1,3
 729 -297 729 -297 662 -330 c 128,-1,4
 595 -363 595 -363 507 -390 c 1,5,-1
 507 -285 l 1,6,7
 574 -260 574 -260 614.5 -227 c 128,-1,8
 655 -194 655 -194 655 -140 c 0,9,10
 655 -89 655 -89 608 -62.5 c 128,-1,11
 561 -36 561 -36 464 -18 c 0,12,13
 353 3 353 3 278.5 35 c 128,-1,14
 204 67 204 67 159.5 114.5 c 128,-1,15
 115 162 115 162 96.5 225.5 c 128,-1,16
 78 289 78 289 78 373 c 0,17,18
 78 455 78 455 104.5 539.5 c 128,-1,19
 131 624 131 624 176 707.5 c 128,-1,20
 221 791 221 791 281 872.5 c 128,-1,21
 341 954 341 954 407.5 1032 c 128,-1,22
 474 1110 474 1110 543.5 1182 c 128,-1,23
 613 1254 613 1254 678 1319 c 1,24,-1
 678 1323 l 1,25,-1
 157 1228 l 1,26,-1
 157 1387 l 1,27,28
 233 1391 233 1391 326 1396.5 c 128,-1,29
 419 1402 419 1402 511 1408.5 c 128,-1,30
 603 1415 603 1415 687 1422.5 c 128,-1,31
 771 1430 771 1430 829 1438 c 1,32,-1
 829 1350 l 1,33,34
 734 1228 734 1228 649 1113.5 c 128,-1,35
 564 999 564 999 500 886.5 c 128,-1,36
 436 774 436 774 398.5 661.5 c 128,-1,37
 361 549 361 549 361 432 c 0,38,39
 361 386 361 386 373.5 352 c 128,-1,40
 386 318 386 318 413.5 292 c 128,-1,41
 441 266 441 266 484 247.5 c 128,-1,42
 527 229 527 229 587 215 c 0,43,44
 662 197 662 197 715.5 173 c 128,-1,45
 769 149 769 149 802.5 117.5 c 128,-1,46
 836 86 836 86 851.5 47 c 128,-1,47
 867 8 867 8 867 -40 c 0,0,1
EndSplineSet
EndChar

StartChar: eta
Encoding: 951 951 384
Width: 1163
Flags: W
LayerCount: 2
Fore
SplineSet
1039 70 m 2,0,1
 1039 -14 1039 -14 1042.5 -89 c 128,-1,2
 1046 -164 1046 -164 1051 -224.5 c 128,-1,3
 1056 -285 1056 -285 1062.5 -328.5 c 128,-1,4
 1069 -372 1069 -372 1075 -391 c 1,5,-1
 1075 -436 l 1,6,-1
 773 -436 l 1,7,8
 764 -387 764 -387 759.5 -328.5 c 128,-1,9
 755 -270 755 -270 753 -206 c 128,-1,10
 751 -142 751 -142 750.5 -75 c 128,-1,11
 750 -8 750 -8 750 58 c 2,12,-1
 750 649 l 2,13,14
 750 735 750 735 714 781 c 128,-1,15
 678 827 678 827 608 827 c 0,16,17
 588 827 588 827 565 822.5 c 128,-1,18
 542 818 542 818 518 810.5 c 128,-1,19
 494 803 494 803 471.5 793 c 128,-1,20
 449 783 449 783 432 773 c 1,21,-1
 432 0 l 1,22,-1
 143 0 l 1,23,-1
 143 850 l 1,24,-1
 31 874 l 1,25,-1
 31 940 l 1,26,-1
 413 940 l 1,27,-1
 427 858 l 1,28,29
 457 874 457 874 495 893 c 128,-1,30
 533 912 533 912 577.5 928 c 128,-1,31
 622 944 622 944 671.5 954.5 c 128,-1,32
 721 965 721 965 772 965 c 0,33,34
 829 965 829 965 878 950 c 128,-1,35
 927 935 927 935 963 902 c 128,-1,36
 999 869 999 869 1019 816 c 128,-1,37
 1039 763 1039 763 1039 688 c 2,38,-1
 1039 70 l 2,0,1
EndSplineSet
EndChar

StartChar: theta
Encoding: 952 952 385
Width: 1069
Flags: W
LayerCount: 2
Fore
SplineSet
983 708 m 0,0,1
 983 531 983 531 956 395.5 c 128,-1,2
 929 260 929 260 873.5 167.5 c 128,-1,3
 818 75 818 75 732 27.5 c 128,-1,4
 646 -20 646 -20 528 -20 c 0,5,6
 305 -20 305 -20 195 165 c 128,-1,7
 85 350 85 350 85 708 c 0,8,9
 85 1060 85 1060 195.5 1246 c 128,-1,10
 306 1432 306 1432 536 1432 c 0,11,12
 759 1432 759 1432 871 1249 c 128,-1,13
 983 1066 983 1066 983 708 c 0,0,1
530 80 m 256,14,15
 572 80 572 80 602.5 117.5 c 128,-1,16
 633 155 633 155 653 227.5 c 128,-1,17
 673 300 673 300 682.5 406 c 128,-1,18
 692 512 692 512 694 650 c 1,19,-1
 373 650 l 1,20,21
 374 512 374 512 383.5 406 c 128,-1,22
 393 300 393 300 411.5 227.5 c 128,-1,23
 430 155 430 155 459 117.5 c 128,-1,24
 488 80 488 80 530 80 c 256,14,15
530 1331 m 256,25,26
 488 1331 488 1331 459 1294 c 128,-1,27
 430 1257 430 1257 411 1185 c 128,-1,28
 392 1113 392 1113 383 1007.5 c 128,-1,29
 374 902 374 902 373 765 c 1,30,-1
 694 765 l 1,31,32
 692 902 692 902 682.5 1007.5 c 128,-1,33
 673 1113 673 1113 653 1185 c 128,-1,34
 633 1257 633 1257 602.5 1294 c 128,-1,35
 572 1331 572 1331 530 1331 c 256,25,26
EndSplineSet
EndChar

StartChar: iota
Encoding: 953 953 386
Width: 635
Flags: W
LayerCount: 2
Fore
SplineSet
413 -20 m 0,0,1
 338 -20 338 -20 289 -0.5 c 128,-1,2
 240 19 240 19 211.5 52.5 c 128,-1,3
 183 86 183 86 172 131 c 128,-1,4
 161 176 161 176 161 227 c 2,5,-1
 161 850 l 1,6,-1
 45 874 l 1,7,-1
 45 940 l 1,8,-1
 450 940 l 1,9,-1
 450 226 l 2,10,11
 450 158 450 158 473.5 131 c 128,-1,12
 497 104 497 104 539 104 c 0,13,14
 565 104 565 104 583.5 107 c 128,-1,15
 602 110 602 110 628 117 c 1,16,-1
 628 35 l 1,17,18
 614 25 614 25 590 15 c 128,-1,19
 566 5 566 5 537 -2.5 c 128,-1,20
 508 -10 508 -10 476 -15 c 128,-1,21
 444 -20 444 -20 413 -20 c 0,0,1
EndSplineSet
EndChar

StartChar: kappa
Encoding: 954 954 387
Width: 1137
Flags: W
LayerCount: 2
Fore
SplineSet
1060 940 m 1,0,-1
 1060 874 l 1,1,-1
 951 858 l 1,2,-1
 720 617 l 1,3,-1
 1008 93 l 1,4,-1
 1123 68 l 1,5,-1
 1123 0 l 1,6,-1
 757 0 l 1,7,-1
 541 429 l 1,8,-1
 432 337 l 1,9,-1
 432 0 l 1,10,-1
 143 0 l 1,11,-1
 143 850 l 1,12,-1
 37 874 l 1,13,-1
 37 940 l 1,14,-1
 432 940 l 1,15,-1
 432 450 l 1,16,-1
 862 940 l 1,17,-1
 1060 940 l 1,0,-1
EndSplineSet
EndChar

StartChar: lambda
Encoding: 955 955 388
Width: 1006
Flags: W
LayerCount: 2
Fore
SplineSet
24 0 m 1,0,-1
 24 50 l 1,1,-1
 485 985 l 1,2,-1
 458 1069 l 2,3,4
 440 1123 440 1123 418.5 1168 c 128,-1,5
 397 1213 397 1213 373 1246 c 128,-1,6
 349 1279 349 1279 321.5 1297 c 128,-1,7
 294 1315 294 1315 263 1315 c 0,8,9
 240 1315 240 1315 226.5 1309 c 128,-1,10
 213 1303 213 1303 199 1292 c 1,11,-1
 156 1196 l 1,12,-1
 96 1196 l 1,13,-1
 96 1416 l 1,14,15
 118 1421 118 1421 136.5 1425.5 c 128,-1,16
 155 1430 155 1430 173.5 1434 c 128,-1,17
 192 1438 192 1438 212.5 1440 c 128,-1,18
 233 1442 233 1442 261 1442 c 0,19,20
 330 1442 330 1442 378 1421 c 128,-1,21
 426 1400 426 1400 463.5 1354 c 128,-1,22
 501 1308 501 1308 532.5 1235 c 128,-1,23
 564 1162 564 1162 599 1059 c 2,24,-1
 909 156 l 2,25,26
 916 135 916 135 927.5 119.5 c 128,-1,27
 939 104 939 104 952.5 93.5 c 128,-1,28
 966 83 966 83 981.5 76 c 128,-1,29
 997 69 997 69 1012 65 c 1,30,-1
 1012 0 l 1,31,-1
 811 0 l 1,32,-1
 593 658 l 1,33,34
 576 612 576 612 559 569 c 0,35,36
 545 532 545 532 529 492 c 128,-1,37
 513 452 513 452 501 424 c 2,38,-1
 317 0 l 1,39,-1
 24 0 l 1,0,-1
EndSplineSet
EndChar

StartChar: mu
Encoding: 956 956 389
Width: 1161
Flags: W
LayerCount: 2
Fore
SplineSet
759 92 m 1,0,1
 739 72 739 72 716 52 c 128,-1,2
 693 32 693 32 665.5 16 c 128,-1,3
 638 0 638 0 606 -10 c 128,-1,4
 574 -20 574 -20 535 -20 c 0,5,6
 485 -20 485 -20 451 -6.5 c 128,-1,7
 417 7 417 7 391 32 c 1,8,9
 391 -3 391 -3 389.5 -60 c 128,-1,10
 388 -117 388 -117 386 -182 c 128,-1,11
 384 -247 384 -247 382 -314 c 128,-1,12
 380 -381 380 -381 378 -436 c 1,13,-1
 96 -436 l 1,14,-1
 96 -391 l 1,15,16
 107 -272 107 -272 113.5 -149.5 c 128,-1,17
 120 -27 120 -27 120 103 c 2,18,-1
 120 849 l 1,19,-1
 26 874 l 1,20,-1
 26 940 l 1,21,-1
 409 940 l 1,22,-1
 409 288 l 2,23,24
 409 197 409 197 447 155.5 c 128,-1,25
 485 114 485 114 564 114 c 0,26,27
 595 114 595 114 622 121 c 128,-1,28
 649 128 649 128 672.5 139 c 128,-1,29
 696 150 696 150 716 164 c 128,-1,30
 736 178 736 178 754 193 c 1,31,-1
 754 849 l 1,32,-1
 668 874 l 1,33,-1
 668 940 l 1,34,-1
 1043 940 l 1,35,-1
 1043 90 l 1,36,-1
 1135 65 l 1,37,-1
 1135 0 l 1,38,-1
 778 0 l 1,39,-1
 759 92 l 1,0,1
EndSplineSet
EndChar

StartChar: nu
Encoding: 957 957 390
Width: 915
Flags: W
LayerCount: 2
Fore
SplineSet
384 -20 m 1,0,-1
 53 850 l 1,1,-1
 -3 874 l 1,2,-1
 -3 940 l 1,3,-1
 318 940 l 1,4,-1
 549 271 l 1,5,-1
 649 537 l 2,6,7
 674 603 674 603 692 671.5 c 128,-1,8
 710 740 710 740 710 792 c 0,9,10
 710 835 710 835 687 859.5 c 128,-1,11
 664 884 664 884 631 895 c 1,12,-1
 631 940 l 1,13,-1
 869 940 l 1,14,15
 876 928 876 928 882 906.5 c 128,-1,16
 888 885 888 885 888 853 c 0,17,18
 888 811 888 811 876 760 c 128,-1,19
 864 709 864 709 837 647 c 2,20,-1
 540 -20 l 1,21,-1
 384 -20 l 1,0,-1
EndSplineSet
EndChar

StartChar: xi
Encoding: 958 958 391
Width: 913
Flags: W
LayerCount: 2
Fore
SplineSet
593 1330 m 1,0,-1
 124 1272 l 1,1,-1
 124 1421 l 1,2,3
 163 1421 163 1421 217.5 1421 c 128,-1,4
 272 1421 272 1421 334.5 1422 c 128,-1,5
 397 1423 397 1423 465 1424 c 128,-1,6
 533 1425 533 1425 599 1427 c 128,-1,7
 665 1429 665 1429 726 1431.5 c 128,-1,8
 787 1434 787 1434 836 1438 c 1,9,-1
 836 1329 l 1,10,11
 804 1322 804 1322 765.5 1310 c 128,-1,12
 727 1298 727 1298 687 1279 c 128,-1,13
 647 1260 647 1260 609.5 1234.5 c 128,-1,14
 572 1209 572 1209 543 1176 c 128,-1,15
 514 1143 514 1143 496.5 1102 c 128,-1,16
 479 1061 479 1061 479 1012 c 0,17,18
 479 969 479 969 491 934 c 128,-1,19
 503 899 503 899 520.5 873 c 128,-1,20
 538 847 538 847 558 831 c 128,-1,21
 578 815 578 815 594 809 c 1,22,23
 616 813 616 813 642 818 c 128,-1,24
 668 823 668 823 693 827.5 c 128,-1,25
 718 832 718 832 739 835.5 c 128,-1,26
 760 839 760 839 773 839 c 2,27,-1
 813 839 l 1,28,-1
 813 681 l 1,29,-1
 772 681 l 2,30,31
 759 681 759 681 733.5 683.5 c 128,-1,32
 708 686 708 686 677.5 690.5 c 128,-1,33
 647 695 647 695 616 699.5 c 128,-1,34
 585 704 585 704 561 709 c 1,35,36
 518 690 518 690 479.5 665 c 128,-1,37
 441 640 441 640 411.5 605 c 128,-1,38
 382 570 382 570 365 524.5 c 128,-1,39
 348 479 348 479 348 420 c 0,40,41
 348 376 348 376 361 343 c 128,-1,42
 374 310 374 310 405 286 c 128,-1,43
 436 262 436 262 486 244 c 128,-1,44
 536 226 536 226 610 212 c 0,45,46
 693 196 693 196 750.5 172.5 c 128,-1,47
 808 149 808 149 843.5 117 c 128,-1,48
 879 85 879 85 895 44 c 128,-1,49
 911 3 911 3 911 -49 c 0,50,51
 911 -115 911 -115 883 -170 c 128,-1,52
 855 -225 855 -225 806 -268 c 128,-1,53
 757 -311 757 -311 690.5 -342 c 128,-1,54
 624 -373 624 -373 547 -390 c 1,55,-1
 547 -286 l 1,56,57
 584 -273 584 -273 612 -259.5 c 128,-1,58
 640 -246 640 -246 659.5 -230 c 128,-1,59
 679 -214 679 -214 689 -193.5 c 128,-1,60
 699 -173 699 -173 699 -145 c 0,61,62
 699 -120 699 -120 688.5 -101.5 c 128,-1,63
 678 -83 678 -83 651.5 -68 c 128,-1,64
 625 -53 625 -53 580.5 -41 c 128,-1,65
 536 -29 536 -29 469 -17 c 0,66,67
 377 -1 377 -1 304 26.5 c 128,-1,68
 231 54 231 54 180 99.5 c 128,-1,69
 129 145 129 145 102 210 c 128,-1,70
 75 275 75 275 75 366 c 0,71,72
 75 441 75 441 103 501.5 c 128,-1,73
 131 562 131 562 180 610 c 128,-1,74
 229 658 229 658 294 693.5 c 128,-1,75
 359 729 359 729 434 754 c 1,76,-1
 434 761 l 1,77,78
 398 773 398 773 359 792.5 c 128,-1,79
 320 812 320 812 287 842 c 128,-1,80
 254 872 254 872 232.5 914 c 128,-1,81
 211 956 211 956 211 1013 c 0,82,83
 211 1077 211 1077 242 1127 c 128,-1,84
 273 1177 273 1177 325.5 1215 c 128,-1,85
 378 1253 378 1253 447.5 1279.5 c 128,-1,86
 517 1306 517 1306 593 1323 c 1,87,-1
 593 1330 l 1,0,-1
EndSplineSet
EndChar

StartChar: pi
Encoding: 960 960 393
Width: 1122
Flags: W
LayerCount: 2
Fore
SplineSet
1004 105 m 0,0,1
 1028 105 1028 105 1052 108.5 c 128,-1,2
 1076 112 1076 112 1101 118 c 1,3,-1
 1101 23 l 1,4,5
 1085 14 1085 14 1061.5 6 c 128,-1,6
 1038 -2 1038 -2 1010.5 -8 c 128,-1,7
 983 -14 983 -14 953.5 -17 c 128,-1,8
 924 -20 924 -20 896 -20 c 0,9,10
 821 -20 821 -20 769.5 -2 c 128,-1,11
 718 16 718 16 686.5 47.5 c 128,-1,12
 655 79 655 79 641 122.5 c 128,-1,13
 627 166 627 166 627 217 c 2,14,-1
 627 836 l 1,15,-1
 411 836 l 1,16,-1
 381 383 l 2,17,18
 376 302 376 302 370 241 c 128,-1,19
 364 180 364 180 358.5 134.5 c 128,-1,20
 353 89 353 89 347.5 56.5 c 128,-1,21
 342 24 342 24 338 0 c 1,22,-1
 116 0 l 1,23,-1
 116 45 l 1,24,25
 145 75 145 75 166 103.5 c 128,-1,26
 187 132 187 132 202 169 c 128,-1,27
 217 206 217 206 226 258.5 c 128,-1,28
 235 311 235 311 241 389 c 2,29,-1
 274 836 l 1,30,-1
 174 836 l 1,31,-1
 107 668 l 1,32,-1
 26 668 l 1,33,-1
 47 940 l 1,34,-1
 1101 940 l 1,35,-1
 1101 836 l 1,36,-1
 916 836 l 1,37,-1
 916 235 l 2,38,39
 916 105 916 105 1004 105 c 0,0,1
EndSplineSet
EndChar

StartChar: rho
Encoding: 961 961 394
Width: 1096
Flags: W
LayerCount: 2
Fore
SplineSet
122 554 m 2,0,1
 122 653 122 653 150.5 729 c 128,-1,2
 179 805 179 805 233 856.5 c 128,-1,3
 287 908 287 908 365.5 934.5 c 128,-1,4
 444 961 444 961 545 961 c 0,5,6
 638 961 638 961 722.5 928.5 c 128,-1,7
 807 896 807 896 871.5 830.5 c 128,-1,8
 936 765 936 765 974 665.5 c 128,-1,9
 1012 566 1012 566 1012 432 c 0,10,11
 1012 312 1012 312 979.5 226.5 c 128,-1,12
 947 141 947 141 894 86.5 c 128,-1,13
 841 32 841 32 774 6 c 128,-1,14
 707 -20 707 -20 638 -20 c 256,15,16
 569 -20 569 -20 512.5 -7.5 c 128,-1,17
 456 5 456 5 411 22 c 1,18,-1
 411 -436 l 1,19,-1
 122 -436 l 1,20,-1
 122 554 l 2,0,1
546 101 m 0,21,22
 585 101 585 101 617 117.5 c 128,-1,23
 649 134 649 134 672 172.5 c 128,-1,24
 695 211 695 211 707.5 273.5 c 128,-1,25
 720 336 720 336 720 429 c 0,26,27
 720 549 720 549 704 626.5 c 128,-1,28
 688 704 688 704 663 749 c 128,-1,29
 638 794 638 794 607.5 811.5 c 128,-1,30
 577 829 577 829 548 829 c 0,31,32
 484 829 484 829 447.5 765.5 c 128,-1,33
 411 702 411 702 411 580 c 2,34,-1
 411 123 l 1,35,36
 469 101 469 101 546 101 c 0,21,22
EndSplineSet
EndChar

StartChar: sigma1
Encoding: 962 962 395
Width: 864
Flags: W
LayerCount: 2
Fore
SplineSet
358 477 m 0,0,1
 358 412 358 412 371.5 369 c 128,-1,2
 385 326 385 326 411 298 c 128,-1,3
 437 270 437 270 475.5 253 c 128,-1,4
 514 236 514 236 564 223 c 0,5,6
 645 202 645 202 705 180 c 128,-1,7
 765 158 765 158 805 127 c 128,-1,8
 845 96 845 96 865 54 c 128,-1,9
 885 12 885 12 885 -49 c 0,10,11
 885 -112 885 -112 860.5 -163.5 c 128,-1,12
 836 -215 836 -215 790 -257 c 128,-1,13
 744 -299 744 -299 676.5 -331.5 c 128,-1,14
 609 -364 609 -364 524 -390 c 1,15,-1
 524 -285 l 1,16,17
 557 -273 557 -273 585 -259.5 c 128,-1,18
 613 -246 613 -246 632.5 -229.5 c 128,-1,19
 652 -213 652 -213 663 -192.5 c 128,-1,20
 674 -172 674 -172 674 -145 c 0,21,22
 674 -119 674 -119 662 -100 c 128,-1,23
 650 -81 650 -81 624.5 -66 c 128,-1,24
 599 -51 599 -51 559 -38.5 c 128,-1,25
 519 -26 519 -26 462 -14 c 0,26,27
 360 7 360 7 287 41 c 128,-1,28
 214 75 214 75 167 124 c 128,-1,29
 120 173 120 173 98 239.5 c 128,-1,30
 76 306 76 306 76 393 c 0,31,32
 76 519 76 519 116.5 624 c 128,-1,33
 157 729 157 729 226 804.5 c 128,-1,34
 295 880 295 880 386 922.5 c 128,-1,35
 477 965 477 965 577 965 c 0,36,37
 616 965 616 965 649.5 962.5 c 128,-1,38
 683 960 683 960 714 955 c 128,-1,39
 745 950 745 950 775.5 943.5 c 128,-1,40
 806 937 806 937 838 930 c 1,41,-1
 838 672 l 1,42,-1
 766 672 l 1,43,-1
 724 817 l 1,44,45
 697 838 697 838 663 850 c 128,-1,46
 629 862 629 862 584 862 c 256,47,48
 539 862 539 862 498 839.5 c 128,-1,49
 457 817 457 817 426 770 c 128,-1,50
 395 723 395 723 376.5 650 c 128,-1,51
 358 577 358 577 358 477 c 0,0,1
EndSplineSet
EndChar

